M48
METRIC,LZ,000.000
;FILE_FORMAT=3:3
;TYPE=PLATED
;Layer: PTH_Through
;EasyEDA v6.5.23, 2023-05-28 22:20:17
;a98212a221284062af17828272900665,7a5a352eff0f4c5696d858f44224924f,10
;Gerber Generator version 0.2
;Holesize 1 = 0.500 mm
T01C0.500
;Holesize 2 = 0.800 mm
T02C0.800
;Holesize 3 = 0.901 mm
T03C0.901
;Holesize 4 = 0.915 mm
T04C0.915
;Holesize 5 = 1.000 mm
T05C1.000
;Holesize 6 = 1.101 mm
T06C1.101
;Holesize 7 = 1.200 mm
T07C1.200
;Holesize 8 = 1.501 mm
T08C1.501
;Holesize 9 = 1.701 mm
T09C1.701
;Holesize 10 = 1.800 mm
T10C1.800
;Holesize 11 = 2.701 mm
T11C2.701
%
G05
G90
T01
X098036Y072898G85X098036Y072898
X097445Y071465G85X097445Y071465
X096012Y070874G85X096012Y070874
X094579Y071465G85X094579Y071465
X093988Y072898G85X093988Y072898
X094579Y074331G85X094579Y074331
X096012Y074922G85X096012Y074922
X097445Y074331G85X097445Y074331
X098163Y022479G85X098163Y022479
X097572Y021046G85X097572Y021046
X096139Y020455G85X096139Y020455
X094706Y021046G85X094706Y021046
X094115Y022479G85X094115Y022479
X094706Y023912G85X094706Y023912
X096139Y024503G85X096139Y024503
X097572Y023912G85X097572Y023912
X018153Y022479G85X018153Y022479
X017562Y021046G85X017562Y021046
X016129Y020455G85X016129Y020455
X014696Y021046G85X014696Y021046
X014105Y022479G85X014105Y022479
X014696Y023912G85X014696Y023912
X016129Y024503G85X016129Y024503
X017562Y023912G85X017562Y023912
X018153Y072771G85X018153Y072771
X017562Y071338G85X017562Y071338
X016129Y070747G85X016129Y070747
X014696Y071338G85X014696Y071338
X014105Y072771G85X014105Y072771
X014696Y074204G85X014696Y074204
X016129Y074795G85X016129Y074795
X017562Y074204G85X017562Y074204
T02
X062237Y016911G85X062237Y017511
X062237Y020991G85X062237Y021791
X053587Y020991G85X053587Y021791
X053587Y016911G85X053587Y017511
T03
X089471Y042291
X087471Y042291
X085471Y042291
X083471Y042291
X081471Y042291
T04
X068580Y019177
X073660Y019177
X071120Y019177
T05
X023236Y031787
X024506Y034327
X025776Y031787
X027046Y034327
X028316Y031787
X029586Y034327
X030856Y031787
X032126Y034327
X080963Y017223
X082963Y017223
X086963Y017223
X088963Y017223
X088963Y020623
X086963Y020623
X082963Y020623
X080963Y020623
T06
X021061Y020537
X023601Y020537
X031771Y020537
X034311Y020537
T07
X041438Y018923
X045938Y018923
T08
X085471Y074676
X027432Y074803
X047188Y021463
X040188Y021463
T09
X088021Y077226
X082921Y077226
X082921Y072126
X088021Y072126
X029982Y077353
X024882Y077353
X024882Y072253
X029982Y072253
T10
X019941Y028487
X035431Y028487
T11
X096012Y072898G85X096012Y072898
X096139Y022479G85X096139Y022479
X016129Y022479G85X016129Y022479
X016129Y072771G85X016129Y072771
M30
