M48
METRIC,LZ,000.000
;FILE_FORMAT=3:3
;TYPE=PLATED
;Layer: PTH_Through_Via
;EasyEDA v6.5.23, 2023-05-28 22:20:17
;a98212a221284062af17828272900665,7a5a352eff0f4c5696d858f44224924f,10
;Gerber Generator version 0.2
;Holesize 1 = 0.305 mm
T01C0.305
;Holesize 2 = 0.306 mm
T02C0.306
%
G05
G90
T01
X034925Y041529
X023876Y042545
X026162Y042545
X028575Y042545
X030988Y042545
X026035Y049022
X017653Y052705
X017653Y050546
X017653Y048260
X015875Y050546
X026797Y048260
X027940Y048260
X028575Y049022
X031750Y050800
X030607Y050800
X037973Y022479
X040386Y032004
X035687Y050165
X035560Y053340
X035560Y055118
X037211Y058293
X022606Y061214
X024765Y061214
X026924Y061214
X029083Y061214
X031242Y061214
X028067Y064389
X024384Y055880
X025781Y056261
X026797Y056769
X027940Y056261
X029210Y057150
X030480Y057150
X046228Y033147
X045085Y038227
X044704Y040259
X044450Y042164
X024384Y053340
X021590Y053594
X013589Y054102
X036449Y033782
X046863Y033782
X039497Y033782
X023495Y064389
X025781Y064389
X030226Y064389
X032258Y064389
X027940Y062357
X022860Y051054
X024257Y050800
X022606Y052324
X054229Y049149
X055499Y044704
X058039Y045466
X061849Y043815
X052959Y049149
X025273Y049911
X030734Y049403
X042926Y056261
X034671Y058039
X037211Y060198
X048133Y061595
X058801Y055245
X064389Y062865
X057023Y072009
X067945Y072009
X045847Y072009
X028448Y053340
X027432Y053340
X026543Y053340
X054864Y039624
X054864Y036068
X042926Y062357
X078486Y033909
X081534Y033020
X063881Y038608
X066929Y035179
X065925Y034163
X065913Y035179
X072517Y033147
X066929Y034163
X066929Y033147
X046228Y029337
X054737Y028575
X064897Y035179
X064897Y034163
X064897Y033147
X065913Y033147
X064389Y048895
X068961Y033401
X063881Y036830
X057658Y031750
X054356Y031750
X056388Y036068
X061849Y062865
X046736Y064389
X073660Y027686
X081534Y031496
X070866Y075311
X055499Y065913
X068961Y058547
X054610Y056769
X054610Y055245
X054610Y059563
X054610Y058166
X058801Y056769
X058801Y059563
X058801Y058166
X064770Y031242
X056769Y058166
X056769Y059563
X056769Y056769
X056769Y055245
X079248Y033147
X047879Y042926
X056388Y039751
X024384Y054483
X051689Y049149
X077216Y056388
X077216Y054864
X086741Y053467
X088011Y057658
X077216Y056388
X072009Y054737
X089916Y049530
X089916Y050800
X094107Y061468
X081661Y048895
X081026Y055880
X081788Y057785
X073279Y056261
X081534Y064516
X081534Y065405
X081534Y063627
X077470Y064516
X077470Y065405
X077470Y063627
X080010Y042291
X090932Y042291
X080772Y059309
X094234Y048260
X094107Y059944
X085471Y057658
X093726Y057912
X066802Y037211
X067945Y037973
X058547Y030226
X057404Y030226
X059817Y030226
X060706Y033147
X063119Y062865
X063119Y061849
T02
X059690Y020955
X057404Y025146
X065786Y025146
X057277Y019939
X056642Y020955
X066167Y027940
X065405Y028575
X058293Y019939
X049530Y025146
X049403Y019050
M30
