G04 Layer: BottomSolderMaskLayer*
G04 EasyEDA v6.5.23, 2023-05-28 22:20:17*
G04 a98212a221284062af17828272900665,7a5a352eff0f4c5696d858f44224924f,10*
G04 Gerber Generator version 0.2*
G04 Scale: 100 percent, Rotated: No, Reflected: No *
G04 Dimensions in millimeters *
G04 leading zeros omitted , absolute positions ,4 integer and 5 decimal *
%FSLAX45Y45*%
%MOMM*%

%AMMACRO1*1,1,$1,$2,$3*1,1,$1,$4,$5*1,1,$1,0-$2,0-$3*1,1,$1,0-$4,0-$5*20,1,$1,$2,$3,$4,$5,0*20,1,$1,$4,$5,0-$2,0-$3,0*20,1,$1,0-$2,0-$3,0-$4,0-$5,0*20,1,$1,0-$4,0-$5,$2,$3,0*4,1,4,$2,$3,$4,$5,0-$2,0-$3,0-$4,0-$5,$2,$3,0*%
%ADD10C,5.6032*%
%ADD11C,0.8032*%
%ADD12C,1.5016*%
%ADD13MACRO1,0.1016X-0.762X0.7X0.762X0.7*%
%ADD14O,1.3015976000000002X1.9015964*%
%ADD15O,1.3015976000000002X2.1015960000000002*%
%ADD16MACRO1,0.1016X-0.8X0.8X0.8X0.8*%
%ADD17C,1.7016*%
%ADD18C,1.9016*%
%ADD19C,2.6016*%
%ADD20C,2.3016*%
%ADD21C,1.6256*%

%LPD*%
D10*
G01*
X9601200Y7289800D03*
D11*
G01*
X9803688Y7289800D03*
G01*
X9744379Y7146620D03*
G01*
X9601200Y7087311D03*
G01*
X9458020Y7146620D03*
G01*
X9398711Y7289800D03*
G01*
X9458020Y7432979D03*
G01*
X9601200Y7492288D03*
G01*
X9744379Y7432979D03*
D10*
G01*
X9613900Y2247900D03*
D11*
G01*
X9816388Y2247900D03*
G01*
X9757079Y2104720D03*
G01*
X9613900Y2045411D03*
G01*
X9470720Y2104720D03*
G01*
X9411411Y2247900D03*
G01*
X9470720Y2391079D03*
G01*
X9613900Y2450388D03*
G01*
X9757079Y2391079D03*
D10*
G01*
X1612900Y2247900D03*
D11*
G01*
X1815388Y2247900D03*
G01*
X1756079Y2104720D03*
G01*
X1612900Y2045411D03*
G01*
X1469720Y2104720D03*
G01*
X1410411Y2247900D03*
G01*
X1469720Y2391079D03*
G01*
X1612900Y2450388D03*
G01*
X1756079Y2391079D03*
D10*
G01*
X1612900Y7277100D03*
D11*
G01*
X1815388Y7277100D03*
G01*
X1756079Y7133920D03*
G01*
X1612900Y7074611D03*
G01*
X1469720Y7133920D03*
G01*
X1410411Y7277100D03*
G01*
X1469720Y7420279D03*
G01*
X1612900Y7479588D03*
G01*
X1756079Y7420279D03*
D12*
G01*
X8947099Y4229100D03*
G01*
X8747099Y4229100D03*
G01*
X8547100Y4229100D03*
G01*
X8347100Y4229100D03*
D13*
G01*
X8147100Y4229100D03*
D14*
G01*
X6223685Y1721154D03*
D15*
G01*
X6223685Y2139137D03*
G01*
X5358663Y2139137D03*
D14*
G01*
X5358663Y1721154D03*
D16*
G01*
X2323599Y3178695D03*
D17*
G01*
X2450591Y3432682D03*
G01*
X2577591Y3178682D03*
G01*
X2704591Y3432682D03*
G01*
X2831591Y3178682D03*
G01*
X2958591Y3432682D03*
G01*
X3085591Y3178682D03*
G01*
X3212591Y3432682D03*
D18*
G01*
X2106091Y2053691D03*
G01*
X2360091Y2053691D03*
G01*
X3177108Y2053691D03*
G01*
X3431108Y2053691D03*
D19*
G01*
X1994103Y2848686D03*
G01*
X3543096Y2848686D03*
D20*
G01*
X8547125Y7467600D03*
D19*
G01*
X8802115Y7722590D03*
G01*
X8292109Y7722590D03*
G01*
X8292109Y7212584D03*
G01*
X8802115Y7212584D03*
D20*
G01*
X2743225Y7480300D03*
D19*
G01*
X2998215Y7735290D03*
G01*
X2488209Y7735290D03*
G01*
X2488209Y7225284D03*
G01*
X2998215Y7225284D03*
D18*
G01*
X4143781Y1892300D03*
G01*
X4593818Y1892300D03*
D20*
G01*
X4718811Y2146300D03*
G01*
X4018813Y2146300D03*
D21*
G01*
X8096300Y1722297D03*
G01*
X8296300Y1722297D03*
G01*
X8696299Y1722297D03*
G01*
X8896299Y1722297D03*
G01*
X8896299Y2062302D03*
G01*
X8696299Y2062302D03*
G01*
X8296300Y2062302D03*
G01*
X8096300Y2062302D03*
G01*
X6858000Y1917700D03*
G01*
X7366000Y1917700D03*
G01*
X7112000Y1917700D03*
M02*
