G04 Layer: BottomLayer*
G04 EasyEDA v6.5.23, 2023-05-28 22:20:17*
G04 a98212a221284062af17828272900665,7a5a352eff0f4c5696d858f44224924f,10*
G04 Gerber Generator version 0.2*
G04 Scale: 100 percent, Rotated: No, Reflected: No *
G04 Dimensions in millimeters *
G04 leading zeros omitted , absolute positions ,4 integer and 5 decimal *
%FSLAX45Y45*%
%MOMM*%

%ADD10C,0.2540*%
%ADD11C,0.5500*%
%ADD12C,0.3000*%
%ADD13C,0.5000*%
%ADD14C,5.4000*%
%ADD15C,0.6000*%
%ADD16C,1.4000*%
%ADD17R,1.5240X1.4000*%
%ADD18O,1.1999976X1.7999964*%
%ADD19O,1.1999976X1.9999959999999999*%
%ADD20R,1.6000X1.6000*%
%ADD21C,1.6000*%
%ADD22C,1.8000*%
%ADD23C,2.5000*%
%ADD24C,2.2000*%
%ADD25C,1.5240*%
%ADD26C,0.6096*%
%ADD27C,0.0105*%

%LPD*%
G36*
X2478379Y2189937D02*
G01*
X2460904Y2174341D01*
X2445004Y2163775D01*
X2430018Y2157120D01*
X2415540Y2153259D01*
X2400909Y2151176D01*
X2385669Y2149754D01*
X2369261Y2147925D01*
X2351074Y2144623D01*
X2330602Y2138730D01*
X2328265Y2021890D01*
X2445105Y2024075D01*
X2450998Y2044547D01*
X2454351Y2062683D01*
X2456180Y2079142D01*
X2457602Y2094382D01*
X2459685Y2109012D01*
X2463546Y2123541D01*
X2470200Y2138527D01*
X2480818Y2154478D01*
X2496362Y2171954D01*
G37*
G36*
X3049930Y5090769D02*
G01*
X3050692Y5051196D01*
X3071317Y5044490D01*
X3075584Y5042662D01*
X3079902Y5040274D01*
X3084372Y5037175D01*
X3089300Y5033162D01*
X3094837Y5027930D01*
X3112770Y5045862D01*
X3107588Y5051399D01*
X3103524Y5056327D01*
X3100425Y5060797D01*
X3098038Y5065115D01*
X3096209Y5069382D01*
X3089503Y5090007D01*
G37*
G36*
X2449169Y5344769D02*
G01*
X2409596Y5344007D01*
X2405583Y5332679D01*
X2404008Y5329478D01*
X2402027Y5326735D01*
X2399588Y5324449D01*
X2396540Y5322773D01*
X2392680Y5321655D01*
X2387955Y5321300D01*
X2387955Y5295900D01*
X2405176Y5296103D01*
X2411882Y5296458D01*
X2417876Y5297068D01*
X2423414Y5297881D01*
X2428900Y5299100D01*
X2441041Y5302707D01*
X2448407Y5305196D01*
G37*
G36*
X3631590Y3405632D02*
G01*
X3612286Y3395776D01*
X3607968Y3394100D01*
X3603244Y3392728D01*
X3597859Y3391712D01*
X3591560Y3391103D01*
X3583940Y3390900D01*
X3583940Y3365500D01*
X3591560Y3365296D01*
X3597859Y3364687D01*
X3603244Y3363671D01*
X3607968Y3362299D01*
X3612286Y3360623D01*
X3631590Y3350768D01*
X3660140Y3378200D01*
G37*
G36*
X4672990Y3405632D02*
G01*
X4653686Y3395776D01*
X4649368Y3394100D01*
X4644644Y3392728D01*
X4639259Y3391712D01*
X4632960Y3391103D01*
X4625340Y3390900D01*
X4625340Y3365500D01*
X4632960Y3365296D01*
X4639259Y3364687D01*
X4644644Y3363671D01*
X4649368Y3362299D01*
X4653686Y3360623D01*
X4672990Y3350768D01*
X4701540Y3378200D01*
G37*
G36*
X3963009Y3405632D02*
G01*
X3934460Y3378200D01*
X3963009Y3350768D01*
X3982313Y3360623D01*
X3986631Y3362299D01*
X3991356Y3363671D01*
X3996740Y3364687D01*
X4003040Y3365296D01*
X4010660Y3365500D01*
X4010660Y3390900D01*
X4003040Y3391103D01*
X3996740Y3391712D01*
X3991356Y3392728D01*
X3986631Y3394100D01*
X3982313Y3395776D01*
G37*
G36*
X3428542Y2239975D02*
G01*
X3411372Y2221585D01*
X3398570Y2205278D01*
X3389122Y2190394D01*
X3382111Y2176221D01*
X3376574Y2162098D01*
X3366109Y2131364D01*
X3359251Y2113432D01*
X3350056Y2092858D01*
X3431133Y2008682D01*
X3512058Y2093010D01*
X3500780Y2110892D01*
X3486658Y2126589D01*
X3471265Y2140661D01*
X3456381Y2153615D01*
X3443579Y2166112D01*
X3434537Y2178608D01*
X3430930Y2191715D01*
X3434334Y2206040D01*
X3446475Y2222042D01*
G37*
G36*
X3164230Y5090769D02*
G01*
X3164992Y5051196D01*
X3185617Y5044490D01*
X3189884Y5042662D01*
X3194202Y5040274D01*
X3198672Y5037175D01*
X3203600Y5033162D01*
X3209137Y5027930D01*
X3227070Y5045862D01*
X3221888Y5051399D01*
X3217824Y5056327D01*
X3214725Y5060797D01*
X3212338Y5065115D01*
X3210509Y5069382D01*
X3203803Y5090007D01*
G37*
G36*
X5422900Y3235960D02*
G01*
X5422696Y3228390D01*
X5422087Y3222040D01*
X5421071Y3216656D01*
X5419699Y3211931D01*
X5418023Y3207613D01*
X5408168Y3188309D01*
X5435600Y3159760D01*
X5463032Y3188309D01*
X5453176Y3207613D01*
X5451500Y3211931D01*
X5450128Y3216656D01*
X5449112Y3222040D01*
X5448503Y3228390D01*
X5448300Y3235960D01*
G37*
G36*
X5649569Y3617569D02*
G01*
X5609996Y3616807D01*
X5603290Y3596182D01*
X5601462Y3591915D01*
X5599074Y3587597D01*
X5595975Y3583127D01*
X5591911Y3578199D01*
X5586730Y3572662D01*
X5604662Y3554729D01*
X5610199Y3559962D01*
X5615127Y3563975D01*
X5619597Y3567074D01*
X5623915Y3569462D01*
X5628182Y3571290D01*
X5648807Y3577996D01*
G37*
G36*
X5672937Y3658870D02*
G01*
X5667400Y3653637D01*
X5662472Y3649624D01*
X5658002Y3646525D01*
X5653684Y3644137D01*
X5649417Y3642309D01*
X5628792Y3635603D01*
X5628030Y3596030D01*
X5667603Y3596792D01*
X5674309Y3617417D01*
X5676138Y3621684D01*
X5678525Y3626002D01*
X5681624Y3630472D01*
X5685688Y3635400D01*
X5690870Y3640937D01*
G37*
G36*
X6184900Y6301740D02*
G01*
X6157468Y6273190D01*
X6167323Y6253886D01*
X6168999Y6249568D01*
X6170371Y6244844D01*
X6171387Y6239459D01*
X6171996Y6233109D01*
X6172200Y6225540D01*
X6197600Y6225540D01*
X6197803Y6233109D01*
X6198412Y6239459D01*
X6199428Y6244844D01*
X6200800Y6249568D01*
X6202476Y6253886D01*
X6212332Y6273190D01*
G37*
G36*
X2565400Y5687060D02*
G01*
X2565196Y5679490D01*
X2564587Y5673140D01*
X2563571Y5667756D01*
X2562199Y5663031D01*
X2560523Y5658713D01*
X2550668Y5639409D01*
X2578100Y5610860D01*
X2605532Y5639409D01*
X2595676Y5658713D01*
X2594000Y5663031D01*
X2592628Y5667756D01*
X2591612Y5673140D01*
X2591003Y5679490D01*
X2590800Y5687060D01*
G37*
G36*
X2578100Y6454140D02*
G01*
X2550668Y6425590D01*
X2560523Y6406286D01*
X2562199Y6401968D01*
X2563571Y6397244D01*
X2564587Y6391859D01*
X2565196Y6385509D01*
X2565400Y6377940D01*
X2590800Y6377940D01*
X2591003Y6385509D01*
X2591612Y6391859D01*
X2592628Y6397244D01*
X2594000Y6401968D01*
X2595676Y6406286D01*
X2605532Y6425590D01*
G37*
G36*
X2311044Y5270500D02*
G01*
X2293823Y5270296D01*
X2287117Y5269941D01*
X2281123Y5269331D01*
X2275586Y5268518D01*
X2270099Y5267299D01*
X2257958Y5263692D01*
X2250592Y5261203D01*
X2249830Y5221630D01*
X2289403Y5222392D01*
X2293416Y5233720D01*
X2294991Y5236921D01*
X2296972Y5239664D01*
X2299411Y5241950D01*
X2302459Y5243626D01*
X2306320Y5244744D01*
X2311044Y5245100D01*
G37*
G36*
X5790590Y4574032D02*
G01*
X5771286Y4564176D01*
X5766968Y4562500D01*
X5762244Y4561128D01*
X5756859Y4560112D01*
X5750560Y4559503D01*
X5742940Y4559300D01*
X5742940Y4533900D01*
X5750560Y4533696D01*
X5756859Y4533087D01*
X5762244Y4532071D01*
X5766968Y4530699D01*
X5771286Y4529023D01*
X5790590Y4519168D01*
X5819140Y4546600D01*
G37*
G36*
X2320137Y5157470D02*
G01*
X2314600Y5152237D01*
X2309672Y5148224D01*
X2305202Y5145125D01*
X2300884Y5142738D01*
X2296617Y5140909D01*
X2275992Y5134203D01*
X2275230Y5094630D01*
X2314803Y5095392D01*
X2321509Y5116017D01*
X2323338Y5120284D01*
X2325725Y5124602D01*
X2328824Y5129072D01*
X2332888Y5134000D01*
X2338070Y5139537D01*
G37*
G36*
X5536590Y4497832D02*
G01*
X5517286Y4487976D01*
X5512968Y4486300D01*
X5508244Y4484928D01*
X5502859Y4483912D01*
X5496560Y4483303D01*
X5488940Y4483100D01*
X5488940Y4457700D01*
X5496560Y4457496D01*
X5502859Y4456887D01*
X5508244Y4455871D01*
X5512968Y4454499D01*
X5517286Y4452823D01*
X5536590Y4442968D01*
X5565140Y4470400D01*
G37*
G36*
X2451709Y5475732D02*
G01*
X2423160Y5448300D01*
X2451709Y5420868D01*
X2471013Y5430723D01*
X2475331Y5432399D01*
X2480056Y5433771D01*
X2485440Y5434787D01*
X2491740Y5435396D01*
X2499360Y5435600D01*
X2499360Y5461000D01*
X2491740Y5461203D01*
X2485440Y5461812D01*
X2480056Y5462828D01*
X2475331Y5464200D01*
X2471013Y5465876D01*
G37*
G36*
X5156200Y4975860D02*
G01*
X5155996Y4968290D01*
X5155387Y4961940D01*
X5154371Y4956556D01*
X5152999Y4951831D01*
X5151323Y4947513D01*
X5141468Y4928209D01*
X5168900Y4899660D01*
X5196332Y4928209D01*
X5186476Y4947513D01*
X5184800Y4951831D01*
X5183428Y4956556D01*
X5182412Y4961940D01*
X5181803Y4968290D01*
X5181600Y4975860D01*
G37*
G36*
X5283200Y4975860D02*
G01*
X5282996Y4968290D01*
X5282387Y4961940D01*
X5281371Y4956556D01*
X5279999Y4951831D01*
X5278323Y4947513D01*
X5268468Y4928209D01*
X5295900Y4899660D01*
X5323332Y4928209D01*
X5313476Y4947513D01*
X5311800Y4951831D01*
X5310428Y4956556D01*
X5309412Y4961940D01*
X5308803Y4968290D01*
X5308600Y4975860D01*
G37*
G36*
X3456330Y5814669D02*
G01*
X3457092Y5775096D01*
X3477717Y5768390D01*
X3481984Y5766562D01*
X3486302Y5764174D01*
X3490772Y5761075D01*
X3495700Y5757062D01*
X3501237Y5751830D01*
X3519170Y5769762D01*
X3513988Y5775299D01*
X3509924Y5780227D01*
X3506825Y5784697D01*
X3504437Y5789015D01*
X3502609Y5793282D01*
X3495903Y5813907D01*
G37*
G36*
X2404262Y5640070D02*
G01*
X2386330Y5622137D01*
X2391511Y5616600D01*
X2395575Y5611672D01*
X2398674Y5607202D01*
X2401062Y5602884D01*
X2402890Y5598617D01*
X2409596Y5577992D01*
X2449169Y5577230D01*
X2448407Y5616803D01*
X2427782Y5623509D01*
X2423515Y5625338D01*
X2419197Y5627725D01*
X2414727Y5630824D01*
X2409799Y5634837D01*
G37*
G36*
X2383637Y6490970D02*
G01*
X2378100Y6485737D01*
X2373172Y6481724D01*
X2368702Y6478625D01*
X2364384Y6476238D01*
X2360117Y6474409D01*
X2339492Y6467703D01*
X2338730Y6428130D01*
X2378303Y6428892D01*
X2385009Y6449517D01*
X2386838Y6453784D01*
X2389225Y6458102D01*
X2392324Y6462572D01*
X2396388Y6467500D01*
X2401570Y6473037D01*
G37*
G36*
X2349500Y6454140D02*
G01*
X2322068Y6425590D01*
X2331923Y6406286D01*
X2333599Y6401968D01*
X2334971Y6397244D01*
X2335987Y6391859D01*
X2336596Y6385509D01*
X2336800Y6377940D01*
X2362200Y6377940D01*
X2362403Y6385509D01*
X2363012Y6391859D01*
X2364028Y6397244D01*
X2365400Y6401968D01*
X2367076Y6406286D01*
X2376932Y6425590D01*
G37*
G36*
X5410200Y4975860D02*
G01*
X5409996Y4968290D01*
X5409387Y4961940D01*
X5408371Y4956556D01*
X5406999Y4951831D01*
X5405323Y4947513D01*
X5395468Y4928209D01*
X5422900Y4899660D01*
X5450332Y4928209D01*
X5440476Y4947513D01*
X5438800Y4951831D01*
X5437428Y4956556D01*
X5436412Y4961940D01*
X5435803Y4968290D01*
X5435600Y4975860D01*
G37*
G36*
X4647895Y2961284D02*
G01*
X4636109Y2961132D01*
X4607560Y2933700D01*
X4636109Y2906268D01*
X4647895Y2906115D01*
X4683760Y2906217D01*
X4683760Y2961182D01*
G37*
G36*
X6896100Y3355340D02*
G01*
X6868668Y3326790D01*
X6868515Y3315004D01*
X6868617Y3279140D01*
X6923582Y3279140D01*
X6923684Y3315004D01*
X6923531Y3326790D01*
G37*
G36*
X6868617Y3401060D02*
G01*
X6868515Y3365195D01*
X6868668Y3353409D01*
X6896100Y3324860D01*
X6923531Y3353409D01*
X6923684Y3365195D01*
X6923582Y3401060D01*
G37*
G36*
X6896100Y5869940D02*
G01*
X6868668Y5841390D01*
X6868515Y5829604D01*
X6868617Y5793740D01*
X6923582Y5793740D01*
X6923684Y5829604D01*
X6923531Y5841390D01*
G37*
G36*
X6781190Y3824732D02*
G01*
X6761886Y3814876D01*
X6757568Y3813200D01*
X6752844Y3811828D01*
X6747459Y3810812D01*
X6741159Y3810203D01*
X6733540Y3810000D01*
X6733540Y3784600D01*
X6741159Y3784396D01*
X6747459Y3783787D01*
X6752844Y3782771D01*
X6757568Y3781399D01*
X6761886Y3779723D01*
X6781190Y3769868D01*
X6809740Y3797300D01*
G37*
G36*
X5774537Y3074670D02*
G01*
X5769000Y3069437D01*
X5764072Y3065424D01*
X5759602Y3062325D01*
X5755284Y3059938D01*
X5751017Y3058109D01*
X5730392Y3051403D01*
X5729630Y3011830D01*
X5769203Y3012592D01*
X5775909Y3033217D01*
X5777738Y3037484D01*
X5780125Y3041802D01*
X5783224Y3046272D01*
X5787288Y3051200D01*
X5792470Y3056737D01*
G37*
G36*
X6374790Y3710432D02*
G01*
X6355486Y3700576D01*
X6351168Y3698900D01*
X6346444Y3697528D01*
X6341059Y3696512D01*
X6334760Y3695903D01*
X6327140Y3695700D01*
X6327140Y3670300D01*
X6334760Y3670096D01*
X6341059Y3669487D01*
X6346444Y3668471D01*
X6351168Y3667099D01*
X6355486Y3665423D01*
X6374790Y3655568D01*
X6403340Y3683000D01*
G37*
G36*
X5753100Y3235960D02*
G01*
X5752896Y3228390D01*
X5752287Y3222040D01*
X5751271Y3216656D01*
X5749899Y3211931D01*
X5748223Y3207613D01*
X5738368Y3188309D01*
X5765800Y3159760D01*
X5793232Y3188309D01*
X5783376Y3207613D01*
X5781700Y3211931D01*
X5780328Y3216656D01*
X5779312Y3222040D01*
X5778703Y3228390D01*
X5778500Y3235960D01*
G37*
G36*
X2807309Y5653532D02*
G01*
X2778760Y5626100D01*
X2807309Y5598668D01*
X2826613Y5608523D01*
X2830931Y5610199D01*
X2835656Y5611571D01*
X2841040Y5612587D01*
X2847340Y5613196D01*
X2854960Y5613400D01*
X2854960Y5638800D01*
X2847340Y5639003D01*
X2841040Y5639612D01*
X2835656Y5640628D01*
X2830931Y5642000D01*
X2826613Y5643676D01*
G37*
G36*
X4279290Y5653532D02*
G01*
X4259986Y5643676D01*
X4255668Y5642000D01*
X4250944Y5640628D01*
X4245559Y5639612D01*
X4239260Y5639003D01*
X4231640Y5638800D01*
X4231640Y5613400D01*
X4239260Y5613196D01*
X4245559Y5612587D01*
X4250944Y5611571D01*
X4255668Y5610199D01*
X4259986Y5608523D01*
X4279290Y5598668D01*
X4307840Y5626100D01*
G37*
G36*
X8883650Y2214727D02*
G01*
X8882583Y2195017D01*
X8879484Y2179116D01*
X8874760Y2166162D01*
X8868664Y2155088D01*
X8861450Y2145030D01*
X8844991Y2124049D01*
X8836304Y2111197D01*
X8827719Y2095550D01*
X8896299Y2024227D01*
X8964879Y2095449D01*
X8956344Y2111146D01*
X8947658Y2123948D01*
X8931249Y2144979D01*
X8924036Y2155037D01*
X8917940Y2166112D01*
X8913215Y2179116D01*
X8910116Y2194966D01*
X8909050Y2214727D01*
G37*
G36*
X4686909Y6466332D02*
G01*
X4658360Y6438900D01*
X4686909Y6411468D01*
X4706213Y6421323D01*
X4710531Y6422999D01*
X4715256Y6424371D01*
X4720640Y6425387D01*
X4726940Y6425996D01*
X4734560Y6426200D01*
X4734560Y6451600D01*
X4726940Y6451803D01*
X4720640Y6452412D01*
X4715256Y6453428D01*
X4710531Y6454800D01*
X4706213Y6456476D01*
G37*
G36*
X7188200Y5534660D02*
G01*
X7187996Y5527090D01*
X7187387Y5520740D01*
X7186371Y5515356D01*
X7184999Y5510631D01*
X7183323Y5506313D01*
X7173468Y5487009D01*
X7200900Y5458460D01*
X7228331Y5487009D01*
X7218476Y5506313D01*
X7216800Y5510631D01*
X7215428Y5515356D01*
X7214412Y5520740D01*
X7213803Y5527090D01*
X7213600Y5534660D01*
G37*
G36*
X7200900Y5488940D02*
G01*
X7173468Y5460390D01*
X7183323Y5441086D01*
X7184999Y5436768D01*
X7186371Y5432044D01*
X7187387Y5426659D01*
X7187996Y5420309D01*
X7188200Y5412740D01*
X7213600Y5412740D01*
X7213803Y5420309D01*
X7214412Y5426659D01*
X7215428Y5432044D01*
X7216800Y5436768D01*
X7218476Y5441086D01*
X7228331Y5460390D01*
G37*
G36*
X7086600Y7546340D02*
G01*
X7059168Y7517790D01*
X7069023Y7498486D01*
X7070699Y7494168D01*
X7072071Y7489444D01*
X7073087Y7484059D01*
X7073696Y7477709D01*
X7073900Y7470140D01*
X7099300Y7470140D01*
X7099503Y7477709D01*
X7100112Y7484059D01*
X7101128Y7489444D01*
X7102500Y7494168D01*
X7104176Y7498486D01*
X7114031Y7517790D01*
G37*
G36*
X5563209Y6618731D02*
G01*
X5534660Y6591300D01*
X5563209Y6563868D01*
X5582513Y6573723D01*
X5586831Y6575399D01*
X5591556Y6576771D01*
X5596940Y6577787D01*
X5603240Y6578396D01*
X5610860Y6578600D01*
X5610860Y6604000D01*
X5603240Y6604203D01*
X5596940Y6604812D01*
X5591556Y6605828D01*
X5586831Y6607200D01*
X5582513Y6608876D01*
G37*
G36*
X2459837Y5132070D02*
G01*
X2454300Y5126837D01*
X2449372Y5122824D01*
X2444902Y5119725D01*
X2440584Y5117338D01*
X2436317Y5115509D01*
X2415692Y5108803D01*
X2414930Y5069230D01*
X2454503Y5069992D01*
X2461209Y5090617D01*
X2463038Y5094884D01*
X2465425Y5099202D01*
X2468524Y5103672D01*
X2472588Y5108600D01*
X2477770Y5114137D01*
G37*
G36*
X6171590Y4408932D02*
G01*
X6152286Y4399076D01*
X6147968Y4397400D01*
X6143244Y4396028D01*
X6137859Y4395012D01*
X6131560Y4394403D01*
X6123940Y4394200D01*
X6123940Y4368800D01*
X6131560Y4368596D01*
X6137859Y4367987D01*
X6143244Y4366971D01*
X6147968Y4365599D01*
X6152286Y4363923D01*
X6171590Y4354068D01*
X6200140Y4381500D01*
G37*
G36*
X4801209Y4320032D02*
G01*
X4772660Y4292600D01*
X4801209Y4265168D01*
X4820513Y4275023D01*
X4824831Y4276699D01*
X4829556Y4278071D01*
X4834940Y4279087D01*
X4841240Y4279696D01*
X4848860Y4279900D01*
X4848860Y4305300D01*
X4841240Y4305503D01*
X4834940Y4306112D01*
X4829556Y4307128D01*
X4824831Y4308500D01*
X4820513Y4310176D01*
G37*
G36*
X5626100Y4036060D02*
G01*
X5625896Y4028490D01*
X5625287Y4022140D01*
X5624271Y4016756D01*
X5622899Y4012031D01*
X5621223Y4007713D01*
X5611368Y3988409D01*
X5638800Y3959860D01*
X5666232Y3988409D01*
X5656376Y4007713D01*
X5654700Y4012031D01*
X5653328Y4016756D01*
X5652312Y4022140D01*
X5651703Y4028490D01*
X5651500Y4036060D01*
G37*
G36*
X2955137Y5767070D02*
G01*
X2949600Y5761837D01*
X2944672Y5757824D01*
X2940202Y5754725D01*
X2935884Y5752338D01*
X2931617Y5750509D01*
X2910992Y5743803D01*
X2910230Y5704230D01*
X2949803Y5704992D01*
X2956509Y5725617D01*
X2958338Y5729884D01*
X2960725Y5734202D01*
X2963824Y5738672D01*
X2967888Y5743600D01*
X2973070Y5749137D01*
G37*
G36*
X3056737Y6490970D02*
G01*
X3051200Y6485737D01*
X3046272Y6481724D01*
X3041802Y6478625D01*
X3037484Y6476238D01*
X3033217Y6474409D01*
X3012592Y6467703D01*
X3011830Y6428130D01*
X3051403Y6428892D01*
X3058109Y6449517D01*
X3059938Y6453784D01*
X3062325Y6458102D01*
X3065424Y6462572D01*
X3069488Y6467500D01*
X3074670Y6473037D01*
G37*
G36*
X3022600Y6454140D02*
G01*
X2995168Y6425590D01*
X3005023Y6406286D01*
X3006699Y6401968D01*
X3008071Y6397244D01*
X3009087Y6391859D01*
X3009696Y6385509D01*
X3009900Y6377940D01*
X3035300Y6377940D01*
X3035503Y6385509D01*
X3036112Y6391859D01*
X3037128Y6397244D01*
X3038500Y6401968D01*
X3040176Y6406286D01*
X3050032Y6425590D01*
G37*
G36*
X4279900Y6296660D02*
G01*
X4279696Y6289090D01*
X4279087Y6282740D01*
X4278071Y6277356D01*
X4276699Y6272631D01*
X4275023Y6268313D01*
X4265168Y6249009D01*
X4292600Y6220460D01*
X4320032Y6249009D01*
X4310176Y6268313D01*
X4308500Y6272631D01*
X4307128Y6277356D01*
X4306112Y6282740D01*
X4305503Y6289090D01*
X4305300Y6296660D01*
G37*
G36*
X6603390Y2821432D02*
G01*
X6593078Y2816402D01*
X6584340Y2812694D01*
X6579920Y2811322D01*
X6575094Y2810306D01*
X6569659Y2809595D01*
X6563258Y2809138D01*
X6555740Y2808986D01*
X6555740Y2779014D01*
X6563258Y2778861D01*
X6569659Y2778404D01*
X6575094Y2777693D01*
X6579920Y2776677D01*
X6584340Y2775305D01*
X6593078Y2771597D01*
X6603390Y2766568D01*
X6631940Y2794000D01*
G37*
G36*
X5814314Y2054860D02*
G01*
X5814161Y2047341D01*
X5813704Y2040940D01*
X5812993Y2035505D01*
X5811977Y2030730D01*
X5810605Y2026310D01*
X5808929Y2021992D01*
X5801868Y2007209D01*
X5829300Y1978660D01*
X5856732Y2007209D01*
X5849670Y2021992D01*
X5847994Y2026310D01*
X5846622Y2030730D01*
X5845606Y2035505D01*
X5844895Y2040940D01*
X5844438Y2047341D01*
X5844286Y2054860D01*
G37*
G36*
X6666890Y3748532D02*
G01*
X6647586Y3738676D01*
X6643268Y3737000D01*
X6638544Y3735628D01*
X6633159Y3734612D01*
X6626859Y3734003D01*
X6619240Y3733800D01*
X6619240Y3708400D01*
X6626859Y3708196D01*
X6633159Y3707587D01*
X6638544Y3706571D01*
X6643268Y3705199D01*
X6647586Y3703523D01*
X6666890Y3693668D01*
X6695440Y3721100D01*
G37*
G36*
X5888837Y3074670D02*
G01*
X5883300Y3069437D01*
X5878372Y3065424D01*
X5873902Y3062325D01*
X5869584Y3059938D01*
X5865317Y3058109D01*
X5844692Y3051403D01*
X5843930Y3011830D01*
X5883503Y3012592D01*
X5890209Y3033217D01*
X5892038Y3037484D01*
X5894425Y3041802D01*
X5897524Y3046272D01*
X5901588Y3051200D01*
X5906770Y3056737D01*
G37*
G36*
X5712714Y2054860D02*
G01*
X5712561Y2047341D01*
X5712104Y2040940D01*
X5711393Y2035505D01*
X5710377Y2030730D01*
X5709005Y2026310D01*
X5707329Y2021992D01*
X5700268Y2007209D01*
X5727700Y1978660D01*
X5755132Y2007209D01*
X5748070Y2021992D01*
X5746394Y2026310D01*
X5745022Y2030730D01*
X5744006Y2035505D01*
X5743295Y2040940D01*
X5742838Y2047341D01*
X5742686Y2054860D01*
G37*
G36*
X6527190Y2884932D02*
G01*
X6516878Y2879902D01*
X6508140Y2876194D01*
X6503720Y2874822D01*
X6498894Y2873806D01*
X6493459Y2873095D01*
X6487058Y2872638D01*
X6479540Y2872486D01*
X6479540Y2842514D01*
X6487058Y2842361D01*
X6493459Y2841904D01*
X6498894Y2841193D01*
X6503720Y2840177D01*
X6508140Y2838805D01*
X6516878Y2835097D01*
X6527190Y2830068D01*
X6555740Y2857500D01*
G37*
G36*
X5954014Y2156460D02*
G01*
X5953861Y2148941D01*
X5953404Y2142540D01*
X5952693Y2137105D01*
X5951677Y2132330D01*
X5950305Y2127910D01*
X5948629Y2123592D01*
X5941568Y2108809D01*
X5969000Y2080260D01*
X5996432Y2108809D01*
X5989370Y2123592D01*
X5987694Y2127910D01*
X5986322Y2132330D01*
X5985306Y2137105D01*
X5984595Y2142540D01*
X5984138Y2148941D01*
X5983986Y2156460D01*
G37*
G36*
X6565290Y2542032D02*
G01*
X6554978Y2537002D01*
X6546240Y2533294D01*
X6541820Y2531922D01*
X6536994Y2530906D01*
X6531559Y2530195D01*
X6525158Y2529738D01*
X6517640Y2529586D01*
X6517640Y2499614D01*
X6525158Y2499461D01*
X6531559Y2499004D01*
X6536994Y2498293D01*
X6541820Y2497277D01*
X6546240Y2495905D01*
X6554978Y2492197D01*
X6565290Y2487168D01*
X6593840Y2514600D01*
G37*
G36*
X8578088Y5819800D02*
G01*
X8572906Y5814263D01*
X8568232Y5809945D01*
X8563914Y5806592D01*
X8559749Y5803950D01*
X8555634Y5801868D01*
X8535416Y5793943D01*
X8536990Y5754420D01*
X8576411Y5757519D01*
X8581898Y5778500D01*
X8583523Y5782868D01*
X8585606Y5787288D01*
X8588451Y5791962D01*
X8592210Y5797092D01*
X8597087Y5802934D01*
G37*
G36*
X9338462Y5843270D02*
G01*
X9320530Y5825337D01*
X9325711Y5819800D01*
X9329775Y5814872D01*
X9332874Y5810402D01*
X9335262Y5806084D01*
X9337090Y5801817D01*
X9343796Y5781192D01*
X9383369Y5780430D01*
X9382607Y5820003D01*
X9361982Y5826709D01*
X9357715Y5828538D01*
X9353397Y5830925D01*
X9348927Y5834024D01*
X9343999Y5838037D01*
G37*
G36*
X5751169Y2525369D02*
G01*
X5711596Y2524607D01*
X5707837Y2513685D01*
X5704281Y2504948D01*
X5702096Y2500833D01*
X5699455Y2496718D01*
X5696102Y2492349D01*
X5691936Y2487523D01*
X5686704Y2482088D01*
X5707888Y2460904D01*
X5713323Y2466136D01*
X5718149Y2470302D01*
X5722518Y2473655D01*
X5726633Y2476296D01*
X5730697Y2478481D01*
X5739485Y2482037D01*
X5750407Y2485796D01*
G37*
G36*
X5649214Y2156460D02*
G01*
X5649061Y2148941D01*
X5648604Y2142540D01*
X5647893Y2137105D01*
X5646877Y2132330D01*
X5645505Y2127910D01*
X5643829Y2123592D01*
X5636768Y2108809D01*
X5664200Y2080260D01*
X5691632Y2108809D01*
X5684570Y2123592D01*
X5682894Y2127910D01*
X5681522Y2132330D01*
X5680506Y2137105D01*
X5679795Y2142540D01*
X5679338Y2148941D01*
X5679186Y2156460D01*
G37*
G36*
X2124862Y5411470D02*
G01*
X2106930Y5393537D01*
X2112111Y5388000D01*
X2116175Y5383072D01*
X2119274Y5378602D01*
X2121662Y5374284D01*
X2123490Y5370017D01*
X2130196Y5349392D01*
X2169769Y5348630D01*
X2169007Y5388203D01*
X2148382Y5394909D01*
X2144115Y5396738D01*
X2139797Y5399125D01*
X2135327Y5402224D01*
X2130399Y5406237D01*
G37*
G36*
X1372209Y5437632D02*
G01*
X1343660Y5410200D01*
X1372209Y5382768D01*
X1391513Y5392623D01*
X1395831Y5394299D01*
X1400556Y5395671D01*
X1405940Y5396687D01*
X1412290Y5397296D01*
X1419860Y5397500D01*
X1419860Y5422900D01*
X1412290Y5423103D01*
X1405940Y5423712D01*
X1400556Y5424728D01*
X1395831Y5426100D01*
X1391513Y5427776D01*
G37*
G36*
X3082137Y5767070D02*
G01*
X3076600Y5761837D01*
X3071672Y5757824D01*
X3067202Y5754725D01*
X3062884Y5752338D01*
X3058617Y5750509D01*
X3037992Y5743803D01*
X3037230Y5704230D01*
X3076803Y5704992D01*
X3083509Y5725617D01*
X3085338Y5729884D01*
X3087725Y5734202D01*
X3090824Y5738672D01*
X3094888Y5743600D01*
X3100070Y5749137D01*
G37*
G36*
X3225800Y6454140D02*
G01*
X3198368Y6425590D01*
X3208223Y6406286D01*
X3209899Y6401968D01*
X3211271Y6397244D01*
X3212287Y6391859D01*
X3212896Y6385509D01*
X3213100Y6377940D01*
X3238500Y6377940D01*
X3238703Y6385509D01*
X3239312Y6391859D01*
X3240328Y6397244D01*
X3241700Y6401968D01*
X3243376Y6406286D01*
X3253232Y6425590D01*
G37*
G36*
X2713837Y5728970D02*
G01*
X2708300Y5723737D01*
X2703372Y5719724D01*
X2698902Y5716625D01*
X2694584Y5714238D01*
X2690317Y5712409D01*
X2669692Y5705703D01*
X2668930Y5666130D01*
X2708503Y5666892D01*
X2715209Y5687517D01*
X2717038Y5691784D01*
X2719425Y5696102D01*
X2722524Y5700572D01*
X2726588Y5705500D01*
X2731770Y5711037D01*
G37*
G36*
X2794000Y6250940D02*
G01*
X2766568Y6222390D01*
X2776423Y6203086D01*
X2778099Y6198768D01*
X2779471Y6194044D01*
X2780487Y6188659D01*
X2781096Y6182309D01*
X2781300Y6174740D01*
X2806700Y6174740D01*
X2806903Y6182309D01*
X2807512Y6188659D01*
X2808528Y6194044D01*
X2809900Y6198768D01*
X2811576Y6203086D01*
X2821432Y6222390D01*
G37*
G36*
X2374900Y4315460D02*
G01*
X2374696Y4307890D01*
X2374087Y4301540D01*
X2373071Y4296156D01*
X2371699Y4291431D01*
X2370023Y4287113D01*
X2360168Y4267809D01*
X2387600Y4239260D01*
X2415032Y4267809D01*
X2405176Y4287113D01*
X2403500Y4291431D01*
X2402128Y4296156D01*
X2401112Y4301540D01*
X2400503Y4307890D01*
X2400300Y4315460D01*
G37*
G36*
X2614269Y4912969D02*
G01*
X2574696Y4912207D01*
X2567990Y4891582D01*
X2566162Y4887315D01*
X2563774Y4882997D01*
X2560675Y4878527D01*
X2556611Y4873599D01*
X2551430Y4868062D01*
X2569362Y4850130D01*
X2574899Y4855362D01*
X2579827Y4859375D01*
X2584297Y4862474D01*
X2588615Y4864862D01*
X2592882Y4866690D01*
X2613507Y4873396D01*
G37*
G36*
X2603500Y4315460D02*
G01*
X2603296Y4307890D01*
X2602687Y4301540D01*
X2601671Y4296156D01*
X2600299Y4291431D01*
X2598623Y4287113D01*
X2588768Y4267809D01*
X2616200Y4239260D01*
X2643632Y4267809D01*
X2633776Y4287113D01*
X2632100Y4291431D01*
X2630728Y4296156D01*
X2629712Y4301540D01*
X2629103Y4307890D01*
X2628900Y4315460D01*
G37*
G36*
X2690469Y4836769D02*
G01*
X2650896Y4836007D01*
X2644190Y4815382D01*
X2642362Y4811115D01*
X2639974Y4806797D01*
X2636875Y4802327D01*
X2632811Y4797399D01*
X2627630Y4791862D01*
X2645562Y4773930D01*
X2651099Y4779162D01*
X2656027Y4783175D01*
X2660497Y4786274D01*
X2664815Y4788662D01*
X2669082Y4790490D01*
X2689707Y4797196D01*
G37*
G36*
X2844800Y4315460D02*
G01*
X2844596Y4307890D01*
X2843987Y4301540D01*
X2842971Y4296156D01*
X2841599Y4291431D01*
X2839923Y4287113D01*
X2830068Y4267809D01*
X2857500Y4239260D01*
X2884932Y4267809D01*
X2875076Y4287113D01*
X2873400Y4291431D01*
X2872028Y4296156D01*
X2871012Y4301540D01*
X2870403Y4307890D01*
X2870200Y4315460D01*
G37*
G36*
X2783230Y4836769D02*
G01*
X2783992Y4797196D01*
X2804617Y4790490D01*
X2808884Y4788662D01*
X2813202Y4786274D01*
X2817672Y4783175D01*
X2822600Y4779162D01*
X2828137Y4773930D01*
X2846070Y4791862D01*
X2840888Y4797399D01*
X2836824Y4802327D01*
X2833725Y4806797D01*
X2831338Y4811115D01*
X2829509Y4815382D01*
X2822803Y4836007D01*
G37*
G36*
X2564892Y3338677D02*
G01*
X2563723Y3317951D01*
X2560472Y3301288D01*
X2555443Y3287674D01*
X2548940Y3276092D01*
X2541270Y3265525D01*
X2523794Y3243529D01*
X2514650Y3230016D01*
X2505608Y3213557D01*
X2577592Y3138678D01*
X2649575Y3213557D01*
X2640533Y3230016D01*
X2631389Y3243529D01*
X2613914Y3265525D01*
X2606243Y3276092D01*
X2599740Y3287674D01*
X2594711Y3301288D01*
X2591460Y3317951D01*
X2590292Y3338677D01*
G37*
G36*
X3086100Y4315460D02*
G01*
X3085896Y4307890D01*
X3085287Y4301540D01*
X3084271Y4296156D01*
X3082899Y4291431D01*
X3081223Y4287113D01*
X3071368Y4267809D01*
X3098800Y4239260D01*
X3126232Y4267809D01*
X3116376Y4287113D01*
X3114700Y4291431D01*
X3113328Y4296156D01*
X3112312Y4301540D01*
X3111703Y4307890D01*
X3111500Y4315460D01*
G37*
G36*
X3098800Y4269740D02*
G01*
X3071368Y4241190D01*
X3081223Y4221886D01*
X3082899Y4217568D01*
X3084271Y4212844D01*
X3085287Y4207459D01*
X3085896Y4201109D01*
X3086100Y4193540D01*
X3111500Y4193540D01*
X3111703Y4201109D01*
X3112312Y4207459D01*
X3113328Y4212844D01*
X3114700Y4217568D01*
X3116376Y4221886D01*
X3126232Y4241190D01*
G37*
G36*
X2846730Y4912969D02*
G01*
X2847492Y4873396D01*
X2868117Y4866690D01*
X2872384Y4864862D01*
X2876702Y4862474D01*
X2881172Y4859375D01*
X2886100Y4855362D01*
X2891637Y4850130D01*
X2909570Y4868062D01*
X2904388Y4873599D01*
X2900324Y4878527D01*
X2897225Y4882997D01*
X2894838Y4887315D01*
X2893009Y4891582D01*
X2886303Y4912207D01*
G37*
G36*
X7710830Y5497169D02*
G01*
X7711592Y5457596D01*
X7732217Y5450890D01*
X7736484Y5449062D01*
X7740802Y5446674D01*
X7745272Y5443575D01*
X7750200Y5439562D01*
X7755737Y5434330D01*
X7773670Y5452262D01*
X7768488Y5457799D01*
X7764424Y5462727D01*
X7761325Y5467197D01*
X7758938Y5471515D01*
X7757109Y5475782D01*
X7750403Y5496407D01*
G37*
G36*
X8660790Y5374132D02*
G01*
X8641486Y5364276D01*
X8637168Y5362600D01*
X8632444Y5361228D01*
X8627059Y5360212D01*
X8620760Y5359603D01*
X8613140Y5359400D01*
X8613140Y5334000D01*
X8620760Y5333796D01*
X8627059Y5333187D01*
X8632444Y5332171D01*
X8637168Y5330799D01*
X8641486Y5329123D01*
X8660790Y5319268D01*
X8689340Y5346700D01*
G37*
G36*
X7710830Y5649569D02*
G01*
X7711592Y5609996D01*
X7732217Y5603290D01*
X7736484Y5601462D01*
X7740802Y5599074D01*
X7745272Y5595975D01*
X7750200Y5591962D01*
X7755737Y5586730D01*
X7773670Y5604662D01*
X7768488Y5610199D01*
X7764424Y5615127D01*
X7761325Y5619597D01*
X7758938Y5623915D01*
X7757109Y5628182D01*
X7750403Y5648807D01*
G37*
G36*
X8801100Y5781040D02*
G01*
X8773668Y5752490D01*
X8783523Y5733186D01*
X8785199Y5728868D01*
X8786571Y5724144D01*
X8787587Y5718759D01*
X8788196Y5712409D01*
X8788400Y5704840D01*
X8813800Y5704840D01*
X8814003Y5712409D01*
X8814612Y5718759D01*
X8815628Y5724144D01*
X8817000Y5728868D01*
X8818676Y5733186D01*
X8828532Y5752490D01*
G37*
G36*
X7710830Y5649569D02*
G01*
X7711592Y5609996D01*
X7732217Y5603290D01*
X7736484Y5601462D01*
X7740802Y5599074D01*
X7745272Y5595975D01*
X7750200Y5591962D01*
X7755737Y5586730D01*
X7773670Y5604662D01*
X7768488Y5610199D01*
X7764424Y5615127D01*
X7761325Y5619597D01*
X7758938Y5623915D01*
X7757109Y5628182D01*
X7750403Y5648807D01*
G37*
G36*
X8995054Y1839061D02*
G01*
X8980373Y1825904D01*
X8966962Y1816811D01*
X8954465Y1810969D01*
X8942324Y1807514D01*
X8930081Y1805432D01*
X8903614Y1802231D01*
X8888374Y1799285D01*
X8871254Y1794256D01*
X8869375Y1695348D01*
X8968282Y1697329D01*
X8973312Y1714449D01*
X8976207Y1729638D01*
X8979458Y1756105D01*
X8981490Y1768348D01*
X8984945Y1780489D01*
X8990787Y1792986D01*
X8999880Y1806397D01*
X9013037Y1821078D01*
G37*
G36*
X7327900Y5641340D02*
G01*
X7300468Y5612790D01*
X7310323Y5593486D01*
X7311999Y5589168D01*
X7313371Y5584444D01*
X7314387Y5579059D01*
X7314996Y5572709D01*
X7315200Y5565140D01*
X7340600Y5565140D01*
X7340803Y5572709D01*
X7341412Y5579059D01*
X7342428Y5584444D01*
X7343800Y5589168D01*
X7345476Y5593486D01*
X7355331Y5612790D01*
G37*
G36*
X2563876Y5024932D02*
G01*
X2560980Y5022392D01*
X2558034Y5020411D01*
X2555138Y5018989D01*
X2552242Y5017973D01*
X2549499Y5017414D01*
X2546858Y5017262D01*
X2544470Y5017414D01*
X2542387Y5017871D01*
X2540609Y5018532D01*
X2512060Y4991100D01*
X2540609Y4963668D01*
X2545232Y4965446D01*
X2562860Y4969560D01*
X2569667Y4971491D01*
X2576779Y4974183D01*
X2584145Y4977892D01*
X2591663Y4982921D01*
X2599232Y4989576D01*
G37*
G36*
X3047949Y5001107D02*
G01*
X3012592Y4965750D01*
X3035401Y4943652D01*
X3038500Y4940198D01*
X3041091Y4936845D01*
X3043174Y4933594D01*
X3044596Y4930292D01*
X3084169Y4929530D01*
X3083407Y4969103D01*
X3080105Y4970526D01*
X3076854Y4972608D01*
X3073501Y4975199D01*
X3070047Y4978298D01*
G37*
D10*
X3060700Y5080000D02*
G01*
X3746500Y4394200D01*
X3746500Y2641600D01*
X3378200Y2273300D01*
X2579624Y2273300D01*
X2360168Y2053589D01*
X2438400Y5334000D02*
G01*
X2413000Y5308600D01*
X2235200Y5308600D01*
X2070100Y5143500D01*
X2070100Y3213100D01*
X2336800Y2946400D01*
X3136900Y2946400D01*
X3568700Y3378200D01*
X3644900Y3378200D01*
X3431031Y2053589D02*
G01*
X3431031Y2224531D01*
X3835400Y2628900D01*
X3835400Y4419600D01*
X3175000Y5080000D01*
X5638800Y3606800D02*
G01*
X5435600Y3403600D01*
X5435600Y3175000D01*
X2578100Y6438900D02*
G01*
X2578100Y5626100D01*
X2260600Y5232400D02*
G01*
X2286000Y5257800D01*
X4102100Y5257800D01*
X4813300Y4546600D01*
X5803900Y4546600D01*
X2286000Y5105400D02*
G01*
X2374900Y5194300D01*
X4064000Y5194300D01*
X4787900Y4470400D01*
X5549900Y4470400D01*
X2438400Y5448300D02*
G01*
X4699000Y5448300D01*
X5168900Y4978400D01*
X5168900Y4914900D01*
X3467100Y5803900D02*
G01*
X3530600Y5740400D01*
X4546600Y5740400D01*
X5295900Y4991100D01*
X5295900Y4914900D01*
X2349500Y6438900D02*
G01*
X2565400Y6654800D01*
X4216400Y6654800D01*
X4432300Y6438900D01*
X4432300Y6007100D01*
X5422900Y5016500D01*
X5422900Y4914900D01*
D11*
X6896100Y3340100D02*
G01*
X6896100Y3162300D01*
X6667500Y2933700D01*
X4622800Y2933700D01*
D10*
X6794500Y3797300D02*
G01*
X6604000Y3797300D01*
X6388100Y3581400D01*
X6083300Y3581400D01*
X5867400Y3365500D01*
X5867400Y3149600D01*
X5740400Y3022600D01*
X6388100Y3683000D02*
G01*
X6070600Y3683000D01*
X5765800Y3378200D01*
X5765800Y3175000D01*
X2794000Y5626100D02*
G01*
X4292600Y5626100D01*
X4673600Y6438900D02*
G01*
X6756400Y6438900D01*
X7200900Y5994400D01*
X7200900Y5473700D01*
X7086600Y7531100D02*
G01*
X7086600Y6946900D01*
X6731000Y6591300D01*
X5549900Y6591300D01*
X6184900Y6286500D02*
G01*
X6184900Y5816600D01*
X6553200Y5448300D01*
X6553200Y4521200D01*
X5638800Y3606800D01*
X2425700Y5080000D02*
G01*
X2489200Y5143500D01*
X4013200Y5143500D01*
X4775200Y4381500D01*
X6184900Y4381500D01*
X4787900Y4292600D02*
G01*
X5499100Y4292600D01*
X5638800Y4152900D01*
X5638800Y3975100D01*
X3022600Y6438900D02*
G01*
X3124200Y6540500D01*
X4178300Y6540500D01*
X4292600Y6426200D01*
X4292600Y6235700D01*
D12*
X5829300Y1993900D02*
G01*
X5829300Y2336800D01*
X6286500Y2794000D01*
X6616700Y2794000D01*
D10*
X6680200Y3721100D02*
G01*
X6591300Y3721100D01*
X6388100Y3517900D01*
X6121400Y3517900D01*
X5943600Y3340100D01*
X5943600Y3111500D01*
X5854700Y3022600D01*
D12*
X5727700Y1993900D02*
G01*
X5727700Y2336800D01*
X6248400Y2857500D01*
X6273800Y2857500D01*
X5969000Y2095500D02*
G01*
X5969000Y2387600D01*
X6096000Y2514600D01*
X6578600Y2514600D01*
D10*
X9372600Y5791200D02*
G01*
X9283700Y5880100D01*
X8648700Y5880100D01*
X8648700Y5880100D01*
X8547100Y5765800D01*
D12*
X6261100Y2857500D02*
G01*
X6286500Y2857500D01*
X6540500Y2857500D01*
X5740400Y2514600D02*
G01*
X5664200Y2438400D01*
X5664200Y2095500D01*
D10*
X4686300Y3378200D02*
G01*
X3949700Y3378200D01*
X3022600Y6438900D02*
G01*
X3022600Y5816600D01*
X2921000Y5715000D01*
X1358900Y5410200D02*
G01*
X2108200Y5410200D01*
X2159000Y5359400D01*
X3048000Y5715000D02*
G01*
X3225800Y5892800D01*
X3225800Y6438900D01*
X2794000Y6235700D02*
G01*
X2794000Y5791200D01*
X2679700Y5676900D01*
X2603500Y4902200D02*
G01*
X2387600Y4686300D01*
X2387600Y4254500D01*
X2679700Y4826000D02*
G01*
X2616200Y4762500D01*
X2616200Y4254500D01*
X2794000Y4826000D02*
G01*
X2857500Y4762500D01*
X2857500Y4254500D01*
X2857500Y4902200D02*
G01*
X3098800Y4660900D01*
X3098800Y4254500D01*
X7721600Y5486400D02*
G01*
X7861300Y5346700D01*
X8674100Y5346700D01*
X7721600Y5638800D02*
G01*
X7899400Y5461000D01*
X8674100Y5461000D01*
X8801100Y5588000D01*
X8801100Y5765800D01*
X2349500Y6438900D02*
G01*
X2349500Y5676900D01*
X2438400Y5588000D01*
X3098800Y4254500D02*
G01*
X3098800Y4191000D01*
X2946400Y4038600D01*
X2755900Y4038600D01*
X2577591Y3860292D01*
X2577591Y3178682D01*
X7200900Y5473700D02*
G01*
X7200900Y4368800D01*
X7696200Y3873500D01*
X8394700Y3873500D01*
X8896350Y3371850D01*
X8896350Y2062226D01*
X7327900Y5626100D02*
G01*
X7327900Y4432300D01*
X7785100Y3975100D01*
X8470900Y3975100D01*
X9042400Y3403600D01*
X9042400Y1868426D01*
X8896350Y1722376D01*
D13*
X3073400Y4940300D02*
G01*
X2971800Y5041900D01*
X2616200Y5041900D01*
X2565400Y4991100D01*
X2527300Y4991100D01*
D11*
X6896100Y3340100D02*
G01*
X6896100Y5842000D01*
X6896100Y5854700D01*
D14*
G01*
X9601200Y7289800D03*
D15*
G01*
X9803688Y7289800D03*
G01*
X9744379Y7146620D03*
G01*
X9601200Y7087311D03*
G01*
X9458020Y7146620D03*
G01*
X9398711Y7289800D03*
G01*
X9458020Y7432979D03*
G01*
X9601200Y7492288D03*
G01*
X9744379Y7432979D03*
D14*
G01*
X9613900Y2247900D03*
D15*
G01*
X9816388Y2247900D03*
G01*
X9757079Y2104720D03*
G01*
X9613900Y2045411D03*
G01*
X9470720Y2104720D03*
G01*
X9411411Y2247900D03*
G01*
X9470720Y2391079D03*
G01*
X9613900Y2450388D03*
G01*
X9757079Y2391079D03*
D14*
G01*
X1612900Y2247900D03*
D15*
G01*
X1815388Y2247900D03*
G01*
X1756079Y2104720D03*
G01*
X1612900Y2045411D03*
G01*
X1469720Y2104720D03*
G01*
X1410411Y2247900D03*
G01*
X1469720Y2391079D03*
G01*
X1612900Y2450388D03*
G01*
X1756079Y2391079D03*
D14*
G01*
X1612900Y7277100D03*
D15*
G01*
X1815388Y7277100D03*
G01*
X1756079Y7133920D03*
G01*
X1612900Y7074611D03*
G01*
X1469720Y7133920D03*
G01*
X1410411Y7277100D03*
G01*
X1469720Y7420279D03*
G01*
X1612900Y7479588D03*
G01*
X1756079Y7420279D03*
D16*
G01*
X8947099Y4229100D03*
G01*
X8747099Y4229100D03*
G01*
X8547100Y4229100D03*
G01*
X8347100Y4229100D03*
D17*
G01*
X8147100Y4229100D03*
D18*
G01*
X6223685Y1721154D03*
D19*
G01*
X6223685Y2139137D03*
G01*
X5358663Y2139137D03*
D18*
G01*
X5358663Y1721154D03*
D20*
G01*
X2323591Y3178682D03*
D21*
G01*
X2450591Y3432682D03*
G01*
X2577591Y3178682D03*
G01*
X2704591Y3432682D03*
G01*
X2831591Y3178682D03*
G01*
X2958591Y3432682D03*
G01*
X3085591Y3178682D03*
G01*
X3212591Y3432682D03*
D22*
G01*
X2106091Y2053691D03*
G01*
X2360091Y2053691D03*
G01*
X3177108Y2053691D03*
G01*
X3431108Y2053691D03*
D23*
G01*
X1994103Y2848686D03*
G01*
X3543096Y2848686D03*
D24*
G01*
X8547125Y7467600D03*
D23*
G01*
X8802115Y7722590D03*
G01*
X8292109Y7722590D03*
G01*
X8292109Y7212584D03*
G01*
X8802115Y7212584D03*
D24*
G01*
X2743225Y7480300D03*
D23*
G01*
X2998215Y7735290D03*
G01*
X2488209Y7735290D03*
G01*
X2488209Y7225284D03*
G01*
X2998215Y7225284D03*
D22*
G01*
X4143781Y1892300D03*
G01*
X4593818Y1892300D03*
D24*
G01*
X4718811Y2146300D03*
G01*
X4018813Y2146300D03*
D25*
G01*
X8096300Y1722297D03*
G01*
X8296300Y1722297D03*
G01*
X8696299Y1722297D03*
G01*
X8896299Y1722297D03*
G01*
X8896299Y2062302D03*
G01*
X8696299Y2062302D03*
G01*
X8296300Y2062302D03*
G01*
X8096300Y2062302D03*
G01*
X6858000Y1917700D03*
G01*
X7366000Y1917700D03*
G01*
X7112000Y1917700D03*
D26*
G01*
X3492500Y4152900D03*
G01*
X2387600Y4254500D03*
G01*
X2616200Y4254500D03*
G01*
X2857500Y4254500D03*
G01*
X3098800Y4254500D03*
G01*
X2603500Y4902200D03*
G01*
X1765300Y5270500D03*
G01*
X1765300Y5054600D03*
G01*
X1765300Y4826000D03*
G01*
X1587500Y5054600D03*
G01*
X2679700Y4826000D03*
G01*
X2794000Y4826000D03*
G01*
X2857500Y4902200D03*
G01*
X3175000Y5080000D03*
G01*
X3060700Y5080000D03*
G01*
X3797300Y2247900D03*
G01*
X4038600Y3200400D03*
G01*
X3568700Y5016500D03*
G01*
X3556000Y5334000D03*
G01*
X3556000Y5511800D03*
G01*
X3721100Y5829300D03*
G01*
X2260600Y6121400D03*
G01*
X2476500Y6121400D03*
G01*
X2692400Y6121400D03*
G01*
X2908300Y6121400D03*
G01*
X3124200Y6121400D03*
G01*
X2806700Y6438900D03*
G01*
X2438400Y5588000D03*
G01*
X2578100Y5626100D03*
G01*
X2679700Y5676900D03*
G01*
X2794000Y5626100D03*
G01*
X2921000Y5715000D03*
G01*
X3048000Y5715000D03*
G01*
X4622800Y3314700D03*
G01*
X4508500Y3822700D03*
G01*
X4470400Y4025900D03*
G01*
X4445000Y4216400D03*
G01*
X2438400Y5334000D03*
G01*
X2159000Y5359400D03*
G01*
X1358900Y5410200D03*
G01*
X3644900Y3378200D03*
G01*
X4686300Y3378200D03*
G01*
X3949700Y3378200D03*
G01*
X2349500Y6438900D03*
G01*
X2578100Y6438900D03*
G01*
X3022600Y6438900D03*
G01*
X3225800Y6438900D03*
G01*
X2794000Y6235700D03*
G01*
X2286000Y5105400D03*
G01*
X2425700Y5080000D03*
G01*
X2260600Y5232400D03*
G01*
X5422900Y4914900D03*
G01*
X5549900Y4470400D03*
G01*
X5803900Y4546600D03*
G01*
X6184900Y4381500D03*
G01*
X5295900Y4914900D03*
G01*
X2527300Y4991100D03*
G01*
X3073400Y4940300D03*
G01*
X4292600Y5626100D03*
G01*
X3467100Y5803900D03*
G01*
X3721100Y6019800D03*
G01*
X4813300Y6159500D03*
G01*
X5880100Y5524500D03*
G01*
X6438900Y6286500D03*
G01*
X5702300Y7200900D03*
G01*
X6794500Y7200900D03*
G01*
X4584700Y7200900D03*
G01*
X2844800Y5334000D03*
G01*
X2743200Y5334000D03*
G01*
X2654300Y5334000D03*
G01*
X5486400Y3962400D03*
G01*
X5486400Y3606800D03*
G01*
X4292600Y6235700D03*
G01*
X7848600Y3390900D03*
G01*
X8153400Y3302000D03*
G01*
X6388100Y3860800D03*
G01*
X6692900Y3517900D03*
G01*
X6592544Y3416300D03*
G01*
X6591300Y3517900D03*
G01*
X7251700Y3314700D03*
G01*
X6692900Y3416300D03*
G01*
X6692900Y3314700D03*
G01*
X4622800Y2933700D03*
G01*
X5473700Y2857500D03*
G01*
X6489700Y3517900D03*
G01*
X6489700Y3416300D03*
G01*
X6489700Y3314700D03*
G01*
X6591300Y3314700D03*
G01*
X6438900Y4889500D03*
G01*
X6896100Y3340100D03*
G01*
X6388100Y3683000D03*
G01*
X5765800Y3175000D03*
G01*
X5435600Y3175000D03*
G01*
X5638800Y3606800D03*
G01*
X6184900Y6286500D03*
G01*
X4673600Y6438900D03*
G01*
X7366000Y2768600D03*
G01*
X8153400Y3149600D03*
G01*
X7086600Y7531100D03*
G01*
X5549900Y6591300D03*
G01*
X6896100Y5854700D03*
G01*
X5461000Y5676900D03*
G01*
X5461000Y5524500D03*
G01*
X5461000Y5956300D03*
G01*
X5461000Y5816600D03*
G01*
X5880100Y5676900D03*
G01*
X5880100Y5956300D03*
G01*
X5880100Y5816600D03*
G01*
X6477000Y3124200D03*
G01*
X5969000Y2095500D03*
G01*
X5740400Y2514600D03*
G01*
X6578600Y2514600D03*
G01*
X5727700Y1993900D03*
G01*
X5664200Y2095500D03*
G01*
X6616700Y2794000D03*
G01*
X6540500Y2857500D03*
G01*
X5829300Y1993900D03*
G01*
X4953000Y2514600D03*
G01*
X4940300Y1905000D03*
G01*
X5676900Y5816600D03*
G01*
X5676900Y5956300D03*
G01*
X5676900Y5676900D03*
G01*
X5676900Y5524500D03*
G01*
X7924800Y3314700D03*
G01*
X4787900Y4292600D03*
G01*
X5638800Y3975100D03*
G01*
X2438400Y5448300D03*
G01*
X5168900Y4914900D03*
G01*
X7721600Y5638800D03*
G01*
X7721600Y5486400D03*
G01*
X8674100Y5346700D03*
G01*
X8801100Y5765800D03*
G01*
X7721600Y5638800D03*
G01*
X7200900Y5473700D03*
G01*
X8991600Y4953000D03*
G01*
X8991600Y5080000D03*
G01*
X9410700Y6146800D03*
G01*
X8166100Y4889500D03*
G01*
X8102600Y5588000D03*
G01*
X8178800Y5778500D03*
G01*
X7327900Y5626100D03*
G01*
X8153400Y6451600D03*
G01*
X8153400Y6540500D03*
G01*
X8153400Y6362700D03*
G01*
X7747000Y6451600D03*
G01*
X7747000Y6540500D03*
G01*
X7747000Y6362700D03*
G01*
X8001000Y4229100D03*
G01*
X9093200Y4229100D03*
G01*
X8077200Y5930900D03*
G01*
X9423400Y4826000D03*
G01*
X9410700Y5994400D03*
G01*
X8547100Y5765800D03*
G01*
X9372600Y5791200D03*
G01*
X6680200Y3721100D03*
G01*
X6794500Y3797300D03*
G01*
X5854700Y3022600D03*
G01*
X5740400Y3022600D03*
G01*
X5981700Y3022600D03*
G01*
X6070600Y3314700D03*
G01*
X6311900Y6286500D03*
G01*
X6311900Y6184900D03*
M02*
