G04 Layer: TopSilkscreenLayer*
G04 EasyEDA v6.5.23, 2023-05-28 22:20:17*
G04 a98212a221284062af17828272900665,7a5a352eff0f4c5696d858f44224924f,10*
G04 Gerber Generator version 0.2*
G04 Scale: 100 percent, Rotated: No, Reflected: No *
G04 Dimensions in millimeters *
G04 leading zeros omitted , absolute positions ,4 integer and 5 decimal *
%FSLAX45Y45*%
%MOMM*%

%ADD10C,0.2500*%
%ADD11C,0.2540*%
%ADD12C,0.2030*%
%ADD13C,0.1524*%
%ADD14C,0.1270*%
%ADD15C,0.1200*%
%ADD16C,0.2000*%
%ADD17C,0.2489*%
%ADD18C,0.1500*%
%ADD19C,0.4000*%
%ADD20C,0.0124*%

%LPD*%
G36*
X5234178Y6842963D02*
G01*
X5234178Y6804964D01*
X5417058Y6804964D01*
X5417058Y6785152D01*
X5346446Y6785152D01*
X5346446Y6754418D01*
X5411724Y6754418D01*
X5411724Y6734606D01*
X5346446Y6734606D01*
X5346446Y6714286D01*
X5432552Y6714286D01*
X5457190Y6718604D01*
X5458764Y6713981D01*
X5460949Y6710121D01*
X5463692Y6706870D01*
X5467096Y6704380D01*
X5471109Y6702501D01*
X5475833Y6701129D01*
X5481269Y6700316D01*
X5487416Y6700062D01*
X5493664Y6700316D01*
X5499049Y6701078D01*
X5503672Y6702348D01*
X5507431Y6704126D01*
X5510326Y6706412D01*
X5512409Y6709206D01*
X5513679Y6712508D01*
X5514086Y6716318D01*
X5513882Y6718757D01*
X5513324Y6721043D01*
X5512358Y6723075D01*
X5511038Y6724954D01*
X5509361Y6726529D01*
X5507329Y6728002D01*
X5502402Y6730542D01*
X5498947Y6731762D01*
X5488127Y6734556D01*
X5474462Y6737603D01*
X5464962Y6740144D01*
X5459120Y6742277D01*
X5454294Y6744563D01*
X5450027Y6747154D01*
X5446318Y6750303D01*
X5443270Y6754114D01*
X5440883Y6758584D01*
X5439918Y6761022D01*
X5438749Y6766306D01*
X5438394Y6772452D01*
X5439156Y6780225D01*
X5441492Y6787083D01*
X5445404Y6792925D01*
X5450840Y6797852D01*
X5454091Y6799935D01*
X5457748Y6801764D01*
X5461711Y6803288D01*
X5466080Y6804507D01*
X5470753Y6805472D01*
X5475782Y6806184D01*
X5481167Y6806590D01*
X5486908Y6806742D01*
X5497626Y6806285D01*
X5506872Y6804964D01*
X5612892Y6804964D01*
X5623204Y6804355D01*
X5632246Y6802424D01*
X5640070Y6799275D01*
X5646674Y6794804D01*
X5651906Y6789216D01*
X5655614Y6782562D01*
X5657850Y6774840D01*
X5658612Y6766102D01*
X5658256Y6760413D01*
X5657240Y6754977D01*
X5655614Y6749846D01*
X5653278Y6745020D01*
X5650179Y6740702D01*
X5646572Y6736892D01*
X5642457Y6733590D01*
X5637784Y6730796D01*
X5632450Y6728561D01*
X5626709Y6726986D01*
X5620512Y6726021D01*
X5613908Y6725716D01*
X5583428Y6725716D01*
X5583428Y6715810D01*
X5668772Y6715810D01*
X5693664Y6717842D01*
X5695746Y6710172D01*
X5699760Y6704685D01*
X5705652Y6701434D01*
X5713476Y6700316D01*
X5717641Y6700570D01*
X5721350Y6701383D01*
X5724499Y6702755D01*
X5727192Y6704634D01*
X5729274Y6707073D01*
X5730798Y6710121D01*
X5731713Y6713677D01*
X5732018Y6717842D01*
X5731662Y6721805D01*
X5730544Y6725208D01*
X5728716Y6728155D01*
X5726176Y6730542D01*
X5722874Y6732422D01*
X5718860Y6733794D01*
X5714136Y6734606D01*
X5708650Y6734860D01*
X5700014Y6734860D01*
X5700014Y6754418D01*
X5708142Y6754418D01*
X5713018Y6754672D01*
X5717286Y6755485D01*
X5720892Y6756857D01*
X5723890Y6758736D01*
X5726226Y6761124D01*
X5727852Y6764020D01*
X5728868Y6767372D01*
X5729224Y6771182D01*
X5728919Y6774688D01*
X5728106Y6777786D01*
X5726785Y6780530D01*
X5724906Y6782866D01*
X5722620Y6784746D01*
X5719826Y6786118D01*
X5716524Y6786930D01*
X5712714Y6787184D01*
X5709056Y6786930D01*
X5705856Y6786168D01*
X5703011Y6784898D01*
X5700522Y6783120D01*
X5698439Y6780733D01*
X5696915Y6777990D01*
X5695797Y6774789D01*
X5695188Y6771182D01*
X5670804Y6772960D01*
X5672277Y6780428D01*
X5674969Y6787083D01*
X5678881Y6792874D01*
X5684012Y6797852D01*
X5690006Y6801764D01*
X5696864Y6804507D01*
X5704636Y6806184D01*
X5713222Y6806742D01*
X5722213Y6806184D01*
X5730240Y6804609D01*
X5737199Y6801866D01*
X5743194Y6798106D01*
X5747867Y6793382D01*
X5751169Y6787845D01*
X5753201Y6781444D01*
X5753862Y6774230D01*
X5753455Y6768642D01*
X5752185Y6763613D01*
X5750153Y6759143D01*
X5747258Y6755180D01*
X5743448Y6751828D01*
X5738977Y6749084D01*
X5733796Y6747002D01*
X5727954Y6745528D01*
X5727954Y6745020D01*
X5734507Y6743903D01*
X5740349Y6741972D01*
X5745327Y6739331D01*
X5749544Y6735876D01*
X5752846Y6731812D01*
X5755233Y6727240D01*
X5756656Y6722160D01*
X5757164Y6716572D01*
X5756452Y6708444D01*
X5754319Y6701281D01*
X5750712Y6695084D01*
X5745734Y6689902D01*
X5739536Y6685788D01*
X5732119Y6682841D01*
X5730604Y6682536D01*
X5769610Y6682536D01*
X5769610Y6699554D01*
X5772251Y6704736D01*
X5775452Y6709867D01*
X5779109Y6714896D01*
X5787948Y6725005D01*
X5793181Y6730187D01*
X5798972Y6735419D01*
X5811418Y6745681D01*
X5816396Y6750253D01*
X5820410Y6754317D01*
X5823458Y6757974D01*
X5825642Y6761378D01*
X5827268Y6764731D01*
X5828182Y6767982D01*
X5828538Y6771182D01*
X5827522Y6778193D01*
X5824524Y6783171D01*
X5819546Y6786168D01*
X5812536Y6787184D01*
X5808827Y6786930D01*
X5805627Y6786168D01*
X5802833Y6784898D01*
X5800598Y6783120D01*
X5798718Y6780733D01*
X5797194Y6777786D01*
X5796076Y6774383D01*
X5795264Y6770420D01*
X5770626Y6771690D01*
X5772251Y6779717D01*
X5774944Y6786727D01*
X5778601Y6792772D01*
X5783326Y6797852D01*
X5789117Y6801764D01*
X5795873Y6804507D01*
X5803595Y6806184D01*
X5812282Y6806742D01*
X5821629Y6806184D01*
X5829808Y6804456D01*
X5836818Y6801612D01*
X5842762Y6797598D01*
X5847435Y6792671D01*
X5850737Y6786829D01*
X5852769Y6779971D01*
X5853430Y6772198D01*
X5853176Y6768084D01*
X5852515Y6764121D01*
X5851398Y6760362D01*
X5849874Y6756704D01*
X5848096Y6753352D01*
X5846064Y6750100D01*
X5843778Y6747002D01*
X5838494Y6741109D01*
X5832652Y6735673D01*
X5808522Y6715709D01*
X5803544Y6710680D01*
X5801563Y6708089D01*
X5799886Y6705346D01*
X5798566Y6702602D01*
X5855208Y6702602D01*
X5855208Y6682536D01*
X5730604Y6682536D01*
X5723534Y6681114D01*
X5713730Y6680504D01*
X5704332Y6681063D01*
X5695950Y6682790D01*
X5688584Y6685635D01*
X5682234Y6689648D01*
X5677103Y6694728D01*
X5673140Y6700774D01*
X5670346Y6707784D01*
X5668772Y6715810D01*
X5583428Y6715810D01*
X5583428Y6682536D01*
X5558028Y6682536D01*
X5558028Y6804964D01*
X5506872Y6804964D01*
X5514746Y6802729D01*
X5521198Y6799630D01*
X5526379Y6795465D01*
X5530596Y6790181D01*
X5533745Y6783679D01*
X5535930Y6776008D01*
X5511038Y6772706D01*
X5509869Y6776415D01*
X5508142Y6779615D01*
X5505907Y6782358D01*
X5503164Y6784644D01*
X5499912Y6786321D01*
X5496052Y6787489D01*
X5491530Y6788200D01*
X5486400Y6788454D01*
X5476290Y6787540D01*
X5469026Y6784848D01*
X5464708Y6780326D01*
X5463286Y6773976D01*
X5463438Y6771690D01*
X5463844Y6769608D01*
X5464556Y6767728D01*
X5465572Y6766102D01*
X5466994Y6764629D01*
X5468670Y6763308D01*
X5470652Y6762089D01*
X5475986Y6759854D01*
X5480304Y6758533D01*
X5507786Y6752081D01*
X5513476Y6750405D01*
X5517896Y6748830D01*
X5521502Y6747154D01*
X5524754Y6745325D01*
X5527598Y6743446D01*
X5530088Y6741464D01*
X5532120Y6739229D01*
X5533898Y6736791D01*
X5535422Y6734149D01*
X5536692Y6731304D01*
X5537657Y6728256D01*
X5538368Y6725005D01*
X5538825Y6721551D01*
X5538978Y6717842D01*
X5538165Y6709359D01*
X5535676Y6701993D01*
X5531561Y6695643D01*
X5525770Y6690410D01*
X5522264Y6688175D01*
X5518353Y6686194D01*
X5514086Y6684518D01*
X5509361Y6683197D01*
X5504281Y6682130D01*
X5498795Y6681368D01*
X5492902Y6680911D01*
X5486654Y6680758D01*
X5475478Y6681266D01*
X5470398Y6681927D01*
X5465622Y6682841D01*
X5461203Y6684060D01*
X5457088Y6685483D01*
X5453278Y6687159D01*
X5449824Y6689140D01*
X5443677Y6693865D01*
X5438749Y6699605D01*
X5435041Y6706412D01*
X5432552Y6714286D01*
X5346446Y6714286D01*
X5346446Y6702348D01*
X5420614Y6702348D01*
X5420614Y6682536D01*
X5320792Y6682536D01*
X5320792Y6804964D01*
X5234178Y6804964D01*
X5234178Y6644436D01*
X5941822Y6644436D01*
X5941822Y6842963D01*
G37*
G36*
X5583428Y6784898D02*
G01*
X5583428Y6745274D01*
X5610606Y6745274D01*
X5615635Y6745630D01*
X5620054Y6746595D01*
X5623864Y6748272D01*
X5627116Y6750608D01*
X5629554Y6753453D01*
X5631281Y6756908D01*
X5632348Y6760921D01*
X5632704Y6765594D01*
X5631281Y6774027D01*
X5627014Y6780072D01*
X5619953Y6783679D01*
X5610098Y6784898D01*
G37*
G36*
X8173669Y6283756D02*
G01*
X8173669Y6245555D01*
X8267242Y6245555D01*
X8267242Y6198057D01*
X8328964Y6198057D01*
X8329168Y6203696D01*
X8329777Y6208979D01*
X8330742Y6213957D01*
X8332165Y6218631D01*
X8333943Y6223000D01*
X8336127Y6227013D01*
X8338718Y6230721D01*
X8341664Y6234125D01*
X8345017Y6237173D01*
X8348675Y6239814D01*
X8352637Y6241999D01*
X8356904Y6243828D01*
X8361527Y6245250D01*
X8366455Y6246266D01*
X8371687Y6246876D01*
X8377224Y6247079D01*
X8382812Y6246876D01*
X8388045Y6246266D01*
X8391330Y6245555D01*
X8489238Y6245555D01*
X8497265Y6245098D01*
X8504377Y6243726D01*
X8510473Y6241389D01*
X8515654Y6238189D01*
X8519769Y6234125D01*
X8522716Y6229248D01*
X8524494Y6223558D01*
X8525052Y6217107D01*
X8524697Y6212179D01*
X8523579Y6207658D01*
X8521801Y6203442D01*
X8519210Y6199581D01*
X8516162Y6196228D01*
X8512556Y6193485D01*
X8508390Y6191402D01*
X8503716Y6189929D01*
X8529878Y6149543D01*
X8536228Y6149543D01*
X8571280Y6245555D01*
X8765082Y6245555D01*
X8765082Y6230061D01*
X8709456Y6230061D01*
X8709456Y6205931D01*
X8760764Y6205931D01*
X8760764Y6190437D01*
X8709456Y6190437D01*
X8709456Y6173673D01*
X8777528Y6173673D01*
X8796832Y6175197D01*
X8797645Y6172352D01*
X8798763Y6169914D01*
X8800185Y6167932D01*
X8801912Y6166307D01*
X8804046Y6165088D01*
X8806383Y6164224D01*
X8808872Y6163665D01*
X8811564Y6163513D01*
X8815070Y6163818D01*
X8818118Y6164681D01*
X8820759Y6166104D01*
X8822994Y6168085D01*
X8824874Y6170625D01*
X8826246Y6173622D01*
X8827058Y6177076D01*
X8827312Y6181039D01*
X8827058Y6184646D01*
X8826296Y6187897D01*
X8825026Y6190742D01*
X8823248Y6193231D01*
X8821013Y6195212D01*
X8818422Y6196685D01*
X8815425Y6197498D01*
X8812072Y6197803D01*
X8808313Y6197396D01*
X8804910Y6196228D01*
X8801862Y6194247D01*
X8799118Y6191453D01*
X8780322Y6191453D01*
X8783624Y6245555D01*
X8841536Y6245555D01*
X8841536Y6231331D01*
X8801150Y6231331D01*
X8799626Y6207201D01*
X8803284Y6209893D01*
X8807399Y6211773D01*
X8811920Y6212941D01*
X8816898Y6213297D01*
X8823401Y6212738D01*
X8829243Y6211163D01*
X8834323Y6208420D01*
X8838742Y6204661D01*
X8842400Y6200089D01*
X8845042Y6194704D01*
X8846616Y6188506D01*
X8847124Y6181547D01*
X8846515Y6174333D01*
X8844737Y6167831D01*
X8841689Y6162141D01*
X8837472Y6157163D01*
X8832342Y6153251D01*
X8826296Y6150508D01*
X8819388Y6148832D01*
X8811564Y6148273D01*
X8804706Y6148679D01*
X8798509Y6149848D01*
X8793022Y6151829D01*
X8788196Y6154623D01*
X8784285Y6158280D01*
X8781237Y6162700D01*
X8778951Y6167831D01*
X8777528Y6173673D01*
X8709456Y6173673D01*
X8709456Y6165037D01*
X8767876Y6165037D01*
X8767876Y6149543D01*
X8689390Y6149543D01*
X8689390Y6245555D01*
X8594902Y6245555D01*
X8613727Y6193993D01*
X8674404Y6193993D01*
X8674404Y6177483D01*
X8639098Y6177483D01*
X8639098Y6193993D01*
X8613727Y6193993D01*
X8629954Y6149543D01*
X8609888Y6149543D01*
X8601506Y6174181D01*
X8564676Y6174181D01*
X8556294Y6149543D01*
X8507272Y6149543D01*
X8484920Y6186119D01*
X8461298Y6186119D01*
X8461298Y6149543D01*
X8441232Y6149543D01*
X8441232Y6245555D01*
X8391330Y6245555D01*
X8397595Y6243777D01*
X8401964Y6241897D01*
X8405977Y6239662D01*
X8409635Y6236970D01*
X8413038Y6233871D01*
X8416086Y6230467D01*
X8418728Y6226759D01*
X8420963Y6222746D01*
X8422741Y6218428D01*
X8424164Y6213805D01*
X8425180Y6208877D01*
X8425789Y6203645D01*
X8425992Y6198057D01*
X8425637Y6190792D01*
X8424468Y6183985D01*
X8422589Y6177584D01*
X8419896Y6171641D01*
X8416645Y6166256D01*
X8412734Y6161532D01*
X8408162Y6157518D01*
X8402878Y6154115D01*
X8397189Y6151575D01*
X8390991Y6149746D01*
X8384387Y6148628D01*
X8377224Y6148273D01*
X8371738Y6148476D01*
X8366556Y6149086D01*
X8361629Y6150152D01*
X8357057Y6151575D01*
X8352739Y6153454D01*
X8348776Y6155690D01*
X8345068Y6158382D01*
X8341664Y6161481D01*
X8338718Y6164986D01*
X8336127Y6168796D01*
X8333943Y6172962D01*
X8332165Y6177381D01*
X8330742Y6182106D01*
X8329777Y6187084D01*
X8329168Y6192418D01*
X8328964Y6198057D01*
X8267242Y6198057D01*
X8267242Y6165037D01*
X8318804Y6165037D01*
X8318804Y6149543D01*
X8247176Y6149543D01*
X8247176Y6245555D01*
X8173669Y6245555D01*
X8173669Y6111443D01*
X8920530Y6111443D01*
X8920530Y6283756D01*
G37*
G36*
X8377224Y6231331D02*
G01*
X8370874Y6230772D01*
X8365286Y6229096D01*
X8360460Y6226352D01*
X8356396Y6222441D01*
X8353196Y6217666D01*
X8350859Y6212027D01*
X8349488Y6205474D01*
X8349030Y6198057D01*
X8349538Y6190589D01*
X8350961Y6183985D01*
X8353348Y6178143D01*
X8356650Y6173165D01*
X8360816Y6169152D01*
X8365591Y6166307D01*
X8371078Y6164580D01*
X8377224Y6164021D01*
X8383574Y6164580D01*
X8389162Y6166256D01*
X8393988Y6168999D01*
X8398052Y6172911D01*
X8401304Y6177838D01*
X8403590Y6183630D01*
X8404961Y6190386D01*
X8405418Y6198057D01*
X8404961Y6205372D01*
X8403590Y6211925D01*
X8401304Y6217564D01*
X8398052Y6222441D01*
X8393988Y6226352D01*
X8389162Y6229096D01*
X8383574Y6230772D01*
G37*
G36*
X8582964Y6230823D02*
G01*
X8581440Y6225286D01*
X8569248Y6189167D01*
X8596934Y6189167D01*
G37*
G36*
X8461298Y6230061D02*
G01*
X8461298Y6201613D01*
X8487460Y6201613D01*
X8491524Y6201867D01*
X8495030Y6202578D01*
X8497976Y6203746D01*
X8500414Y6205423D01*
X8502294Y6207506D01*
X8503666Y6209995D01*
X8504478Y6212840D01*
X8504732Y6216091D01*
X8503615Y6222187D01*
X8500313Y6226556D01*
X8494725Y6229197D01*
X8486952Y6230061D01*
G37*
G36*
X1649831Y3759200D02*
G01*
X1649831Y3733698D01*
X1871167Y3733698D01*
X1871167Y3695598D01*
X1913077Y3695598D01*
X1913077Y3733698D01*
X1933143Y3733698D01*
X1933143Y3637686D01*
X1913077Y3637686D01*
X1913077Y3678834D01*
X1871167Y3678834D01*
X1871167Y3637686D01*
X1851101Y3637686D01*
X1851101Y3733698D01*
X1840179Y3733698D01*
X1840179Y3718204D01*
X1808937Y3718204D01*
X1808937Y3637686D01*
X1788871Y3637686D01*
X1788871Y3718204D01*
X1757883Y3718204D01*
X1757883Y3733698D01*
X1747977Y3733698D01*
X1747977Y3718204D01*
X1692605Y3718204D01*
X1692605Y3694074D01*
X1743913Y3694074D01*
X1743913Y3678580D01*
X1692605Y3678580D01*
X1692605Y3653180D01*
X1750771Y3653180D01*
X1750771Y3637686D01*
X1672539Y3637686D01*
X1672539Y3733698D01*
X1649831Y3733698D01*
X1649831Y3612286D01*
X1955800Y3612286D01*
X1955800Y3759200D01*
G37*
G36*
X4135272Y2501900D02*
G01*
X4135272Y2476398D01*
X4334510Y2476398D01*
X4334510Y2460904D01*
X4278884Y2460904D01*
X4278884Y2436774D01*
X4330192Y2436774D01*
X4330192Y2421280D01*
X4278884Y2421280D01*
X4278884Y2405532D01*
X4346702Y2405532D01*
X4366006Y2408580D01*
X4367276Y2405024D01*
X4369003Y2402027D01*
X4371187Y2399588D01*
X4373880Y2397658D01*
X4376978Y2396083D01*
X4380636Y2395016D01*
X4384852Y2394305D01*
X4389628Y2394102D01*
X4398873Y2394915D01*
X4405426Y2397302D01*
X4409389Y2401265D01*
X4410710Y2406802D01*
X4410557Y2408834D01*
X4410151Y2410663D01*
X4409440Y2412288D01*
X4408424Y2413660D01*
X4405426Y2416200D01*
X4401566Y2418232D01*
X4395165Y2420010D01*
X4384548Y2422296D01*
X4375454Y2424582D01*
X4369562Y2426360D01*
X4365650Y2428087D01*
X4361942Y2430170D01*
X4358843Y2432405D01*
X4356100Y2434996D01*
X4354068Y2438298D01*
X4352544Y2442108D01*
X4351578Y2446223D01*
X4351274Y2450998D01*
X4351883Y2457196D01*
X4353712Y2462631D01*
X4356709Y2467254D01*
X4360926Y2471064D01*
X4366412Y2474061D01*
X4373016Y2476195D01*
X4380636Y2477516D01*
X4389374Y2477922D01*
X4397806Y2477566D01*
X4405648Y2476398D01*
X4612894Y2476398D01*
X4612894Y2460904D01*
X4581652Y2460904D01*
X4581652Y2380386D01*
X4561586Y2380386D01*
X4561586Y2460904D01*
X4530598Y2460904D01*
X4530598Y2476398D01*
X4520692Y2476398D01*
X4520692Y2460904D01*
X4465320Y2460904D01*
X4465320Y2436774D01*
X4516628Y2436774D01*
X4516628Y2421280D01*
X4465320Y2421280D01*
X4465320Y2395880D01*
X4523486Y2395880D01*
X4523486Y2380386D01*
X4445254Y2380386D01*
X4445254Y2476398D01*
X4405648Y2476398D01*
X4411268Y2474772D01*
X4416298Y2472334D01*
X4420362Y2469083D01*
X4423613Y2464917D01*
X4426051Y2459786D01*
X4427728Y2453792D01*
X4408424Y2451252D01*
X4407458Y2454148D01*
X4406138Y2456637D01*
X4404410Y2458821D01*
X4402328Y2460650D01*
X4399686Y2461971D01*
X4396638Y2462936D01*
X4393082Y2463495D01*
X4389120Y2463698D01*
X4381144Y2462987D01*
X4375404Y2460853D01*
X4372000Y2457246D01*
X4370832Y2452268D01*
X4370933Y2450439D01*
X4371848Y2447391D01*
X4372610Y2446172D01*
X4373727Y2444953D01*
X4376674Y2442921D01*
X4380839Y2441194D01*
X4388612Y2439009D01*
X4400448Y2436418D01*
X4410354Y2433726D01*
X4416653Y2431135D01*
X4421327Y2428240D01*
X4424832Y2424887D01*
X4426254Y2423007D01*
X4428490Y2418740D01*
X4429810Y2413812D01*
X4430166Y2411018D01*
X4430268Y2408072D01*
X4429607Y2401366D01*
X4427677Y2395575D01*
X4424426Y2390597D01*
X4419854Y2386482D01*
X4414012Y2383282D01*
X4406950Y2380945D01*
X4398670Y2379573D01*
X4389120Y2379116D01*
X4380382Y2379522D01*
X4372610Y2380691D01*
X4365904Y2382672D01*
X4360164Y2385466D01*
X4355439Y2389174D01*
X4351578Y2393797D01*
X4348683Y2399233D01*
X4346702Y2405532D01*
X4278884Y2405532D01*
X4278884Y2395880D01*
X4337304Y2395880D01*
X4337304Y2380386D01*
X4258818Y2380386D01*
X4258818Y2476398D01*
X4205986Y2476398D01*
X4214114Y2475941D01*
X4221226Y2474569D01*
X4227322Y2472232D01*
X4232402Y2469032D01*
X4236516Y2464968D01*
X4239463Y2460091D01*
X4241241Y2454402D01*
X4241800Y2447950D01*
X4241444Y2443022D01*
X4240428Y2438501D01*
X4238650Y2434285D01*
X4236212Y2430424D01*
X4233062Y2427071D01*
X4229404Y2424328D01*
X4225290Y2422245D01*
X4220718Y2420772D01*
X4246626Y2380386D01*
X4224020Y2380386D01*
X4201668Y2416962D01*
X4178046Y2416962D01*
X4178046Y2380386D01*
X4157979Y2380386D01*
X4157979Y2476398D01*
X4135272Y2476398D01*
X4135272Y2354986D01*
X4635500Y2354986D01*
X4635500Y2501900D01*
G37*
G36*
X4178046Y2460904D02*
G01*
X4178046Y2432456D01*
X4204462Y2432456D01*
X4208424Y2432710D01*
X4211828Y2433421D01*
X4214774Y2434590D01*
X4217162Y2436266D01*
X4219041Y2438349D01*
X4220413Y2440838D01*
X4221226Y2443683D01*
X4221480Y2446934D01*
X4220413Y2453030D01*
X4217111Y2457399D01*
X4211624Y2460040D01*
X4203954Y2460904D01*
G37*
G36*
X7786471Y6779056D02*
G01*
X7786471Y6657543D01*
X7809230Y6657543D01*
X7844281Y6753555D01*
X7938770Y6753555D01*
X7981442Y6679133D01*
X7980476Y6688836D01*
X7980172Y6697675D01*
X7980172Y6753555D01*
X8091170Y6753555D01*
X8091170Y6738061D01*
X8060181Y6738061D01*
X8060181Y6657543D01*
X8040116Y6657543D01*
X8040116Y6738061D01*
X8009128Y6738061D01*
X8009128Y6753555D01*
X7997952Y6753555D01*
X7997952Y6657543D01*
X7974330Y6657543D01*
X7932674Y6731457D01*
X7933436Y6721805D01*
X7933690Y6714185D01*
X7933690Y6657543D01*
X7915909Y6657543D01*
X7915909Y6753555D01*
X7867903Y6753555D01*
X7902956Y6657543D01*
X7882890Y6657543D01*
X7874508Y6682181D01*
X7837678Y6682181D01*
X7829296Y6657543D01*
X7786471Y6657543D01*
X7786471Y6632143D01*
X8113928Y6632143D01*
X8113928Y6779056D01*
G37*
G36*
X7855966Y6738823D02*
G01*
X7852918Y6728409D01*
X7842250Y6697167D01*
X7869936Y6697167D01*
G37*
G36*
X9366402Y6781800D02*
G01*
X9366402Y6756298D01*
X9433052Y6756298D01*
X9441281Y6755942D01*
X9448444Y6754774D01*
X9454591Y6752894D01*
X9459722Y6750202D01*
X9463582Y6746798D01*
X9466376Y6742633D01*
X9468053Y6737756D01*
X9468612Y6732168D01*
X9468307Y6728256D01*
X9467494Y6724700D01*
X9466173Y6721398D01*
X9464294Y6718452D01*
X9461703Y6715861D01*
X9458502Y6713778D01*
X9454692Y6712051D01*
X9450324Y6710832D01*
X9455810Y6709918D01*
X9459199Y6708800D01*
X9486392Y6708800D01*
X9486595Y6714439D01*
X9487154Y6719722D01*
X9488170Y6724700D01*
X9489541Y6729374D01*
X9491319Y6733743D01*
X9493504Y6737756D01*
X9496094Y6741464D01*
X9499092Y6744868D01*
X9502444Y6747916D01*
X9506153Y6750558D01*
X9510166Y6752742D01*
X9514484Y6754571D01*
X9519158Y6755993D01*
X9524085Y6757009D01*
X9529318Y6757619D01*
X9534906Y6757822D01*
X9540443Y6757619D01*
X9545675Y6757009D01*
X9550603Y6755942D01*
X9555226Y6754520D01*
X9559493Y6752640D01*
X9563455Y6750405D01*
X9567113Y6747713D01*
X9570466Y6744614D01*
X9573463Y6741210D01*
X9576104Y6737502D01*
X9578340Y6733489D01*
X9580168Y6729171D01*
X9581591Y6724548D01*
X9582607Y6719620D01*
X9583216Y6714388D01*
X9583420Y6708800D01*
X9595104Y6708800D01*
X9595307Y6714439D01*
X9595866Y6719722D01*
X9596882Y6724700D01*
X9598253Y6729374D01*
X9600031Y6733743D01*
X9602216Y6737756D01*
X9604806Y6741464D01*
X9607804Y6744868D01*
X9611156Y6747916D01*
X9614865Y6750558D01*
X9618878Y6752742D01*
X9623196Y6754571D01*
X9627870Y6755993D01*
X9632797Y6757009D01*
X9638030Y6757619D01*
X9643618Y6757822D01*
X9649104Y6757619D01*
X9654286Y6757009D01*
X9657571Y6756298D01*
X9781794Y6756298D01*
X9781794Y6740804D01*
X9750552Y6740804D01*
X9750552Y6660286D01*
X9730486Y6660286D01*
X9730486Y6740804D01*
X9699498Y6740804D01*
X9699498Y6756298D01*
X9657571Y6756298D01*
X9663785Y6754520D01*
X9668103Y6752640D01*
X9672066Y6750405D01*
X9675774Y6747713D01*
X9679178Y6744614D01*
X9682175Y6741210D01*
X9684816Y6737502D01*
X9687052Y6733489D01*
X9688880Y6729171D01*
X9690303Y6724548D01*
X9691319Y6719620D01*
X9691928Y6714388D01*
X9692132Y6708800D01*
X9691725Y6701536D01*
X9690608Y6694728D01*
X9688677Y6688328D01*
X9686036Y6682384D01*
X9682784Y6676999D01*
X9678822Y6672275D01*
X9674250Y6668262D01*
X9669018Y6664858D01*
X9663328Y6662318D01*
X9657130Y6660489D01*
X9650476Y6659372D01*
X9643364Y6659016D01*
X9637826Y6659219D01*
X9632645Y6659829D01*
X9627768Y6660896D01*
X9623145Y6662318D01*
X9618878Y6664198D01*
X9614865Y6666433D01*
X9611156Y6669125D01*
X9607804Y6672224D01*
X9604806Y6675729D01*
X9602216Y6679539D01*
X9600031Y6683705D01*
X9598253Y6688124D01*
X9596882Y6692849D01*
X9595866Y6697827D01*
X9595307Y6703161D01*
X9595104Y6708800D01*
X9583420Y6708800D01*
X9583064Y6701536D01*
X9581946Y6694728D01*
X9580118Y6688328D01*
X9577578Y6682384D01*
X9574225Y6676999D01*
X9570262Y6672275D01*
X9565690Y6668262D01*
X9560560Y6664858D01*
X9554718Y6662318D01*
X9548469Y6660489D01*
X9541764Y6659372D01*
X9534652Y6659016D01*
X9529114Y6659219D01*
X9523933Y6659829D01*
X9519056Y6660896D01*
X9514433Y6662318D01*
X9510166Y6664198D01*
X9506153Y6666433D01*
X9502444Y6669125D01*
X9499092Y6672224D01*
X9496094Y6675729D01*
X9493504Y6679539D01*
X9491319Y6683705D01*
X9489541Y6688124D01*
X9488170Y6692849D01*
X9487154Y6697827D01*
X9486595Y6703161D01*
X9486392Y6708800D01*
X9459199Y6708800D01*
X9460585Y6708343D01*
X9464700Y6706209D01*
X9468104Y6703466D01*
X9470745Y6700316D01*
X9472676Y6696608D01*
X9473793Y6692442D01*
X9474200Y6687718D01*
X9473590Y6681520D01*
X9471761Y6676034D01*
X9468764Y6671360D01*
X9464548Y6667398D01*
X9459112Y6664299D01*
X9452711Y6662064D01*
X9445396Y6660743D01*
X9437116Y6660286D01*
X9389110Y6660286D01*
X9389110Y6756298D01*
X9366402Y6756298D01*
X9366402Y6634886D01*
X9804400Y6634886D01*
X9804400Y6781800D01*
G37*
G36*
X9534906Y6742074D02*
G01*
X9528556Y6741515D01*
X9522968Y6739839D01*
X9518142Y6737096D01*
X9514078Y6733184D01*
X9510826Y6728409D01*
X9508540Y6722770D01*
X9507169Y6716217D01*
X9506712Y6708800D01*
X9507169Y6701332D01*
X9508540Y6694728D01*
X9510826Y6688886D01*
X9514078Y6683908D01*
X9518192Y6679895D01*
X9523018Y6677050D01*
X9528505Y6675323D01*
X9534652Y6674764D01*
X9541002Y6675323D01*
X9546590Y6676999D01*
X9551416Y6679742D01*
X9555480Y6683654D01*
X9558680Y6688581D01*
X9560966Y6694373D01*
X9562388Y6701129D01*
X9562846Y6708800D01*
X9562388Y6716115D01*
X9560966Y6722668D01*
X9558680Y6728307D01*
X9555480Y6733184D01*
X9551416Y6737096D01*
X9546640Y6739839D01*
X9541154Y6741515D01*
G37*
G36*
X9643618Y6742074D02*
G01*
X9637166Y6741515D01*
X9631476Y6739839D01*
X9626600Y6737096D01*
X9622536Y6733184D01*
X9619284Y6728409D01*
X9616998Y6722770D01*
X9615627Y6716217D01*
X9615170Y6708800D01*
X9615627Y6701332D01*
X9617049Y6694728D01*
X9619437Y6688886D01*
X9622790Y6683908D01*
X9626904Y6679895D01*
X9631730Y6677050D01*
X9637217Y6675323D01*
X9643364Y6674764D01*
X9649714Y6675323D01*
X9655302Y6676999D01*
X9660128Y6679742D01*
X9664192Y6683654D01*
X9667392Y6688581D01*
X9669678Y6694373D01*
X9671100Y6701129D01*
X9671558Y6708800D01*
X9671100Y6716115D01*
X9669678Y6722668D01*
X9667392Y6728307D01*
X9664192Y6733184D01*
X9660128Y6737096D01*
X9655352Y6739839D01*
X9649866Y6741515D01*
G37*
G36*
X9409176Y6741566D02*
G01*
X9409176Y6717690D01*
X9432290Y6717690D01*
X9436201Y6717893D01*
X9439554Y6718452D01*
X9442399Y6719417D01*
X9444736Y6720738D01*
X9446412Y6722364D01*
X9447580Y6724345D01*
X9448292Y6726783D01*
X9448546Y6729628D01*
X9448241Y6732574D01*
X9447428Y6735114D01*
X9446107Y6737146D01*
X9444228Y6738772D01*
X9441942Y6739991D01*
X9439148Y6740855D01*
X9435846Y6741414D01*
X9432036Y6741566D01*
G37*
G36*
X9409176Y6702704D02*
G01*
X9409176Y6675272D01*
X9435338Y6675272D01*
X9439910Y6675475D01*
X9443821Y6676186D01*
X9447022Y6677253D01*
X9449562Y6678828D01*
X9451543Y6680708D01*
X9452965Y6683095D01*
X9453829Y6685940D01*
X9454134Y6689242D01*
X9452914Y6695135D01*
X9449206Y6699351D01*
X9443110Y6701840D01*
X9434576Y6702704D01*
G37*
G36*
X7227874Y2311400D02*
G01*
X7227874Y2238400D01*
X7250633Y2238400D01*
X7250836Y2244039D01*
X7251446Y2249322D01*
X7252411Y2254300D01*
X7253833Y2258974D01*
X7255611Y2263343D01*
X7257796Y2267356D01*
X7260386Y2271064D01*
X7263333Y2274468D01*
X7266736Y2277516D01*
X7270445Y2280158D01*
X7274458Y2282342D01*
X7278776Y2284171D01*
X7283399Y2285593D01*
X7288326Y2286609D01*
X7293609Y2287219D01*
X7299147Y2287422D01*
X7304684Y2287219D01*
X7309866Y2286609D01*
X7313117Y2285898D01*
X7385761Y2285898D01*
X7428179Y2211476D01*
X7427417Y2221179D01*
X7427163Y2230018D01*
X7427163Y2285898D01*
X7444943Y2285898D01*
X7444943Y2189886D01*
X7421321Y2189886D01*
X7379411Y2263800D01*
X7380376Y2254148D01*
X7380681Y2246528D01*
X7380681Y2189886D01*
X7362901Y2189886D01*
X7362901Y2285898D01*
X7313117Y2285898D01*
X7319365Y2284120D01*
X7323632Y2282240D01*
X7327646Y2280005D01*
X7331354Y2277313D01*
X7334707Y2274214D01*
X7337755Y2270810D01*
X7340396Y2267102D01*
X7342631Y2263089D01*
X7344460Y2258771D01*
X7345832Y2254148D01*
X7346848Y2249220D01*
X7347458Y2243988D01*
X7347661Y2238400D01*
X7347305Y2231136D01*
X7346137Y2224328D01*
X7344257Y2217928D01*
X7341565Y2211984D01*
X7338314Y2206599D01*
X7334402Y2201875D01*
X7329830Y2197862D01*
X7324547Y2194458D01*
X7318857Y2191918D01*
X7312710Y2190089D01*
X7306056Y2188972D01*
X7298893Y2188616D01*
X7293406Y2188819D01*
X7288225Y2189429D01*
X7283297Y2190496D01*
X7278725Y2191918D01*
X7274407Y2193798D01*
X7270445Y2196033D01*
X7266736Y2198725D01*
X7263333Y2201824D01*
X7260386Y2205329D01*
X7257796Y2209139D01*
X7255611Y2213305D01*
X7253833Y2217724D01*
X7252411Y2222449D01*
X7251446Y2227427D01*
X7250836Y2232761D01*
X7250633Y2238400D01*
X7227874Y2238400D01*
X7227874Y2164486D01*
X7467600Y2164486D01*
X7467600Y2311400D01*
G37*
G36*
X7299147Y2271674D02*
G01*
X7292695Y2271115D01*
X7287056Y2269439D01*
X7282180Y2266696D01*
X7278065Y2262784D01*
X7274864Y2258009D01*
X7272578Y2252370D01*
X7271156Y2245817D01*
X7270699Y2238400D01*
X7271207Y2230932D01*
X7272629Y2224328D01*
X7275017Y2218486D01*
X7278319Y2213508D01*
X7282484Y2209495D01*
X7287310Y2206650D01*
X7292746Y2204923D01*
X7298893Y2204364D01*
X7305243Y2204923D01*
X7310831Y2206599D01*
X7315657Y2209342D01*
X7319721Y2213254D01*
X7322972Y2218182D01*
X7325258Y2223973D01*
X7326630Y2230729D01*
X7327087Y2238400D01*
X7326630Y2245715D01*
X7325258Y2252268D01*
X7322972Y2257907D01*
X7319721Y2262784D01*
X7315708Y2266696D01*
X7310932Y2269439D01*
X7305395Y2271115D01*
G37*
G36*
X6722008Y2311400D02*
G01*
X6722008Y2238400D01*
X6744766Y2238400D01*
X6744970Y2244039D01*
X6745579Y2249322D01*
X6746544Y2254300D01*
X6747967Y2258974D01*
X6749745Y2263343D01*
X6751929Y2267356D01*
X6754469Y2271064D01*
X6757466Y2274468D01*
X6760870Y2277516D01*
X6764578Y2280158D01*
X6768592Y2282342D01*
X6772909Y2284171D01*
X6777532Y2285593D01*
X6782460Y2286609D01*
X6787743Y2287219D01*
X6793280Y2287422D01*
X6798767Y2287219D01*
X6803999Y2286609D01*
X6807250Y2285898D01*
X7013244Y2285898D01*
X7013244Y2270404D01*
X6962444Y2270404D01*
X6962444Y2240686D01*
X7011466Y2240686D01*
X7011466Y2225192D01*
X6962444Y2225192D01*
X6962444Y2189886D01*
X6942378Y2189886D01*
X6942378Y2285898D01*
X6927900Y2285898D01*
X6927900Y2270404D01*
X6877100Y2270404D01*
X6877100Y2240686D01*
X6926122Y2240686D01*
X6926122Y2225192D01*
X6877100Y2225192D01*
X6877100Y2189886D01*
X6857034Y2189886D01*
X6857034Y2285898D01*
X6807250Y2285898D01*
X6813499Y2284120D01*
X6817766Y2282240D01*
X6821779Y2280005D01*
X6825437Y2277313D01*
X6828840Y2274214D01*
X6831888Y2270810D01*
X6834530Y2267102D01*
X6836714Y2263089D01*
X6838543Y2258771D01*
X6839966Y2254148D01*
X6840981Y2249220D01*
X6841591Y2243988D01*
X6841794Y2238400D01*
X6841439Y2231136D01*
X6840270Y2224328D01*
X6838391Y2217928D01*
X6835698Y2211984D01*
X6832447Y2206599D01*
X6828536Y2201875D01*
X6823913Y2197862D01*
X6818680Y2194458D01*
X6812991Y2191918D01*
X6806793Y2190089D01*
X6800138Y2188972D01*
X6793026Y2188616D01*
X6787540Y2188819D01*
X6782308Y2189429D01*
X6777431Y2190496D01*
X6772859Y2191918D01*
X6768541Y2193798D01*
X6764528Y2196033D01*
X6760870Y2198725D01*
X6757466Y2201824D01*
X6754469Y2205329D01*
X6751929Y2209139D01*
X6749745Y2213305D01*
X6747967Y2217724D01*
X6746544Y2222449D01*
X6745579Y2227427D01*
X6744970Y2232761D01*
X6744766Y2238400D01*
X6722008Y2238400D01*
X6722008Y2164486D01*
X7035800Y2164486D01*
X7035800Y2311400D01*
G37*
G36*
X6793280Y2271674D02*
G01*
X6786829Y2271115D01*
X6781139Y2269439D01*
X6776262Y2266696D01*
X6772198Y2262784D01*
X6768998Y2258009D01*
X6766661Y2252370D01*
X6765290Y2245817D01*
X6764832Y2238400D01*
X6765290Y2230932D01*
X6766763Y2224328D01*
X6769100Y2218486D01*
X6772452Y2213508D01*
X6776618Y2209495D01*
X6781393Y2206650D01*
X6786880Y2204923D01*
X6793026Y2204364D01*
X6799376Y2204923D01*
X6804964Y2206599D01*
X6809790Y2209342D01*
X6813854Y2213254D01*
X6817055Y2218182D01*
X6819392Y2223973D01*
X6820763Y2230729D01*
X6821220Y2238400D01*
X6820763Y2245715D01*
X6819392Y2252268D01*
X6817055Y2257907D01*
X6813854Y2262784D01*
X6809790Y2266696D01*
X6805015Y2269439D01*
X6799529Y2271115D01*
G37*
G36*
X7856778Y2308656D02*
G01*
X7856778Y2235657D01*
X7879588Y2235657D01*
X7879791Y2241296D01*
X7880350Y2246579D01*
X7881366Y2251557D01*
X7882737Y2256231D01*
X7884515Y2260600D01*
X7886700Y2264613D01*
X7889290Y2268321D01*
X7892288Y2271725D01*
X7895640Y2274773D01*
X7899349Y2277414D01*
X7903362Y2279599D01*
X7907680Y2281428D01*
X7912353Y2282850D01*
X7917281Y2283866D01*
X7922514Y2284476D01*
X7928102Y2284679D01*
X7933588Y2284476D01*
X7938770Y2283866D01*
X7942055Y2283155D01*
X8148066Y2283155D01*
X8148066Y2267661D01*
X8097266Y2267661D01*
X8097266Y2237943D01*
X8146288Y2237943D01*
X8146288Y2222449D01*
X8097266Y2222449D01*
X8097266Y2187143D01*
X8077200Y2187143D01*
X8077200Y2283155D01*
X8062722Y2283155D01*
X8062722Y2267661D01*
X8011922Y2267661D01*
X8011922Y2237943D01*
X8060944Y2237943D01*
X8060944Y2222449D01*
X8011922Y2222449D01*
X8011922Y2187143D01*
X7991856Y2187143D01*
X7991856Y2283155D01*
X7942055Y2283155D01*
X7948269Y2281377D01*
X7952587Y2279497D01*
X7956550Y2277262D01*
X7960258Y2274570D01*
X7963662Y2271471D01*
X7966659Y2268067D01*
X7969300Y2264359D01*
X7971536Y2260346D01*
X7973364Y2256028D01*
X7974787Y2251405D01*
X7975803Y2246477D01*
X7976412Y2241245D01*
X7976616Y2235657D01*
X7976209Y2228392D01*
X7975092Y2221585D01*
X7973161Y2215184D01*
X7970520Y2209241D01*
X7967268Y2203856D01*
X7963306Y2199132D01*
X7958734Y2195118D01*
X7953502Y2191715D01*
X7947761Y2189175D01*
X7941614Y2187346D01*
X7934959Y2186228D01*
X7927848Y2185873D01*
X7922310Y2186076D01*
X7917129Y2186686D01*
X7912252Y2187752D01*
X7907629Y2189175D01*
X7903362Y2191054D01*
X7899349Y2193290D01*
X7895640Y2195982D01*
X7892288Y2199081D01*
X7889290Y2202586D01*
X7886700Y2206396D01*
X7884515Y2210562D01*
X7882737Y2214981D01*
X7881366Y2219706D01*
X7880350Y2224684D01*
X7879791Y2230018D01*
X7879588Y2235657D01*
X7856778Y2235657D01*
X7856778Y2161743D01*
X8170621Y2161743D01*
X8170621Y2308656D01*
G37*
G36*
X7928102Y2268931D02*
G01*
X7921599Y2268372D01*
X7915960Y2266696D01*
X7911084Y2263952D01*
X7907020Y2260041D01*
X7903768Y2255266D01*
X7901482Y2249627D01*
X7900111Y2243074D01*
X7899653Y2235657D01*
X7900111Y2228189D01*
X7901533Y2221585D01*
X7903921Y2215743D01*
X7907274Y2210765D01*
X7911388Y2206752D01*
X7916214Y2203907D01*
X7921701Y2202180D01*
X7927848Y2201621D01*
X7934198Y2202180D01*
X7939786Y2203856D01*
X7944612Y2206599D01*
X7948675Y2210511D01*
X7951876Y2215438D01*
X7954162Y2221230D01*
X7955584Y2227986D01*
X7956042Y2235657D01*
X7955584Y2242972D01*
X7954162Y2249525D01*
X7951876Y2255164D01*
X7948675Y2260041D01*
X7944612Y2263952D01*
X7939836Y2266696D01*
X7934299Y2268372D01*
G37*
G36*
X8754059Y2311400D02*
G01*
X8754059Y2285898D01*
X8796832Y2285898D01*
X8796832Y2238400D01*
X8858554Y2238400D01*
X8858758Y2244039D01*
X8859316Y2249322D01*
X8860332Y2254300D01*
X8861704Y2258974D01*
X8863482Y2263343D01*
X8865666Y2267356D01*
X8868257Y2271064D01*
X8871254Y2274468D01*
X8874556Y2277516D01*
X8878214Y2280158D01*
X8882176Y2282342D01*
X8886494Y2284171D01*
X8891066Y2285593D01*
X8895994Y2286609D01*
X8901226Y2287219D01*
X8906814Y2287422D01*
X8912352Y2287219D01*
X8917635Y2286609D01*
X8920920Y2285898D01*
X9018828Y2285898D01*
X9026855Y2285441D01*
X9033916Y2284069D01*
X9040063Y2281732D01*
X9045244Y2278532D01*
X9049359Y2274468D01*
X9052306Y2269591D01*
X9054033Y2263902D01*
X9054642Y2257450D01*
X9054287Y2252522D01*
X9053169Y2248001D01*
X9051340Y2243785D01*
X9048800Y2239924D01*
X9045702Y2236571D01*
X9042095Y2233828D01*
X9037980Y2231745D01*
X9033306Y2230272D01*
X9059468Y2189886D01*
X9065818Y2189886D01*
X9100870Y2285898D01*
X9124492Y2285898D01*
X9159544Y2189886D01*
X9139478Y2189886D01*
X9131096Y2214524D01*
X9094266Y2214524D01*
X9085884Y2189886D01*
X9036862Y2189886D01*
X9014510Y2226462D01*
X8990888Y2226462D01*
X8990888Y2189886D01*
X8970822Y2189886D01*
X8970822Y2285898D01*
X8920920Y2285898D01*
X8927185Y2284120D01*
X8931503Y2282240D01*
X8935516Y2280005D01*
X8939225Y2277313D01*
X8942628Y2274214D01*
X8945676Y2270810D01*
X8948267Y2267102D01*
X8950502Y2263089D01*
X8952331Y2258771D01*
X8953754Y2254148D01*
X8954770Y2249220D01*
X8955379Y2243988D01*
X8955582Y2238400D01*
X8955176Y2231136D01*
X8954058Y2224328D01*
X8952128Y2217928D01*
X8949486Y2211984D01*
X8946235Y2206599D01*
X8942324Y2201875D01*
X8937701Y2197862D01*
X8932468Y2194458D01*
X8926779Y2191918D01*
X8920581Y2190089D01*
X8913926Y2188972D01*
X8906814Y2188616D01*
X8901277Y2188819D01*
X8896096Y2189429D01*
X8891219Y2190496D01*
X8886596Y2191918D01*
X8882329Y2193798D01*
X8878316Y2196033D01*
X8874607Y2198725D01*
X8871254Y2201824D01*
X8868257Y2205329D01*
X8865666Y2209139D01*
X8863482Y2213305D01*
X8861704Y2217724D01*
X8860332Y2222449D01*
X8859316Y2227427D01*
X8858758Y2232761D01*
X8858554Y2238400D01*
X8796832Y2238400D01*
X8796832Y2205380D01*
X8848394Y2205380D01*
X8848394Y2189886D01*
X8776766Y2189886D01*
X8776766Y2285898D01*
X8754059Y2285898D01*
X8754059Y2164486D01*
X9182100Y2164486D01*
X9182100Y2311400D01*
G37*
G36*
X8906814Y2271674D02*
G01*
X8900464Y2271115D01*
X8894876Y2269439D01*
X8890050Y2266696D01*
X8885986Y2262784D01*
X8882735Y2258009D01*
X8880449Y2252370D01*
X8879078Y2245817D01*
X8878620Y2238400D01*
X8879078Y2230932D01*
X8880500Y2224328D01*
X8882888Y2218486D01*
X8886240Y2213508D01*
X8890355Y2209495D01*
X8895181Y2206650D01*
X8900668Y2204923D01*
X8906814Y2204364D01*
X8913164Y2204923D01*
X8918752Y2206599D01*
X8923578Y2209342D01*
X8927642Y2213254D01*
X8930843Y2218182D01*
X8933129Y2223973D01*
X8934551Y2230729D01*
X8935008Y2238400D01*
X8934551Y2245715D01*
X8933129Y2252268D01*
X8930843Y2257907D01*
X8927642Y2262784D01*
X8923578Y2266696D01*
X8918752Y2269439D01*
X8913164Y2271115D01*
G37*
G36*
X9112554Y2271166D02*
G01*
X9109506Y2260752D01*
X9098838Y2229510D01*
X9126524Y2229510D01*
G37*
G36*
X8990888Y2270404D02*
G01*
X8990888Y2241956D01*
X9017050Y2241956D01*
X9021064Y2242210D01*
X9024620Y2242921D01*
X9027566Y2244090D01*
X9030004Y2245766D01*
X9031884Y2247849D01*
X9033205Y2250338D01*
X9034018Y2253183D01*
X9034322Y2256434D01*
X9033205Y2262530D01*
X9029852Y2266899D01*
X9024315Y2269540D01*
X9016542Y2270404D01*
G37*
G36*
X8328253Y2308656D02*
G01*
X8328253Y2283155D01*
X8426399Y2283155D01*
X8426399Y2267661D01*
X8371027Y2267661D01*
X8371027Y2243531D01*
X8422335Y2243531D01*
X8422335Y2228037D01*
X8371027Y2228037D01*
X8371027Y2212289D01*
X8438845Y2212289D01*
X8458149Y2215337D01*
X8459368Y2211781D01*
X8461095Y2208784D01*
X8463330Y2206345D01*
X8466023Y2204415D01*
X8469071Y2202840D01*
X8472728Y2201773D01*
X8476945Y2201062D01*
X8481771Y2200859D01*
X8490966Y2201672D01*
X8497570Y2204059D01*
X8501532Y2208022D01*
X8502853Y2213559D01*
X8502700Y2215591D01*
X8502243Y2217420D01*
X8501532Y2219045D01*
X8500567Y2220417D01*
X8497570Y2222957D01*
X8493709Y2224989D01*
X8487156Y2226767D01*
X8476691Y2229053D01*
X8467598Y2231339D01*
X8461705Y2233117D01*
X8457742Y2234844D01*
X8454085Y2236927D01*
X8450935Y2239162D01*
X8448243Y2241753D01*
X8446211Y2245055D01*
X8445347Y2246884D01*
X8443518Y2252980D01*
X8443163Y2257755D01*
X8443772Y2263952D01*
X8445601Y2269388D01*
X8448700Y2274011D01*
X8453069Y2277821D01*
X8458454Y2280818D01*
X8465007Y2282952D01*
X8472678Y2284272D01*
X8481517Y2284679D01*
X8489848Y2284323D01*
X8497644Y2283155D01*
X8580323Y2283155D01*
X8588451Y2282647D01*
X8595614Y2281174D01*
X8601760Y2278735D01*
X8606993Y2275281D01*
X8611108Y2270912D01*
X8614003Y2265781D01*
X8615781Y2259736D01*
X8616391Y2252929D01*
X8616086Y2248357D01*
X8615273Y2244039D01*
X8613952Y2239975D01*
X8612073Y2236165D01*
X8609685Y2232812D01*
X8606840Y2229815D01*
X8603589Y2227224D01*
X8599881Y2224989D01*
X8595766Y2223211D01*
X8591296Y2221941D01*
X8586470Y2221179D01*
X8581339Y2220925D01*
X8557463Y2220925D01*
X8557463Y2187143D01*
X8537143Y2187143D01*
X8537143Y2283155D01*
X8497644Y2283155D01*
X8503310Y2281529D01*
X8508441Y2279091D01*
X8512454Y2275840D01*
X8515705Y2271674D01*
X8518194Y2266543D01*
X8519871Y2260549D01*
X8500313Y2258009D01*
X8499449Y2260904D01*
X8498128Y2263394D01*
X8496401Y2265578D01*
X8494217Y2267407D01*
X8491677Y2268728D01*
X8488629Y2269693D01*
X8485073Y2270252D01*
X8481009Y2270455D01*
X8472982Y2269744D01*
X8467293Y2267610D01*
X8463838Y2264003D01*
X8462721Y2259025D01*
X8462822Y2257196D01*
X8463838Y2254148D01*
X8465870Y2251710D01*
X8468766Y2249678D01*
X8472982Y2247950D01*
X8480704Y2245766D01*
X8492439Y2243175D01*
X8502345Y2240483D01*
X8505901Y2239213D01*
X8511133Y2236470D01*
X8513368Y2234996D01*
X8515299Y2233371D01*
X8518398Y2229764D01*
X8520633Y2225497D01*
X8521954Y2220569D01*
X8522411Y2214829D01*
X8521750Y2208123D01*
X8519769Y2202332D01*
X8516518Y2197354D01*
X8511997Y2193239D01*
X8506155Y2190038D01*
X8499094Y2187702D01*
X8490762Y2186330D01*
X8481263Y2185873D01*
X8472474Y2186279D01*
X8464753Y2187448D01*
X8457996Y2189429D01*
X8452307Y2192223D01*
X8447532Y2195931D01*
X8443722Y2200554D01*
X8440826Y2205990D01*
X8438845Y2212289D01*
X8371027Y2212289D01*
X8371027Y2202637D01*
X8429193Y2202637D01*
X8429193Y2187143D01*
X8350961Y2187143D01*
X8350961Y2283155D01*
X8328253Y2283155D01*
X8328253Y2161743D01*
X8638946Y2161743D01*
X8638946Y2308656D01*
G37*
G36*
X8557463Y2267661D02*
G01*
X8557463Y2236419D01*
X8578799Y2236419D01*
X8582710Y2236673D01*
X8586165Y2237435D01*
X8589060Y2238705D01*
X8591499Y2240483D01*
X8593480Y2242870D01*
X8594902Y2245614D01*
X8595766Y2248814D01*
X8596071Y2252421D01*
X8594953Y2259076D01*
X8591600Y2263851D01*
X8586063Y2266696D01*
X8578291Y2267661D01*
G37*
G36*
X4956352Y1787550D02*
G01*
X4956352Y1762099D01*
X5041950Y1762099D01*
X5054142Y1705965D01*
X5060035Y1733092D01*
X5066842Y1762099D01*
X5083098Y1762099D01*
X5092547Y1722221D01*
X5095544Y1705965D01*
X5107990Y1762099D01*
X5164632Y1762099D01*
X5170474Y1761743D01*
X5175656Y1760778D01*
X5180126Y1759102D01*
X5183936Y1756765D01*
X5186781Y1753819D01*
X5188864Y1750212D01*
X5190083Y1746046D01*
X5190540Y1741271D01*
X5190286Y1737715D01*
X5189524Y1734413D01*
X5188254Y1731365D01*
X5186476Y1728571D01*
X5184241Y1726133D01*
X5181650Y1724202D01*
X5178653Y1722729D01*
X5175300Y1721713D01*
X5194096Y1692249D01*
X5177586Y1692249D01*
X5161330Y1718665D01*
X5144312Y1718665D01*
X5144312Y1692249D01*
X5129580Y1692249D01*
X5129580Y1762099D01*
X5122722Y1762099D01*
X5104688Y1692249D01*
X5087162Y1692249D01*
X5076901Y1736242D01*
X5074970Y1747621D01*
X5072938Y1737715D01*
X5062270Y1692249D01*
X5044998Y1692249D01*
X5026964Y1762099D01*
X4997246Y1762099D01*
X5003190Y1761743D01*
X5008422Y1760626D01*
X5012842Y1758797D01*
X5016550Y1756257D01*
X5019548Y1753158D01*
X5021681Y1749399D01*
X5022951Y1745030D01*
X5023408Y1740001D01*
X5023205Y1736801D01*
X5022646Y1733702D01*
X5021681Y1730806D01*
X5020360Y1728063D01*
X5018633Y1725523D01*
X5016601Y1723288D01*
X5014214Y1721357D01*
X5011470Y1719681D01*
X5008524Y1718462D01*
X5005273Y1717598D01*
X5001768Y1717039D01*
X4980482Y1716887D01*
X4980482Y1692249D01*
X4966004Y1692249D01*
X4966004Y1762099D01*
X4956352Y1762099D01*
X4956352Y1666849D01*
X5203647Y1666849D01*
X5203647Y1787550D01*
G37*
G36*
X4980482Y1750669D02*
G01*
X4980482Y1728063D01*
X4996230Y1728063D01*
X4998974Y1728266D01*
X5001412Y1728825D01*
X5003546Y1729790D01*
X5005374Y1731111D01*
X5006797Y1732788D01*
X5007813Y1734820D01*
X5008473Y1737106D01*
X5008676Y1739747D01*
X5007864Y1744522D01*
X5005425Y1747926D01*
X5001361Y1750009D01*
X4995722Y1750669D01*
G37*
G36*
X5144312Y1750669D02*
G01*
X5144312Y1730095D01*
X5163362Y1730095D01*
X5166207Y1730248D01*
X5168747Y1730806D01*
X5170932Y1731670D01*
X5172760Y1732889D01*
X5174081Y1734413D01*
X5175046Y1736242D01*
X5175605Y1738375D01*
X5175808Y1740763D01*
X5174996Y1745081D01*
X5172608Y1748180D01*
X5168646Y1750060D01*
X5163108Y1750669D01*
G37*
G36*
X6352743Y2765450D02*
G01*
X6352743Y2739999D01*
X6422136Y2739999D01*
X6422136Y2728823D01*
X6399530Y2728823D01*
X6399530Y2670149D01*
X6424168Y2670149D01*
X6448298Y2706979D01*
X6426200Y2739999D01*
X6441694Y2739999D01*
X6457188Y2715361D01*
X6472682Y2739999D01*
X6488176Y2739999D01*
X6466840Y2706979D01*
X6490208Y2670149D01*
X6474714Y2670149D01*
X6457188Y2698089D01*
X6439662Y2670149D01*
X6384798Y2670149D01*
X6384798Y2728823D01*
X6362192Y2728823D01*
X6362192Y2739999D01*
X6352743Y2739999D01*
X6352743Y2644749D01*
X6499656Y2644749D01*
X6499656Y2765450D01*
G37*
G36*
X6349949Y2574950D02*
G01*
X6349949Y2549499D01*
X6394348Y2549499D01*
X6400190Y2549144D01*
X6405372Y2548178D01*
X6409842Y2546502D01*
X6413652Y2544165D01*
X6416649Y2541219D01*
X6418783Y2537612D01*
X6420053Y2533446D01*
X6420510Y2528671D01*
X6420256Y2525115D01*
X6419494Y2521813D01*
X6418224Y2518765D01*
X6416446Y2515971D01*
X6414109Y2513533D01*
X6411417Y2511602D01*
X6408369Y2510129D01*
X6405016Y2509113D01*
X6424066Y2479649D01*
X6426860Y2479649D01*
X6451244Y2516479D01*
X6428892Y2549499D01*
X6444386Y2549499D01*
X6459880Y2524861D01*
X6475628Y2549499D01*
X6490868Y2549499D01*
X6469786Y2516479D01*
X6492900Y2479649D01*
X6477660Y2479649D01*
X6459880Y2507589D01*
X6442354Y2479649D01*
X6407556Y2479649D01*
X6391300Y2506065D01*
X6374028Y2506065D01*
X6374028Y2479649D01*
X6359550Y2479649D01*
X6359550Y2549499D01*
X6349949Y2549499D01*
X6349949Y2454249D01*
X6502450Y2454249D01*
X6502450Y2574950D01*
G37*
G36*
X6374028Y2538069D02*
G01*
X6374028Y2517495D01*
X6393332Y2517495D01*
X6396177Y2517648D01*
X6398666Y2518206D01*
X6400749Y2519070D01*
X6402476Y2520289D01*
X6403898Y2521813D01*
X6404914Y2523642D01*
X6405575Y2525776D01*
X6405778Y2528163D01*
X6404965Y2532481D01*
X6402527Y2535580D01*
X6398463Y2537460D01*
X6392824Y2538069D01*
G37*
G36*
X9825888Y5842000D02*
G01*
X9825888Y5816549D01*
X9935311Y5816549D01*
X9941306Y5816295D01*
X9946487Y5815482D01*
X9950958Y5814110D01*
X9954615Y5812231D01*
X9957511Y5809691D01*
X9959594Y5806643D01*
X9960813Y5803087D01*
X9961219Y5799023D01*
X9961016Y5796229D01*
X9960406Y5793638D01*
X9959340Y5791250D01*
X9957917Y5789117D01*
X9956038Y5787136D01*
X9953752Y5785561D01*
X9950958Y5784342D01*
X9947757Y5783529D01*
X9951821Y5782818D01*
X9955326Y5781700D01*
X9958273Y5780125D01*
X9960711Y5778195D01*
X9962692Y5775858D01*
X9964166Y5773166D01*
X9964978Y5770168D01*
X9965283Y5766765D01*
X9965026Y5764225D01*
X9972903Y5764225D01*
X9986873Y5765241D01*
X9987483Y5763209D01*
X9988346Y5761482D01*
X9989413Y5760059D01*
X9990683Y5758891D01*
X9992156Y5758027D01*
X9993884Y5757367D01*
X9997795Y5756859D01*
X10000234Y5757062D01*
X10002367Y5757672D01*
X10004298Y5758738D01*
X10005923Y5760161D01*
X10007346Y5761990D01*
X10008412Y5764174D01*
X10009022Y5766663D01*
X10009225Y5769559D01*
X10009022Y5772200D01*
X10008463Y5774588D01*
X10007498Y5776671D01*
X10006177Y5778449D01*
X10004602Y5779871D01*
X10002774Y5780938D01*
X10000538Y5781548D01*
X9998049Y5781751D01*
X9995255Y5781446D01*
X9992715Y5780633D01*
X9990429Y5779160D01*
X9988397Y5777179D01*
X9974935Y5777179D01*
X9977475Y5816549D01*
X10019385Y5816549D01*
X10019385Y5806135D01*
X9989921Y5806135D01*
X9988905Y5788609D01*
X9991598Y5790488D01*
X9994646Y5791860D01*
X9997948Y5792673D01*
X10001605Y5792927D01*
X10006330Y5792571D01*
X10010495Y5791403D01*
X10014204Y5789523D01*
X10017353Y5786831D01*
X10020046Y5783478D01*
X10021925Y5779617D01*
X10023094Y5775096D01*
X10023449Y5770067D01*
X10023043Y5764784D01*
X10021722Y5760059D01*
X10019588Y5755894D01*
X10016591Y5752287D01*
X10012832Y5749391D01*
X10008412Y5747359D01*
X10003282Y5746089D01*
X9997541Y5745683D01*
X9992614Y5745988D01*
X9988143Y5746902D01*
X9984232Y5748375D01*
X9980777Y5750509D01*
X9977882Y5753100D01*
X9975646Y5756249D01*
X9973970Y5759958D01*
X9972903Y5764225D01*
X9965026Y5764225D01*
X9964826Y5762244D01*
X9963454Y5758281D01*
X9961118Y5754878D01*
X9957917Y5752033D01*
X9954006Y5749696D01*
X9949434Y5748020D01*
X9944100Y5747054D01*
X9938105Y5746699D01*
X9903307Y5746699D01*
X9903307Y5816549D01*
X9866731Y5816549D01*
X9872726Y5816193D01*
X9877907Y5815076D01*
X9882378Y5813247D01*
X9886035Y5810707D01*
X9889032Y5807608D01*
X9891166Y5803849D01*
X9892487Y5799480D01*
X9892893Y5794451D01*
X9892690Y5791250D01*
X9892131Y5788152D01*
X9891166Y5785256D01*
X9889845Y5782513D01*
X9888169Y5779973D01*
X9886086Y5777738D01*
X9883698Y5775807D01*
X9880955Y5774131D01*
X9878009Y5772912D01*
X9874808Y5772048D01*
X9871303Y5771489D01*
X9849967Y5771337D01*
X9849967Y5746699D01*
X9835489Y5746699D01*
X9835489Y5816549D01*
X9825888Y5816549D01*
X9825888Y5721299D01*
X10033000Y5721299D01*
X10033000Y5842000D01*
G37*
G36*
X9917785Y5805627D02*
G01*
X9917785Y5788355D01*
X9934549Y5788355D01*
X9937496Y5788507D01*
X9940036Y5788914D01*
X9942068Y5789625D01*
X9943693Y5790641D01*
X9944912Y5791809D01*
X9945776Y5793232D01*
X9946335Y5794959D01*
X9946487Y5796991D01*
X9946284Y5799226D01*
X9945725Y5801106D01*
X9944760Y5802680D01*
X9943439Y5803849D01*
X9941763Y5804611D01*
X9939680Y5805170D01*
X9937292Y5805525D01*
G37*
G36*
X9849967Y5805119D02*
G01*
X9849967Y5782513D01*
X9865715Y5782513D01*
X9868458Y5782716D01*
X9870948Y5783275D01*
X9873030Y5784240D01*
X9874859Y5785561D01*
X9876282Y5787237D01*
X9877348Y5789269D01*
X9877958Y5791555D01*
X9878161Y5794197D01*
X9877348Y5798972D01*
X9874910Y5802376D01*
X9870897Y5804458D01*
X9865207Y5805119D01*
G37*
G36*
X9917785Y5777687D02*
G01*
X9917785Y5757621D01*
X9936835Y5757621D01*
X9940137Y5757773D01*
X9942982Y5758281D01*
X9945370Y5759043D01*
X9947249Y5760161D01*
X9948672Y5761583D01*
X9949738Y5763361D01*
X9950348Y5765393D01*
X9950551Y5767781D01*
X9949688Y5772099D01*
X9946995Y5775198D01*
X9942576Y5777077D01*
X9936327Y5777687D01*
G37*
D10*
X9003538Y4067555D02*
G01*
X9003538Y4017518D01*
X8967215Y4044950D01*
X8967215Y4031234D01*
X8962643Y4022089D01*
X8958072Y4017518D01*
X8944609Y4012945D01*
X8935465Y4012945D01*
X8921750Y4017518D01*
X8912606Y4026662D01*
X8908034Y4040378D01*
X8908034Y4054094D01*
X8912606Y4067555D01*
X8917177Y4072128D01*
X8926322Y4076700D01*
X8930893Y3978402D02*
G01*
X8926322Y3982973D01*
X8921750Y3978402D01*
X8926322Y3974084D01*
X8930893Y3978402D01*
X9003538Y3934968D02*
G01*
X9003538Y3884929D01*
X8967215Y3912107D01*
X8967215Y3898392D01*
X8962643Y3889502D01*
X8958072Y3884929D01*
X8944609Y3880357D01*
X8935465Y3880357D01*
X8921750Y3884929D01*
X8912606Y3894073D01*
X8908034Y3907536D01*
X8908034Y3921252D01*
X8912606Y3934968D01*
X8917177Y3939539D01*
X8926322Y3943857D01*
X9003538Y3850386D02*
G01*
X8908034Y3814063D01*
X9003538Y3777487D02*
G01*
X8908034Y3814063D01*
X8800338Y4076700D02*
G01*
X8704834Y4076700D01*
X8800338Y4076700D02*
G01*
X8800338Y4035805D01*
X8795765Y4022089D01*
X8791193Y4017518D01*
X8782304Y4012945D01*
X8773159Y4012945D01*
X8764015Y4017518D01*
X8759443Y4022089D01*
X8754872Y4035805D01*
X8754872Y4076700D01*
X8754872Y4044950D02*
G01*
X8704834Y4012945D01*
X8786875Y3919473D02*
G01*
X8795765Y3928618D01*
X8800338Y3942079D01*
X8800338Y3960368D01*
X8795765Y3974084D01*
X8786875Y3982973D01*
X8777731Y3982973D01*
X8768588Y3978402D01*
X8764015Y3974084D01*
X8759443Y3964939D01*
X8750300Y3937507D01*
X8745981Y3928618D01*
X8741409Y3924045D01*
X8732265Y3919473D01*
X8718550Y3919473D01*
X8709406Y3928618D01*
X8704834Y3942079D01*
X8704834Y3960368D01*
X8709406Y3974084D01*
X8718550Y3982973D01*
X8800338Y3857497D02*
G01*
X8704834Y3857497D01*
X8800338Y3889502D02*
G01*
X8800338Y3825747D01*
X8574531Y4008628D02*
G01*
X8583675Y4012945D01*
X8592565Y4022089D01*
X8597138Y4031234D01*
X8597138Y4049521D01*
X8592565Y4058412D01*
X8583675Y4067555D01*
X8574531Y4072128D01*
X8560815Y4076700D01*
X8538209Y4076700D01*
X8524493Y4072128D01*
X8515350Y4067555D01*
X8506206Y4058412D01*
X8501634Y4049521D01*
X8501634Y4031234D01*
X8506206Y4022089D01*
X8515350Y4012945D01*
X8524493Y4008628D01*
X8597138Y3978402D02*
G01*
X8501634Y3978402D01*
X8501634Y3978402D02*
G01*
X8501634Y3924045D01*
X8597138Y3894073D02*
G01*
X8501634Y3894073D01*
X8597138Y3830320D02*
G01*
X8533638Y3894073D01*
X8556243Y3871213D02*
G01*
X8501634Y3830320D01*
X8393938Y4076700D02*
G01*
X8298434Y4076700D01*
X8393938Y4076700D02*
G01*
X8393938Y4044950D01*
X8389365Y4031234D01*
X8380475Y4022089D01*
X8371331Y4017518D01*
X8357615Y4012945D01*
X8335009Y4012945D01*
X8321293Y4017518D01*
X8312150Y4022089D01*
X8303006Y4031234D01*
X8298434Y4044950D01*
X8298434Y4076700D01*
X8393938Y3982973D02*
G01*
X8298434Y3982973D01*
X8393938Y3925823D02*
G01*
X8389365Y3934968D01*
X8380475Y3943857D01*
X8371331Y3948429D01*
X8357615Y3953002D01*
X8335009Y3953002D01*
X8321293Y3948429D01*
X8312150Y3943857D01*
X8303006Y3934968D01*
X8298434Y3925823D01*
X8298434Y3907536D01*
X8303006Y3898392D01*
X8312150Y3889502D01*
X8321293Y3884929D01*
X8335009Y3880357D01*
X8357615Y3880357D01*
X8371331Y3884929D01*
X8380475Y3889502D01*
X8389365Y3898392D01*
X8393938Y3907536D01*
X8393938Y3925823D01*
X8180831Y4008628D02*
G01*
X8189975Y4012945D01*
X8198865Y4022089D01*
X8203438Y4031234D01*
X8203438Y4049521D01*
X8198865Y4058412D01*
X8189975Y4067555D01*
X8180831Y4072128D01*
X8167115Y4076700D01*
X8144509Y4076700D01*
X8130793Y4072128D01*
X8121650Y4067555D01*
X8112506Y4058412D01*
X8107934Y4049521D01*
X8107934Y4031234D01*
X8112506Y4022089D01*
X8121650Y4012945D01*
X8130793Y4008628D01*
X8144509Y4008628D01*
X8144509Y4031234D02*
G01*
X8144509Y4008628D01*
X8203438Y3978402D02*
G01*
X8107934Y3978402D01*
X8203438Y3978402D02*
G01*
X8107934Y3914902D01*
X8203438Y3914902D02*
G01*
X8107934Y3914902D01*
X8203438Y3884929D02*
G01*
X8107934Y3884929D01*
X8203438Y3884929D02*
G01*
X8203438Y3853179D01*
X8198865Y3839463D01*
X8189975Y3830320D01*
X8180831Y3825747D01*
X8167115Y3821176D01*
X8144509Y3821176D01*
X8130793Y3825747D01*
X8121650Y3830320D01*
X8112506Y3839463D01*
X8107934Y3853179D01*
X8107934Y3884929D01*
G36*
X9770821Y6355638D02*
G01*
X9770821Y6277152D01*
X9801301Y6277152D01*
X9801301Y6355638D01*
G37*
G36*
X9770821Y6600647D02*
G01*
X9770821Y6522161D01*
X9801301Y6522161D01*
X9801301Y6600647D01*
G37*
G36*
X6970369Y7129881D02*
G01*
X6903059Y7057491D01*
X6970369Y7057491D01*
G37*
G36*
X5878169Y7129881D02*
G01*
X5810859Y7057491D01*
X5878169Y7057491D01*
G37*
G36*
X4760569Y7129881D02*
G01*
X4693259Y7057491D01*
X4760569Y7057491D01*
G37*
G36*
X6424980Y3187649D02*
G01*
X6420510Y3187039D01*
X6416192Y3185617D01*
X6412179Y3183483D01*
X6408623Y3180638D01*
X6405626Y3177184D01*
X6403289Y3173323D01*
X6401714Y3169056D01*
X6400901Y3164586D01*
X6400901Y3160014D01*
X6401714Y3155543D01*
X6403289Y3151276D01*
X6405626Y3147364D01*
X6408623Y3143961D01*
X6412179Y3141116D01*
X6416192Y3138982D01*
X6420510Y3137560D01*
X6424980Y3136900D01*
X6429552Y3137103D01*
X6433972Y3138119D01*
X6438138Y3139897D01*
X6441948Y3142386D01*
X6445250Y3145485D01*
X6447942Y3149193D01*
X6449923Y3153257D01*
X6451142Y3157626D01*
X6451600Y3162147D01*
X6451498Y3164687D01*
X6450634Y3169158D01*
X6449009Y3173425D01*
X6446672Y3177286D01*
X6443675Y3180740D01*
X6440119Y3183534D01*
X6436106Y3185668D01*
X6431788Y3187090D01*
X6429552Y3187496D01*
G37*
D11*
X6310629Y2428239D02*
G01*
X6310629Y2600960D01*
X6310629Y2600960D02*
G01*
X6163309Y2600960D01*
X6310629Y2428239D02*
G01*
X6163309Y2428239D01*
X6104890Y2600960D02*
G01*
X5988050Y2600960D01*
X6102350Y2428239D02*
G01*
X5988050Y2428239D01*
X5988050Y2428239D02*
G01*
X5952490Y2463800D01*
X5952490Y2565400D01*
X5988050Y2600960D01*
D12*
X6141720Y2473960D02*
G01*
X6141720Y2552700D01*
X6141720Y2513804D02*
G01*
X6124183Y2513804D01*
D11*
X6310629Y2631439D02*
G01*
X6310629Y2804160D01*
X6310629Y2804160D02*
G01*
X6163309Y2804160D01*
X6310629Y2631439D02*
G01*
X6163309Y2631439D01*
X6104890Y2804160D02*
G01*
X5988050Y2804160D01*
X6102350Y2631439D02*
G01*
X5988050Y2631439D01*
X5988050Y2631439D02*
G01*
X5952490Y2667000D01*
X5952490Y2768600D01*
X5988050Y2804160D01*
D12*
X6141720Y2677160D02*
G01*
X6141720Y2755900D01*
X6141720Y2717004D02*
G01*
X6124183Y2717004D01*
D11*
X9777729Y5704839D02*
G01*
X9777729Y5877560D01*
X9777729Y5877560D02*
G01*
X9630409Y5877560D01*
X9777729Y5704839D02*
G01*
X9630409Y5704839D01*
X9571990Y5877560D02*
G01*
X9455150Y5877560D01*
X9569450Y5704839D02*
G01*
X9455150Y5704839D01*
X9455150Y5704839D02*
G01*
X9419590Y5740400D01*
X9419590Y5842000D01*
X9455150Y5877560D01*
D12*
X9608820Y5750560D02*
G01*
X9608820Y5829300D01*
X9608820Y5790404D02*
G01*
X9591283Y5790404D01*
D13*
X9631121Y5928339D02*
G01*
X9727008Y5928339D01*
X9727008Y6060460D01*
X9631121Y6060460D01*
X9545878Y5928339D02*
G01*
X9449991Y5928339D01*
X9449991Y6060460D01*
X9545878Y6060460D01*
X6104178Y3139460D02*
G01*
X6008291Y3139460D01*
X6008291Y3007339D01*
X6104178Y3007339D01*
X6189421Y3139460D02*
G01*
X6285308Y3139460D01*
X6285308Y3007339D01*
X6189421Y3007339D01*
X6189421Y3159739D02*
G01*
X6285308Y3159739D01*
X6285308Y3291860D01*
X6189421Y3291860D01*
X6104178Y3159739D02*
G01*
X6008291Y3159739D01*
X6008291Y3291860D01*
X6104178Y3291860D01*
X9778420Y6284780D02*
G01*
X9373179Y6284780D01*
X9373179Y6284780D02*
G01*
X9373179Y6350579D01*
X9778420Y6593019D02*
G01*
X9373179Y6593019D01*
X9373179Y6593019D02*
G01*
X9373179Y6527220D01*
D11*
X9463377Y4877498D02*
G01*
X9383374Y4877498D01*
X9494362Y4988473D02*
G01*
X9494362Y4908476D01*
X9352396Y4988473D02*
G01*
X9352396Y4908476D01*
X9494944Y5046063D02*
G01*
X9494944Y5126062D01*
X9463961Y5157045D02*
G01*
X9383963Y5157045D01*
X9352983Y5046063D02*
G01*
X9352983Y5126062D01*
X8247100Y4329099D02*
G01*
X8247100Y4129100D01*
X8047100Y4329099D02*
G01*
X9047099Y4329099D01*
X9047099Y4129100D01*
X8047100Y4129100D01*
X8047100Y4329099D01*
X5166359Y2170429D02*
G01*
X4993640Y2170429D01*
X4993640Y2170429D02*
G01*
X4993640Y2023110D01*
X5166359Y2170429D02*
G01*
X5166359Y2023110D01*
X4993640Y1964689D02*
G01*
X4993640Y1847850D01*
X5166359Y1962150D02*
G01*
X5166359Y1847850D01*
X5166359Y1847850D02*
G01*
X5130800Y1812289D01*
X5029200Y1812289D01*
X4993640Y1847850D01*
D12*
X5120640Y2001520D02*
G01*
X5041900Y2001520D01*
X5080795Y2001520D02*
G01*
X5080795Y1983983D01*
D13*
X9545878Y6212860D02*
G01*
X9449991Y6212860D01*
X9449991Y6080739D01*
X9545878Y6080739D01*
X9631121Y6212860D02*
G01*
X9727008Y6212860D01*
X9727008Y6080739D01*
X9631121Y6080739D01*
X7501178Y5387360D02*
G01*
X7405291Y5387360D01*
X7405291Y5255239D01*
X7501178Y5255239D01*
X7586421Y5387360D02*
G01*
X7682308Y5387360D01*
X7682308Y5255239D01*
X7586421Y5255239D01*
X7501178Y5692160D02*
G01*
X7405291Y5692160D01*
X7405291Y5560039D01*
X7501178Y5560039D01*
X7586421Y5692160D02*
G01*
X7682308Y5692160D01*
X7682308Y5560039D01*
X7586421Y5560039D01*
X7586421Y5407639D02*
G01*
X7682308Y5407639D01*
X7682308Y5539760D01*
X7586421Y5539760D01*
X7501178Y5407639D02*
G01*
X7405291Y5407639D01*
X7405291Y5539760D01*
X7501178Y5539760D01*
X5173421Y2448539D02*
G01*
X5269308Y2448539D01*
X5269308Y2580660D01*
X5173421Y2580660D01*
X5088178Y2448539D02*
G01*
X4992291Y2448539D01*
X4992291Y2580660D01*
X5088178Y2580660D01*
D11*
X7805597Y6318534D02*
G01*
X7805597Y6311849D01*
X8097697Y6584762D02*
G01*
X8097697Y6591399D01*
X7817200Y6591399D01*
X7805597Y6591399D01*
X7805597Y6584762D01*
X8097697Y6311849D02*
G01*
X8097697Y6318534D01*
X8023311Y6311849D02*
G01*
X8097697Y6311849D01*
X8097697Y6318534D01*
X7805597Y6318534D02*
G01*
X7805597Y6311849D01*
X7877083Y6311849D01*
X9187101Y4694001D02*
G01*
X9187101Y4875712D01*
X9007099Y4693998D02*
G01*
X9187108Y4693998D01*
X8995211Y4734001D02*
G01*
X9147098Y4734001D01*
X7947096Y4885888D02*
G01*
X7947096Y4734001D01*
X8098985Y4734001D01*
X8098985Y5934003D02*
G01*
X7947096Y5934003D01*
X7947096Y5782116D01*
X9147098Y5782116D02*
G01*
X9147098Y5934003D01*
X8995211Y5934003D01*
X9147098Y4734001D02*
G01*
X9147098Y4885888D01*
D13*
X2136160Y4373321D02*
G01*
X2136160Y4469208D01*
X2004039Y4469208D01*
X2004039Y4373321D01*
X2136160Y4288078D02*
G01*
X2136160Y4192191D01*
X2004039Y4192191D01*
X2004039Y4288078D01*
X3629639Y2129078D02*
G01*
X3629639Y2033191D01*
X3761760Y2033191D01*
X3761760Y2129078D01*
X3629639Y2214321D02*
G01*
X3629639Y2310208D01*
X3761760Y2310208D01*
X3761760Y2214321D01*
X6104178Y3774460D02*
G01*
X6008291Y3774460D01*
X6008291Y3642339D01*
X6104178Y3642339D01*
X6189421Y3774460D02*
G01*
X6285308Y3774460D01*
X6285308Y3642339D01*
X6189421Y3642339D01*
X6104178Y3926860D02*
G01*
X6008291Y3926860D01*
X6008291Y3794739D01*
X6104178Y3794739D01*
X6189421Y3926860D02*
G01*
X6285308Y3926860D01*
X6285308Y3794739D01*
X6189421Y3794739D01*
X5519978Y3774460D02*
G01*
X5424091Y3774460D01*
X5424091Y3642339D01*
X5519978Y3642339D01*
X5605221Y3774460D02*
G01*
X5701108Y3774460D01*
X5701108Y3642339D01*
X5605221Y3642339D01*
X5532678Y3926860D02*
G01*
X5436791Y3926860D01*
X5436791Y3794739D01*
X5532678Y3794739D01*
X5617921Y3926860D02*
G01*
X5713808Y3926860D01*
X5713808Y3794739D01*
X5617921Y3794739D01*
X4257060Y3789121D02*
G01*
X4257060Y3885008D01*
X4124939Y3885008D01*
X4124939Y3789121D01*
X4257060Y3703878D02*
G01*
X4257060Y3607991D01*
X4124939Y3607991D01*
X4124939Y3703878D01*
X4472960Y3789121D02*
G01*
X4472960Y3885008D01*
X4340839Y3885008D01*
X4340839Y3789121D01*
X4472960Y3703878D02*
G01*
X4472960Y3607991D01*
X4340839Y3607991D01*
X4340839Y3703878D01*
X3426439Y4288078D02*
G01*
X3426439Y4192191D01*
X3558560Y4192191D01*
X3558560Y4288078D01*
X3426439Y4373321D02*
G01*
X3426439Y4469208D01*
X3558560Y4469208D01*
X3558560Y4373321D01*
X3058139Y6294678D02*
G01*
X3058139Y6198791D01*
X3190260Y6198791D01*
X3190260Y6294678D01*
X3058139Y6379921D02*
G01*
X3058139Y6475808D01*
X3190260Y6475808D01*
X3190260Y6379921D01*
X2854939Y6294678D02*
G01*
X2854939Y6198791D01*
X2987060Y6198791D01*
X2987060Y6294678D01*
X2854939Y6379921D02*
G01*
X2854939Y6475808D01*
X2987060Y6475808D01*
X2987060Y6379921D01*
X2626339Y6294678D02*
G01*
X2626339Y6198791D01*
X2758460Y6198791D01*
X2758460Y6294678D01*
X2626339Y6379921D02*
G01*
X2626339Y6475808D01*
X2758460Y6475808D01*
X2758460Y6379921D01*
X2181839Y6294678D02*
G01*
X2181839Y6198791D01*
X2313960Y6198791D01*
X2313960Y6294678D01*
X2181839Y6379921D02*
G01*
X2181839Y6475808D01*
X2313960Y6475808D01*
X2313960Y6379921D01*
X2410439Y6294678D02*
G01*
X2410439Y6198791D01*
X2542560Y6198791D01*
X2542560Y6294678D01*
X2410439Y6379921D02*
G01*
X2410439Y6475808D01*
X2542560Y6475808D01*
X2542560Y6379921D01*
X1477721Y5229839D02*
G01*
X1573608Y5229839D01*
X1573608Y5361960D01*
X1477721Y5361960D01*
X1392478Y5229839D02*
G01*
X1296591Y5229839D01*
X1296591Y5361960D01*
X1392478Y5361960D01*
X2821960Y4373321D02*
G01*
X2821960Y4469208D01*
X2689839Y4469208D01*
X2689839Y4373321D01*
X2821960Y4288078D02*
G01*
X2821960Y4192191D01*
X2689839Y4192191D01*
X2689839Y4288078D01*
X3063260Y4373321D02*
G01*
X3063260Y4469208D01*
X2931139Y4469208D01*
X2931139Y4373321D01*
X3063260Y4288078D02*
G01*
X3063260Y4192191D01*
X2931139Y4192191D01*
X2931139Y4288078D01*
X2352060Y4373321D02*
G01*
X2352060Y4469208D01*
X2219939Y4469208D01*
X2219939Y4373321D01*
X2352060Y4288078D02*
G01*
X2352060Y4192191D01*
X2219939Y4192191D01*
X2219939Y4288078D01*
X5519978Y2580660D02*
G01*
X5424091Y2580660D01*
X5424091Y2448539D01*
X5519978Y2448539D01*
X5605221Y2580660D02*
G01*
X5701108Y2580660D01*
X5701108Y2448539D01*
X5605221Y2448539D01*
X6713778Y2580660D02*
G01*
X6617891Y2580660D01*
X6617891Y2448539D01*
X6713778Y2448539D01*
X6799021Y2580660D02*
G01*
X6894908Y2580660D01*
X6894908Y2448539D01*
X6799021Y2448539D01*
X2580660Y4373321D02*
G01*
X2580660Y4469208D01*
X2448539Y4469208D01*
X2448539Y4373321D01*
X2580660Y4288078D02*
G01*
X2580660Y4192191D01*
X2448539Y4192191D01*
X2448539Y4288078D01*
X3317260Y4373321D02*
G01*
X3317260Y4469208D01*
X3185139Y4469208D01*
X3185139Y4373321D01*
X3317260Y4288078D02*
G01*
X3317260Y4192191D01*
X3185139Y4192191D01*
X3185139Y4288078D01*
D11*
X5344276Y1830992D02*
G01*
X5344276Y2017283D01*
X6238275Y1459153D02*
G01*
X5344276Y1459153D01*
X5344276Y1607284D01*
X6238275Y1830956D02*
G01*
X6238275Y2017318D01*
X6238275Y1459153D02*
G01*
X6238275Y1607319D01*
X3164177Y5804598D02*
G01*
X3084174Y5804598D01*
X3195162Y5915573D02*
G01*
X3195162Y5835576D01*
X3053196Y5915573D02*
G01*
X3053196Y5835576D01*
X3195744Y5973163D02*
G01*
X3195744Y6053162D01*
X3164761Y6084145D02*
G01*
X3084763Y6084145D01*
X3053783Y5973163D02*
G01*
X3053783Y6053162D01*
X4444301Y4065877D02*
G01*
X4444301Y3985874D01*
X4333326Y4096862D02*
G01*
X4413323Y4096862D01*
X4333326Y3954896D02*
G01*
X4413323Y3954896D01*
X4275736Y4097444D02*
G01*
X4195737Y4097444D01*
X4164754Y4066461D02*
G01*
X4164754Y3986463D01*
X4275736Y3955483D02*
G01*
X4195737Y3955483D01*
X2516477Y5804598D02*
G01*
X2436474Y5804598D01*
X2547462Y5915573D02*
G01*
X2547462Y5835576D01*
X2405496Y5915573D02*
G01*
X2405496Y5835576D01*
X2548044Y5973163D02*
G01*
X2548044Y6053162D01*
X2517061Y6084145D02*
G01*
X2437063Y6084145D01*
X2406083Y5973163D02*
G01*
X2406083Y6053162D01*
X2300577Y5804598D02*
G01*
X2220574Y5804598D01*
X2331562Y5915573D02*
G01*
X2331562Y5835576D01*
X2189596Y5915573D02*
G01*
X2189596Y5835576D01*
X2332144Y5973163D02*
G01*
X2332144Y6053162D01*
X2301161Y6084145D02*
G01*
X2221163Y6084145D01*
X2190183Y5973163D02*
G01*
X2190183Y6053162D01*
X2732377Y5804598D02*
G01*
X2652374Y5804598D01*
X2763362Y5915573D02*
G01*
X2763362Y5835576D01*
X2621396Y5915573D02*
G01*
X2621396Y5835576D01*
X2763944Y5973163D02*
G01*
X2763944Y6053162D01*
X2732961Y6084145D02*
G01*
X2652963Y6084145D01*
X2621983Y5973163D02*
G01*
X2621983Y6053162D01*
X3251898Y5052722D02*
G01*
X3251898Y5132725D01*
X3362873Y5021737D02*
G01*
X3282876Y5021737D01*
X3362873Y5163703D02*
G01*
X3282876Y5163703D01*
X3420463Y5021155D02*
G01*
X3500462Y5021155D01*
X3531445Y5052138D02*
G01*
X3531445Y5132136D01*
X3420463Y5163116D02*
G01*
X3500462Y5163116D01*
X2948277Y5804598D02*
G01*
X2868274Y5804598D01*
X2979262Y5915573D02*
G01*
X2979262Y5835576D01*
X2837296Y5915573D02*
G01*
X2837296Y5835576D01*
X2979844Y5973163D02*
G01*
X2979844Y6053162D01*
X2948861Y6084145D02*
G01*
X2868863Y6084145D01*
X2837883Y5973163D02*
G01*
X2837883Y6053162D01*
X1283398Y5001922D02*
G01*
X1283398Y5081925D01*
X1394373Y4970937D02*
G01*
X1314376Y4970937D01*
X1394373Y5112903D02*
G01*
X1314376Y5112903D01*
X1451963Y4970355D02*
G01*
X1531962Y4970355D01*
X1562945Y5001338D02*
G01*
X1562945Y5081336D01*
X1451963Y5112316D02*
G01*
X1531962Y5112316D01*
X2082101Y4865977D02*
G01*
X2082101Y4785974D01*
X1971126Y4896962D02*
G01*
X2051123Y4896962D01*
X1971126Y4754996D02*
G01*
X2051123Y4754996D01*
X1913536Y4897544D02*
G01*
X1833537Y4897544D01*
X1802554Y4866561D02*
G01*
X1802554Y4786563D01*
X1913536Y4755583D02*
G01*
X1833537Y4755583D01*
X2082101Y5094577D02*
G01*
X2082101Y5014574D01*
X1971126Y5125562D02*
G01*
X2051123Y5125562D01*
X1971126Y4983596D02*
G01*
X2051123Y4983596D01*
X1913536Y5126144D02*
G01*
X1833537Y5126144D01*
X1802554Y5095161D02*
G01*
X1802554Y5015163D01*
X1913536Y4984183D02*
G01*
X1833537Y4984183D01*
X2082101Y5310477D02*
G01*
X2082101Y5230474D01*
X1971126Y5341462D02*
G01*
X2051123Y5341462D01*
X1971126Y5199496D02*
G01*
X2051123Y5199496D01*
X1913536Y5342044D02*
G01*
X1833537Y5342044D01*
X1802554Y5311061D02*
G01*
X1802554Y5231063D01*
X1913536Y5200083D02*
G01*
X1833537Y5200083D01*
X3251898Y5230522D02*
G01*
X3251898Y5310525D01*
X3362873Y5199537D02*
G01*
X3282876Y5199537D01*
X3362873Y5341503D02*
G01*
X3282876Y5341503D01*
X3420463Y5198955D02*
G01*
X3500462Y5198955D01*
X3531445Y5229938D02*
G01*
X3531445Y5309936D01*
X3420463Y5340916D02*
G01*
X3500462Y5340916D01*
X6895401Y2719677D02*
G01*
X6895401Y2639674D01*
X6784426Y2750662D02*
G01*
X6864423Y2750662D01*
X6784426Y2608696D02*
G01*
X6864423Y2608696D01*
X6726836Y2751244D02*
G01*
X6646837Y2751244D01*
X6615854Y2720261D02*
G01*
X6615854Y2640263D01*
X6726836Y2609283D02*
G01*
X6646837Y2609283D01*
X6414198Y3820822D02*
G01*
X6414198Y3900825D01*
X6525173Y3789837D02*
G01*
X6445176Y3789837D01*
X6525173Y3931803D02*
G01*
X6445176Y3931803D01*
X6582763Y3789255D02*
G01*
X6662762Y3789255D01*
X6693745Y3820238D02*
G01*
X6693745Y3900236D01*
X6582763Y3931216D02*
G01*
X6662762Y3931216D01*
X7303198Y2614322D02*
G01*
X7303198Y2694325D01*
X7414173Y2583337D02*
G01*
X7334176Y2583337D01*
X7414173Y2725303D02*
G01*
X7334176Y2725303D01*
X7471763Y2582755D02*
G01*
X7551762Y2582755D01*
X7582745Y2613738D02*
G01*
X7582745Y2693736D01*
X7471763Y2724716D02*
G01*
X7551762Y2724716D01*
X8091777Y3086798D02*
G01*
X8011774Y3086798D01*
X8122762Y3197773D02*
G01*
X8122762Y3117776D01*
X7980796Y3197773D02*
G01*
X7980796Y3117776D01*
X8123344Y3255363D02*
G01*
X8123344Y3335362D01*
X8092361Y3366345D02*
G01*
X8012363Y3366345D01*
X7981383Y3255363D02*
G01*
X7981383Y3335362D01*
X7326022Y3364801D02*
G01*
X7406025Y3364801D01*
X7295037Y3253826D02*
G01*
X7295037Y3333823D01*
X7437003Y3253826D02*
G01*
X7437003Y3333823D01*
X7294455Y3196236D02*
G01*
X7294455Y3116237D01*
X7325438Y3085254D02*
G01*
X7405436Y3085254D01*
X7436416Y3196236D02*
G01*
X7436416Y3116237D01*
X3251898Y5408322D02*
G01*
X3251898Y5488325D01*
X3362873Y5377337D02*
G01*
X3282876Y5377337D01*
X3362873Y5519303D02*
G01*
X3282876Y5519303D01*
X3420463Y5376755D02*
G01*
X3500462Y5376755D01*
X3531445Y5407738D02*
G01*
X3531445Y5487736D01*
X3420463Y5518716D02*
G01*
X3500462Y5518716D01*
X1963600Y2681701D02*
G01*
X1963600Y1451698D01*
X3573599Y2681701D02*
G01*
X3573599Y1451698D01*
X1963600Y3611697D02*
G01*
X1963600Y3011698D01*
X3573635Y3611666D02*
G01*
X3573635Y3011665D01*
X1963600Y3611697D02*
G01*
X3573599Y3611697D01*
X1963600Y1451698D02*
G01*
X3573599Y1451698D01*
X1985225Y5422905D02*
G01*
X2099525Y5422905D01*
X2112225Y5422905D01*
X2137625Y5448305D01*
X2137625Y5588005D01*
X2137625Y5600705D01*
X2112225Y5626105D01*
X1985225Y5626105D01*
X1909025Y5626105D02*
G01*
X1794725Y5626105D01*
X1782025Y5626105D01*
X1756625Y5600705D01*
X1756625Y5461005D01*
X1756625Y5448305D01*
X1782025Y5422905D01*
X1909025Y5422905D01*
X6438907Y7609118D02*
G01*
X6438907Y7620000D01*
X6438907Y7289119D02*
G01*
X6438907Y7442888D01*
X6946907Y7122891D02*
G01*
X6946907Y7112000D01*
X6438907Y7112000D01*
X6438907Y7122891D01*
X6946907Y7442888D02*
G01*
X6946907Y7289119D01*
X6438907Y7620000D02*
G01*
X6946907Y7620000D01*
X6946907Y7609118D01*
X5346707Y7609118D02*
G01*
X5346707Y7620000D01*
X5346707Y7289119D02*
G01*
X5346707Y7442888D01*
X5854707Y7122891D02*
G01*
X5854707Y7112000D01*
X5346707Y7112000D01*
X5346707Y7122891D01*
X5854707Y7442888D02*
G01*
X5854707Y7289119D01*
X5346707Y7620000D02*
G01*
X5854707Y7620000D01*
X5854707Y7609118D01*
X4229107Y7609118D02*
G01*
X4229107Y7620000D01*
X4229107Y7289119D02*
G01*
X4229107Y7442888D01*
X4737107Y7122891D02*
G01*
X4737107Y7112000D01*
X4229107Y7112000D01*
X4229107Y7122891D01*
X4737107Y7442888D02*
G01*
X4737107Y7289119D01*
X4229107Y7620000D02*
G01*
X4737107Y7620000D01*
X4737107Y7609118D01*
D13*
X4038379Y3163519D02*
G01*
X4038379Y2983280D01*
X4141541Y2983280D01*
X4343620Y3163519D02*
G01*
X4343620Y2983280D01*
X4240458Y2983280D01*
X4145460Y3163519D02*
G01*
X4236539Y3163519D01*
X4446219Y4255792D02*
G01*
X4446219Y4431032D01*
X4342058Y4431032D01*
X4138980Y4255792D02*
G01*
X4138980Y4431032D01*
X4243141Y4431032D01*
X4338139Y4255792D02*
G01*
X4247060Y4255792D01*
D11*
X7646169Y3364481D02*
G01*
X7746245Y3364481D01*
X7746245Y3084573D01*
X7646169Y3084573D01*
X7646169Y3084573D02*
G01*
X7646169Y3364481D01*
D14*
X5670712Y3348487D02*
G01*
X5530712Y3348487D01*
X5670712Y3128487D02*
G01*
X5530712Y3128487D01*
X5530712Y3128487D02*
G01*
X5530712Y3136722D01*
X5530712Y3340252D02*
G01*
X5530712Y3348487D01*
X5670712Y3128487D02*
G01*
X5670712Y3136722D01*
X5670712Y3340252D02*
G01*
X5670712Y3348487D01*
D11*
X8277103Y8823203D02*
G01*
X8277103Y7869953D01*
X8817102Y8823203D02*
G01*
X8817102Y7869953D01*
X8544656Y8823203D02*
G01*
X8277103Y8823203D01*
X8544656Y8823203D02*
G01*
X8817102Y8823203D01*
X8890002Y7331750D02*
G01*
X8890002Y7594602D01*
X8400717Y7112002D02*
G01*
X8693487Y7112002D01*
X8204202Y7603454D02*
G01*
X8204202Y7331750D01*
X8693487Y7823202D02*
G01*
X8400717Y7823202D01*
X8817102Y8724056D02*
G01*
X8277103Y8724056D01*
X8277103Y8656929D02*
G01*
X8817102Y8721275D01*
X8817102Y8656929D02*
G01*
X8277103Y8656929D01*
X8277103Y8591613D02*
G01*
X8817102Y8655959D01*
X8817102Y8591613D02*
G01*
X8277103Y8591613D01*
X8277103Y8524486D02*
G01*
X8817102Y8588832D01*
X8817102Y8524486D02*
G01*
X8277103Y8524486D01*
X8277103Y8459170D02*
G01*
X8817102Y8523516D01*
X8817102Y8459170D02*
G01*
X8277103Y8459170D01*
X8277103Y8392043D02*
G01*
X8817102Y8456388D01*
X8817102Y8392043D02*
G01*
X8277103Y8392043D01*
X8277103Y8326729D02*
G01*
X8817102Y8391075D01*
X8817102Y8326729D02*
G01*
X8277103Y8326729D01*
X8277103Y8263229D02*
G01*
X8817102Y8327575D01*
X8817102Y8263229D02*
G01*
X8277103Y8263229D01*
X8277103Y8197913D02*
G01*
X8817102Y8262259D01*
X8817102Y8197913D02*
G01*
X8277103Y8197913D01*
X8277103Y8134413D02*
G01*
X8817102Y8198759D01*
X8817102Y8134413D02*
G01*
X8277103Y8134413D01*
X8817102Y8063656D02*
G01*
X8277103Y8063656D01*
X8277103Y8063656D02*
G01*
X8817102Y8128002D01*
X2473203Y8835903D02*
G01*
X2473203Y7882653D01*
X3013202Y8835903D02*
G01*
X3013202Y7882653D01*
X2740756Y8835903D02*
G01*
X2473203Y8835903D01*
X2740756Y8835903D02*
G01*
X3013202Y8835903D01*
X3086102Y7344450D02*
G01*
X3086102Y7607302D01*
X2596817Y7124702D02*
G01*
X2889587Y7124702D01*
X2400302Y7616154D02*
G01*
X2400302Y7344450D01*
X2889587Y7835902D02*
G01*
X2596817Y7835902D01*
X3013202Y8736756D02*
G01*
X2473203Y8736756D01*
X2473203Y8669629D02*
G01*
X3013202Y8733975D01*
X3013202Y8669629D02*
G01*
X2473203Y8669629D01*
X2473203Y8604313D02*
G01*
X3013202Y8668659D01*
X3013202Y8604313D02*
G01*
X2473203Y8604313D01*
X2473203Y8537186D02*
G01*
X3013202Y8601532D01*
X3013202Y8537186D02*
G01*
X2473203Y8537186D01*
X2473203Y8471870D02*
G01*
X3013202Y8536216D01*
X3013202Y8471870D02*
G01*
X2473203Y8471870D01*
X2473203Y8404743D02*
G01*
X3013202Y8469088D01*
X3013202Y8404743D02*
G01*
X2473203Y8404743D01*
X2473203Y8339429D02*
G01*
X3013202Y8403775D01*
X3013202Y8339429D02*
G01*
X2473203Y8339429D01*
X2473203Y8275929D02*
G01*
X3013202Y8340275D01*
X3013202Y8275929D02*
G01*
X2473203Y8275929D01*
X2473203Y8210613D02*
G01*
X3013202Y8274959D01*
X3013202Y8210613D02*
G01*
X2473203Y8210613D01*
X2473203Y8147113D02*
G01*
X3013202Y8211459D01*
X3013202Y8147113D02*
G01*
X2473203Y8147113D01*
X3013202Y8076356D02*
G01*
X2473203Y8076356D01*
X2473203Y8076356D02*
G01*
X3013202Y8140702D01*
X4248800Y1659300D02*
G01*
X4488799Y1659300D01*
X4738799Y2014700D02*
G01*
X4738799Y1659300D01*
X4488799Y1659300D01*
X4488799Y1269298D01*
X4248800Y1269298D01*
X3998800Y2277899D02*
G01*
X3998800Y2309299D01*
X4738799Y2309299D01*
X4738799Y2277899D01*
X4248800Y1269298D02*
G01*
X4248800Y1659300D01*
X3998800Y1659300D01*
X3998800Y2014700D01*
X7846288Y2067305D02*
G01*
X9146286Y2067305D01*
X9146286Y1717294D01*
X7846288Y1717294D01*
X7846288Y2067305D01*
X8407298Y1717294D02*
G01*
X8557310Y1717294D01*
X8557310Y1317294D01*
X8407298Y1317294D01*
X8407298Y1717294D01*
X6657009Y2016505D02*
G01*
X7567015Y2016505D01*
X7567015Y1666494D01*
X6657009Y1666494D01*
X6657009Y2016505D01*
X6930415Y1667484D02*
G01*
X7090409Y1667484D01*
X7090409Y1267485D01*
X6930415Y1267485D01*
X6930415Y1667484D01*
X6657009Y1917700D02*
G01*
X7567015Y1917700D01*
X7567015Y1667687D01*
X6657009Y1667687D01*
X6657009Y1917700D01*
D15*
X4731801Y3065200D02*
G01*
X4512802Y3065200D01*
X4512802Y3181200D01*
X4512802Y3182200D01*
X4730800Y3182200D01*
X4731801Y3182200D01*
X4731799Y3065200D01*
D13*
X2585151Y5024780D02*
G01*
X2535580Y5024780D01*
X2535580Y5074351D01*
X2585151Y5440019D02*
G01*
X2535580Y5440019D01*
X2535580Y5390448D01*
X2901248Y5024780D02*
G01*
X2950819Y5024780D01*
X2950819Y5074351D01*
X2901248Y5440019D02*
G01*
X2950819Y5440019D01*
X2950819Y5390448D01*
D16*
X6807553Y3241294D02*
G01*
X6807553Y3201283D01*
X6767550Y3201283D01*
X6417536Y3201283D02*
G01*
X6377538Y3201283D01*
X6377538Y3241294D01*
X6377538Y3591300D02*
G01*
X6377538Y3631311D01*
X6417536Y3631311D01*
X6807553Y3591300D02*
G01*
X6807553Y3631311D01*
X6767550Y3631311D01*
D11*
X4622810Y4948384D02*
G01*
X4622810Y4686300D01*
X4717295Y4686300D01*
X4717295Y6489700D02*
G01*
X4622810Y6489700D01*
X4622810Y6227615D01*
X6550710Y6489700D02*
G01*
X6504525Y6489700D01*
X6504525Y4686300D02*
G01*
X6550710Y4686300D01*
X6550710Y6489700D01*
X3564102Y6205194D02*
G01*
X3624097Y6205194D01*
X3564102Y5885205D02*
G01*
X3624097Y5885205D01*
X3814099Y6205199D02*
G01*
X3844099Y6205199D01*
X3844099Y5885200D01*
X3814099Y5885200D01*
X3369086Y5885207D02*
G01*
X3339086Y5885207D01*
X3339086Y6205207D01*
X3369086Y6205207D01*
D13*
X5553219Y2808160D02*
G01*
X5412219Y2808160D01*
X5412219Y2627439D02*
G01*
X5553219Y2627439D01*
X5568459Y2642679D02*
G01*
X5568459Y2792920D01*
X5190980Y2808160D02*
G01*
X5331980Y2808160D01*
X5331980Y2627439D02*
G01*
X5190980Y2627439D01*
X5175740Y2642679D02*
G01*
X5175740Y2792920D01*
D11*
G75*
G01*
X9463961Y5157051D02*
G02*
X9494944Y5126068I0J-30983D01*
G75*
G01*
X9352978Y5126068D02*
G02*
X9383964Y5157051I30983J0D01*
G75*
G01*
X9494363Y4908481D02*
G02*
X9463377Y4877499I-30983J0D01*
G75*
G01*
X9383380Y4877499D02*
G02*
X9352397Y4908481I0J30982D01*
G75*
G01*
X3164761Y6084151D02*
G02*
X3195744Y6053168I0J-30983D01*
G75*
G01*
X3053778Y6053168D02*
G02*
X3084764Y6084151I30983J0D01*
G75*
G01*
X3195163Y5835581D02*
G02*
X3164177Y5804599I-30983J0D01*
G75*
G01*
X3084180Y5804599D02*
G02*
X3053197Y5835581I0J30982D01*
G75*
G01*
X4164749Y4066461D02*
G02*
X4195732Y4097444I30983J0D01*
G75*
G01*
X4195732Y3955478D02*
G02*
X4164749Y3986464I0J30983D01*
G75*
G01*
X4413319Y4096863D02*
G02*
X4444301Y4065877I0J-30983D01*
G75*
G01*
X4444301Y3985880D02*
G02*
X4413319Y3954897I-30982J0D01*
G75*
G01*
X2517061Y6084151D02*
G02*
X2548044Y6053168I0J-30983D01*
G75*
G01*
X2406078Y6053168D02*
G02*
X2437064Y6084151I30983J0D01*
G75*
G01*
X2547463Y5835581D02*
G02*
X2516477Y5804599I-30983J0D01*
G75*
G01*
X2436480Y5804599D02*
G02*
X2405497Y5835581I0J30982D01*
G75*
G01*
X2301161Y6084151D02*
G02*
X2332144Y6053168I0J-30983D01*
G75*
G01*
X2190178Y6053168D02*
G02*
X2221164Y6084151I30983J0D01*
G75*
G01*
X2331563Y5835581D02*
G02*
X2300577Y5804599I-30983J0D01*
G75*
G01*
X2220580Y5804599D02*
G02*
X2189597Y5835581I0J30982D01*
G75*
G01*
X2732961Y6084151D02*
G02*
X2763944Y6053168I0J-30983D01*
G75*
G01*
X2621978Y6053168D02*
G02*
X2652964Y6084151I30983J0D01*
G75*
G01*
X2763363Y5835581D02*
G02*
X2732377Y5804599I-30983J0D01*
G75*
G01*
X2652380Y5804599D02*
G02*
X2621397Y5835581I0J30982D01*
G75*
G01*
X3531451Y5052139D02*
G02*
X3500468Y5021156I-30983J0D01*
G75*
G01*
X3500468Y5163122D02*
G02*
X3531451Y5132136I0J-30983D01*
G75*
G01*
X3282881Y5021737D02*
G02*
X3251899Y5052723I0J30983D01*
G75*
G01*
X3251899Y5132720D02*
G02*
X3282881Y5163703I30982J0D01*
G75*
G01*
X2948861Y6084151D02*
G02*
X2979844Y6053168I0J-30983D01*
G75*
G01*
X2837878Y6053168D02*
G02*
X2868864Y6084151I30983J0D01*
G75*
G01*
X2979263Y5835581D02*
G02*
X2948277Y5804599I-30983J0D01*
G75*
G01*
X2868280Y5804599D02*
G02*
X2837297Y5835581I0J30982D01*
G75*
G01*
X1562951Y5001339D02*
G02*
X1531968Y4970356I-30983J0D01*
G75*
G01*
X1531968Y5112322D02*
G02*
X1562951Y5081336I0J-30983D01*
G75*
G01*
X1314381Y4970937D02*
G02*
X1283399Y5001923I0J30983D01*
G75*
G01*
X1283399Y5081920D02*
G02*
X1314381Y5112903I30982J0D01*
G75*
G01*
X1802549Y4866561D02*
G02*
X1833532Y4897544I30983J0D01*
G75*
G01*
X1833532Y4755578D02*
G02*
X1802549Y4786564I0J30983D01*
G75*
G01*
X2051119Y4896963D02*
G02*
X2082101Y4865977I0J-30983D01*
G75*
G01*
X2082101Y4785980D02*
G02*
X2051119Y4754997I-30982J0D01*
G75*
G01*
X1802549Y5095161D02*
G02*
X1833532Y5126144I30983J0D01*
G75*
G01*
X1833532Y4984178D02*
G02*
X1802549Y5015164I0J30983D01*
G75*
G01*
X2051119Y5125563D02*
G02*
X2082101Y5094577I0J-30983D01*
G75*
G01*
X2082101Y5014580D02*
G02*
X2051119Y4983597I-30982J0D01*
G75*
G01*
X1802549Y5311061D02*
G02*
X1833532Y5342044I30983J0D01*
G75*
G01*
X1833532Y5200078D02*
G02*
X1802549Y5231064I0J30983D01*
G75*
G01*
X2051119Y5341463D02*
G02*
X2082101Y5310477I0J-30983D01*
G75*
G01*
X2082101Y5230480D02*
G02*
X2051119Y5199497I-30982J0D01*
G75*
G01*
X3531451Y5229939D02*
G02*
X3500468Y5198956I-30983J0D01*
G75*
G01*
X3500468Y5340922D02*
G02*
X3531451Y5309936I0J-30983D01*
G75*
G01*
X3282881Y5199537D02*
G02*
X3251899Y5230523I0J30983D01*
G75*
G01*
X3251899Y5310520D02*
G02*
X3282881Y5341503I30982J0D01*
G75*
G01*
X6615849Y2720261D02*
G02*
X6646832Y2751244I30983J0D01*
G75*
G01*
X6646832Y2609278D02*
G02*
X6615849Y2640264I0J30983D01*
G75*
G01*
X6864419Y2750663D02*
G02*
X6895401Y2719677I0J-30983D01*
G75*
G01*
X6895401Y2639680D02*
G02*
X6864419Y2608697I-30982J0D01*
G75*
G01*
X6693751Y3820239D02*
G02*
X6662768Y3789256I-30983J0D01*
G75*
G01*
X6662768Y3931222D02*
G02*
X6693751Y3900236I0J-30983D01*
G75*
G01*
X6445181Y3789837D02*
G02*
X6414199Y3820823I0J30983D01*
G75*
G01*
X6414199Y3900820D02*
G02*
X6445181Y3931803I30982J0D01*
G75*
G01*
X7582751Y2613739D02*
G02*
X7551768Y2582756I-30983J0D01*
G75*
G01*
X7551768Y2724722D02*
G02*
X7582751Y2693736I0J-30983D01*
G75*
G01*
X7334181Y2583337D02*
G02*
X7303199Y2614323I0J30983D01*
G75*
G01*
X7303199Y2694320D02*
G02*
X7334181Y2725303I30982J0D01*
G75*
G01*
X8092361Y3366351D02*
G02*
X8123344Y3335368I0J-30983D01*
G75*
G01*
X7981378Y3335368D02*
G02*
X8012364Y3366351I30983J0D01*
G75*
G01*
X8122763Y3117781D02*
G02*
X8091777Y3086799I-30983J0D01*
G75*
G01*
X8011780Y3086799D02*
G02*
X7980797Y3117781I0J30982D01*
G75*
G01*
X7325439Y3085249D02*
G02*
X7294456Y3116232I0J30983D01*
G75*
G01*
X7436422Y3116232D02*
G02*
X7405436Y3085249I-30983J0D01*
G75*
G01*
X7295037Y3333819D02*
G02*
X7326023Y3364801I30983J0D01*
G75*
G01*
X7406020Y3364801D02*
G02*
X7437003Y3333819I0J-30982D01*
G75*
G01*
X3531451Y5407739D02*
G02*
X3500468Y5376756I-30983J0D01*
G75*
G01*
X3500468Y5518722D02*
G02*
X3531451Y5487736I0J-30983D01*
G75*
G01*
X3282881Y5377337D02*
G02*
X3251899Y5408323I0J30983D01*
G75*
G01*
X3251899Y5488320D02*
G02*
X3282881Y5519303I30982J0D01*
D17*
G75*
G01*
X7569208Y3390892D02*
G02*
X7569208Y3390638I12445J-127D01*
G75*
G01*
X4749800Y3251200D02*
G03*
X4750054Y3251200I127J-12445D01*
D13*
G75*
G01*
X5553220Y2627440D02*
G03*
X5568460Y2642680I0J15240D01*
G75*
G01*
X5568460Y2792920D02*
G03*
X5553220Y2808160I-15240J0D01*
G75*
G01*
X5190980Y2627440D02*
G02*
X5175740Y2642680I0J15240D01*
G75*
G01*
X5175740Y2792920D02*
G02*
X5190980Y2808160I15240J0D01*
D11*
G75*
G01
X9665792Y6438900D02*
G03X9665792Y6438900I-89992J0D01*
G75*
G01
X8013700Y6461404D02*
G03X8013700Y6461404I-63500J0D01*
D16*
G75*
G01
X5709717Y3124505D02*
G03X5709717Y3124505I-10008J0D01*
D18*
G75*
G01
X3004693Y5107407D02*
G03X3004693Y5107407I-7493J0D01*
D19*
G75*
G01
X6548882Y6549009D02*
G03X6548882Y6549009I-19990J0D01*
D11*
G75*
G01
X3369132Y5820207D02*
G03X3369132Y5820207I-19990J0D01*
M02*
