G04 Layer: TopPasteMaskLayer*
G04 EasyEDA v6.5.23, 2023-05-28 22:20:17*
G04 a98212a221284062af17828272900665,7a5a352eff0f4c5696d858f44224924f,10*
G04 Gerber Generator version 0.2*
G04 Scale: 100 percent, Rotated: No, Reflected: No *
G04 Dimensions in millimeters *
G04 leading zeros omitted , absolute positions ,4 integer and 5 decimal *
%FSLAX45Y45*%
%MOMM*%

%AMMACRO1*21,1,$1,$2,0,0,$3*%
%ADD10R,0.8000X0.8000*%
%ADD11MACRO1,1.36X1.23X-90.0000*%
%ADD12R,1.2300X1.3600*%
%ADD13R,0.9000X0.8000*%
%ADD14R,1.0000X1.0500*%
%ADD15R,1.0500X2.2000*%
%ADD16R,2.3000X1.0000*%
%ADD17R,1.0000X2.3000*%
%ADD18R,0.8000X0.9000*%
%ADD19R,1.6000X1.2000*%
%ADD20R,0.5320X1.0450*%
%ADD21R,0.6000X1.0700*%
%ADD22MACRO1,0.6223X1.1049X-90.0000*%
%ADD23R,0.7000X0.4200*%
%ADD24R,0.4000X0.8000*%
%ADD25R,0.9000X2.0000*%
%ADD26R,2.0000X0.9000*%
%ADD27MACRO1,2X0.9X0.0000*%
%ADD28MACRO1,2X0.9X-90.0000*%
%ADD29R,5.0000X5.0000*%
%ADD30R,1.5000X1.2000*%
%ADD31R,0.0146X1.2000*%

%LPD*%
G36*
X9628022Y6039408D02*
G01*
X9622993Y6034379D01*
X9622993Y6011621D01*
X9659975Y6011621D01*
X9659975Y5978601D01*
X9622993Y5978601D01*
X9622993Y5954420D01*
X9628022Y5949391D01*
X9707981Y5949391D01*
X9713010Y5954420D01*
X9713010Y6034379D01*
X9707981Y6039408D01*
G37*
G36*
X9469018Y6039408D02*
G01*
X9463989Y6034379D01*
X9463989Y5954420D01*
X9469018Y5949391D01*
X9548012Y5949391D01*
X9552990Y5954420D01*
X9552990Y5978601D01*
X9514992Y5978601D01*
X9514992Y6011621D01*
X9552990Y6011621D01*
X9552990Y6034379D01*
X9548012Y6039408D01*
G37*
G36*
X6027318Y3118408D02*
G01*
X6022289Y3113379D01*
X6022289Y3033420D01*
X6027318Y3028391D01*
X6107277Y3028391D01*
X6112306Y3033420D01*
X6112306Y3056178D01*
X6075324Y3056178D01*
X6075324Y3089198D01*
X6112306Y3089198D01*
X6112306Y3113379D01*
X6107277Y3118408D01*
G37*
G36*
X6187287Y3118408D02*
G01*
X6182309Y3113379D01*
X6182309Y3089198D01*
X6220307Y3089198D01*
X6220307Y3056178D01*
X6182309Y3056178D01*
X6182309Y3033420D01*
X6187287Y3028391D01*
X6266281Y3028391D01*
X6271310Y3033420D01*
X6271310Y3113379D01*
X6266281Y3118408D01*
G37*
G36*
X6186322Y3270808D02*
G01*
X6181293Y3265779D01*
X6181293Y3243021D01*
X6218275Y3243021D01*
X6218275Y3210001D01*
X6181293Y3210001D01*
X6181293Y3185820D01*
X6186322Y3180791D01*
X6266281Y3180791D01*
X6271310Y3185820D01*
X6271310Y3265779D01*
X6266281Y3270808D01*
G37*
G36*
X6027318Y3270808D02*
G01*
X6022289Y3265779D01*
X6022289Y3185820D01*
X6027318Y3180791D01*
X6106312Y3180791D01*
X6111290Y3185820D01*
X6111290Y3210001D01*
X6073292Y3210001D01*
X6073292Y3243021D01*
X6111290Y3243021D01*
X6111290Y3265779D01*
X6106312Y3270808D01*
G37*
G36*
X9469018Y6191808D02*
G01*
X9463989Y6186779D01*
X9463989Y6106820D01*
X9469018Y6101791D01*
X9548977Y6101791D01*
X9554006Y6106820D01*
X9554006Y6129578D01*
X9517024Y6129578D01*
X9517024Y6162598D01*
X9554006Y6162598D01*
X9554006Y6186779D01*
X9548977Y6191808D01*
G37*
G36*
X9628987Y6191808D02*
G01*
X9624009Y6186779D01*
X9624009Y6162598D01*
X9662007Y6162598D01*
X9662007Y6129578D01*
X9624009Y6129578D01*
X9624009Y6106820D01*
X9628987Y6101791D01*
X9707981Y6101791D01*
X9713010Y6106820D01*
X9713010Y6186779D01*
X9707981Y6191808D01*
G37*
G36*
X7424318Y5366308D02*
G01*
X7419289Y5361279D01*
X7419289Y5281320D01*
X7424318Y5276291D01*
X7504277Y5276291D01*
X7509306Y5281320D01*
X7509306Y5304078D01*
X7472324Y5304078D01*
X7472324Y5337098D01*
X7509306Y5337098D01*
X7509306Y5361279D01*
X7504277Y5366308D01*
G37*
G36*
X7584287Y5366308D02*
G01*
X7579309Y5361279D01*
X7579309Y5337098D01*
X7617307Y5337098D01*
X7617307Y5304078D01*
X7579309Y5304078D01*
X7579309Y5281320D01*
X7584287Y5276291D01*
X7663281Y5276291D01*
X7668310Y5281320D01*
X7668310Y5361279D01*
X7663281Y5366308D01*
G37*
G36*
X7424318Y5671108D02*
G01*
X7419289Y5666079D01*
X7419289Y5586120D01*
X7424318Y5581091D01*
X7504277Y5581091D01*
X7509306Y5586120D01*
X7509306Y5608878D01*
X7472324Y5608878D01*
X7472324Y5641898D01*
X7509306Y5641898D01*
X7509306Y5666079D01*
X7504277Y5671108D01*
G37*
G36*
X7584287Y5671108D02*
G01*
X7579309Y5666079D01*
X7579309Y5641898D01*
X7617307Y5641898D01*
X7617307Y5608878D01*
X7579309Y5608878D01*
X7579309Y5586120D01*
X7584287Y5581091D01*
X7663281Y5581091D01*
X7668310Y5586120D01*
X7668310Y5666079D01*
X7663281Y5671108D01*
G37*
G36*
X7583322Y5518708D02*
G01*
X7578293Y5513679D01*
X7578293Y5490921D01*
X7615275Y5490921D01*
X7615275Y5457901D01*
X7578293Y5457901D01*
X7578293Y5433720D01*
X7583322Y5428691D01*
X7663281Y5428691D01*
X7668310Y5433720D01*
X7668310Y5513679D01*
X7663281Y5518708D01*
G37*
G36*
X7424318Y5518708D02*
G01*
X7419289Y5513679D01*
X7419289Y5433720D01*
X7424318Y5428691D01*
X7503312Y5428691D01*
X7508290Y5433720D01*
X7508290Y5457901D01*
X7470292Y5457901D01*
X7470292Y5490921D01*
X7508290Y5490921D01*
X7508290Y5513679D01*
X7503312Y5518708D01*
G37*
G36*
X5170322Y2559608D02*
G01*
X5165293Y2554579D01*
X5165293Y2531821D01*
X5202275Y2531821D01*
X5202275Y2498801D01*
X5165293Y2498801D01*
X5165293Y2474620D01*
X5170322Y2469591D01*
X5250281Y2469591D01*
X5255310Y2474620D01*
X5255310Y2554579D01*
X5250281Y2559608D01*
G37*
G36*
X5011318Y2559608D02*
G01*
X5006289Y2554579D01*
X5006289Y2474620D01*
X5011318Y2469591D01*
X5090312Y2469591D01*
X5095290Y2474620D01*
X5095290Y2498801D01*
X5057292Y2498801D01*
X5057292Y2531821D01*
X5095290Y2531821D01*
X5095290Y2554579D01*
X5090312Y2559608D01*
G37*
G36*
X2030120Y4455210D02*
G01*
X2025091Y4450181D01*
X2025091Y4370222D01*
X2030120Y4365193D01*
X2052878Y4365193D01*
X2052878Y4402226D01*
X2085898Y4402226D01*
X2085898Y4365193D01*
X2110079Y4365193D01*
X2115108Y4370222D01*
X2115108Y4450181D01*
X2110079Y4455210D01*
G37*
G36*
X2030120Y4295190D02*
G01*
X2025091Y4290212D01*
X2025091Y4211218D01*
X2030120Y4206189D01*
X2110079Y4206189D01*
X2115108Y4211218D01*
X2115108Y4290212D01*
X2110079Y4295190D01*
X2085898Y4295190D01*
X2085898Y4257192D01*
X2052878Y4257192D01*
X2052878Y4295190D01*
G37*
G36*
X3655720Y2137206D02*
G01*
X3650691Y2132177D01*
X3650691Y2052218D01*
X3655720Y2047189D01*
X3735679Y2047189D01*
X3740708Y2052218D01*
X3740708Y2132177D01*
X3735679Y2137206D01*
X3712921Y2137206D01*
X3712921Y2100173D01*
X3679901Y2100173D01*
X3679901Y2137206D01*
G37*
G36*
X3655720Y2296210D02*
G01*
X3650691Y2291181D01*
X3650691Y2212187D01*
X3655720Y2207209D01*
X3679901Y2207209D01*
X3679901Y2245207D01*
X3712921Y2245207D01*
X3712921Y2207209D01*
X3735679Y2207209D01*
X3740708Y2212187D01*
X3740708Y2291181D01*
X3735679Y2296210D01*
G37*
G36*
X6027318Y3753408D02*
G01*
X6022289Y3748379D01*
X6022289Y3668420D01*
X6027318Y3663391D01*
X6107277Y3663391D01*
X6112306Y3668420D01*
X6112306Y3691178D01*
X6075324Y3691178D01*
X6075324Y3724198D01*
X6112306Y3724198D01*
X6112306Y3748379D01*
X6107277Y3753408D01*
G37*
G36*
X6187287Y3753408D02*
G01*
X6182309Y3748379D01*
X6182309Y3724198D01*
X6220307Y3724198D01*
X6220307Y3691178D01*
X6182309Y3691178D01*
X6182309Y3668420D01*
X6187287Y3663391D01*
X6266281Y3663391D01*
X6271310Y3668420D01*
X6271310Y3748379D01*
X6266281Y3753408D01*
G37*
G36*
X6027318Y3905808D02*
G01*
X6022289Y3900779D01*
X6022289Y3820820D01*
X6027318Y3815791D01*
X6107277Y3815791D01*
X6112306Y3820820D01*
X6112306Y3843578D01*
X6075324Y3843578D01*
X6075324Y3876598D01*
X6112306Y3876598D01*
X6112306Y3900779D01*
X6107277Y3905808D01*
G37*
G36*
X6187287Y3905808D02*
G01*
X6182309Y3900779D01*
X6182309Y3876598D01*
X6220307Y3876598D01*
X6220307Y3843578D01*
X6182309Y3843578D01*
X6182309Y3820820D01*
X6187287Y3815791D01*
X6266281Y3815791D01*
X6271310Y3820820D01*
X6271310Y3900779D01*
X6266281Y3905808D01*
G37*
G36*
X5443118Y3753408D02*
G01*
X5438089Y3748379D01*
X5438089Y3668420D01*
X5443118Y3663391D01*
X5523077Y3663391D01*
X5528106Y3668420D01*
X5528106Y3691178D01*
X5491124Y3691178D01*
X5491124Y3724198D01*
X5528106Y3724198D01*
X5528106Y3748379D01*
X5523077Y3753408D01*
G37*
G36*
X5603087Y3753408D02*
G01*
X5598109Y3748379D01*
X5598109Y3724198D01*
X5636107Y3724198D01*
X5636107Y3691178D01*
X5598109Y3691178D01*
X5598109Y3668420D01*
X5603087Y3663391D01*
X5682081Y3663391D01*
X5687110Y3668420D01*
X5687110Y3748379D01*
X5682081Y3753408D01*
G37*
G36*
X5455818Y3905808D02*
G01*
X5450789Y3900779D01*
X5450789Y3820820D01*
X5455818Y3815791D01*
X5535777Y3815791D01*
X5540806Y3820820D01*
X5540806Y3843578D01*
X5503824Y3843578D01*
X5503824Y3876598D01*
X5540806Y3876598D01*
X5540806Y3900779D01*
X5535777Y3905808D01*
G37*
G36*
X5615787Y3905808D02*
G01*
X5610809Y3900779D01*
X5610809Y3876598D01*
X5648807Y3876598D01*
X5648807Y3843578D01*
X5610809Y3843578D01*
X5610809Y3820820D01*
X5615787Y3815791D01*
X5694781Y3815791D01*
X5699810Y3820820D01*
X5699810Y3900779D01*
X5694781Y3905808D01*
G37*
G36*
X4151020Y3871010D02*
G01*
X4145991Y3865981D01*
X4145991Y3786022D01*
X4151020Y3780993D01*
X4173778Y3780993D01*
X4173778Y3818026D01*
X4206798Y3818026D01*
X4206798Y3780993D01*
X4230979Y3780993D01*
X4236008Y3786022D01*
X4236008Y3865981D01*
X4230979Y3871010D01*
G37*
G36*
X4151020Y3710990D02*
G01*
X4145991Y3706012D01*
X4145991Y3627018D01*
X4151020Y3621989D01*
X4230979Y3621989D01*
X4236008Y3627018D01*
X4236008Y3706012D01*
X4230979Y3710990D01*
X4206798Y3710990D01*
X4206798Y3672992D01*
X4173778Y3672992D01*
X4173778Y3710990D01*
G37*
G36*
X4366920Y3871010D02*
G01*
X4361891Y3865981D01*
X4361891Y3786022D01*
X4366920Y3780993D01*
X4389678Y3780993D01*
X4389678Y3818026D01*
X4422698Y3818026D01*
X4422698Y3780993D01*
X4446879Y3780993D01*
X4451908Y3786022D01*
X4451908Y3865981D01*
X4446879Y3871010D01*
G37*
G36*
X4366920Y3710990D02*
G01*
X4361891Y3706012D01*
X4361891Y3627018D01*
X4366920Y3621989D01*
X4446879Y3621989D01*
X4451908Y3627018D01*
X4451908Y3706012D01*
X4446879Y3710990D01*
X4422698Y3710990D01*
X4422698Y3672992D01*
X4389678Y3672992D01*
X4389678Y3710990D01*
G37*
G36*
X3452520Y4296206D02*
G01*
X3447491Y4291177D01*
X3447491Y4211218D01*
X3452520Y4206189D01*
X3532479Y4206189D01*
X3537508Y4211218D01*
X3537508Y4291177D01*
X3532479Y4296206D01*
X3509721Y4296206D01*
X3509721Y4259173D01*
X3476701Y4259173D01*
X3476701Y4296206D01*
G37*
G36*
X3452520Y4455210D02*
G01*
X3447491Y4450181D01*
X3447491Y4371187D01*
X3452520Y4366209D01*
X3476701Y4366209D01*
X3476701Y4404207D01*
X3509721Y4404207D01*
X3509721Y4366209D01*
X3532479Y4366209D01*
X3537508Y4371187D01*
X3537508Y4450181D01*
X3532479Y4455210D01*
G37*
G36*
X3084220Y6302806D02*
G01*
X3079191Y6297777D01*
X3079191Y6217818D01*
X3084220Y6212789D01*
X3164179Y6212789D01*
X3169208Y6217818D01*
X3169208Y6297777D01*
X3164179Y6302806D01*
X3141421Y6302806D01*
X3141421Y6265773D01*
X3108401Y6265773D01*
X3108401Y6302806D01*
G37*
G36*
X3084220Y6461810D02*
G01*
X3079191Y6456781D01*
X3079191Y6377787D01*
X3084220Y6372809D01*
X3108401Y6372809D01*
X3108401Y6410807D01*
X3141421Y6410807D01*
X3141421Y6372809D01*
X3164179Y6372809D01*
X3169208Y6377787D01*
X3169208Y6456781D01*
X3164179Y6461810D01*
G37*
G36*
X2881020Y6302806D02*
G01*
X2875991Y6297777D01*
X2875991Y6217818D01*
X2881020Y6212789D01*
X2960979Y6212789D01*
X2966008Y6217818D01*
X2966008Y6297777D01*
X2960979Y6302806D01*
X2938221Y6302806D01*
X2938221Y6265773D01*
X2905201Y6265773D01*
X2905201Y6302806D01*
G37*
G36*
X2881020Y6461810D02*
G01*
X2875991Y6456781D01*
X2875991Y6377787D01*
X2881020Y6372809D01*
X2905201Y6372809D01*
X2905201Y6410807D01*
X2938221Y6410807D01*
X2938221Y6372809D01*
X2960979Y6372809D01*
X2966008Y6377787D01*
X2966008Y6456781D01*
X2960979Y6461810D01*
G37*
G36*
X2652420Y6302806D02*
G01*
X2647391Y6297777D01*
X2647391Y6217818D01*
X2652420Y6212789D01*
X2732379Y6212789D01*
X2737408Y6217818D01*
X2737408Y6297777D01*
X2732379Y6302806D01*
X2709621Y6302806D01*
X2709621Y6265773D01*
X2676601Y6265773D01*
X2676601Y6302806D01*
G37*
G36*
X2652420Y6461810D02*
G01*
X2647391Y6456781D01*
X2647391Y6377787D01*
X2652420Y6372809D01*
X2676601Y6372809D01*
X2676601Y6410807D01*
X2709621Y6410807D01*
X2709621Y6372809D01*
X2732379Y6372809D01*
X2737408Y6377787D01*
X2737408Y6456781D01*
X2732379Y6461810D01*
G37*
G36*
X2207920Y6302806D02*
G01*
X2202891Y6297777D01*
X2202891Y6217818D01*
X2207920Y6212789D01*
X2287879Y6212789D01*
X2292908Y6217818D01*
X2292908Y6297777D01*
X2287879Y6302806D01*
X2265121Y6302806D01*
X2265121Y6265773D01*
X2232101Y6265773D01*
X2232101Y6302806D01*
G37*
G36*
X2207920Y6461810D02*
G01*
X2202891Y6456781D01*
X2202891Y6377787D01*
X2207920Y6372809D01*
X2232101Y6372809D01*
X2232101Y6410807D01*
X2265121Y6410807D01*
X2265121Y6372809D01*
X2287879Y6372809D01*
X2292908Y6377787D01*
X2292908Y6456781D01*
X2287879Y6461810D01*
G37*
G36*
X2436520Y6302806D02*
G01*
X2431491Y6297777D01*
X2431491Y6217818D01*
X2436520Y6212789D01*
X2516479Y6212789D01*
X2521508Y6217818D01*
X2521508Y6297777D01*
X2516479Y6302806D01*
X2493721Y6302806D01*
X2493721Y6265773D01*
X2460701Y6265773D01*
X2460701Y6302806D01*
G37*
G36*
X2436520Y6461810D02*
G01*
X2431491Y6456781D01*
X2431491Y6377787D01*
X2436520Y6372809D01*
X2460701Y6372809D01*
X2460701Y6410807D01*
X2493721Y6410807D01*
X2493721Y6372809D01*
X2516479Y6372809D01*
X2521508Y6377787D01*
X2521508Y6456781D01*
X2516479Y6461810D01*
G37*
G36*
X1474622Y5340908D02*
G01*
X1469593Y5335879D01*
X1469593Y5313121D01*
X1506626Y5313121D01*
X1506626Y5280101D01*
X1469593Y5280101D01*
X1469593Y5255920D01*
X1474622Y5250891D01*
X1554581Y5250891D01*
X1559610Y5255920D01*
X1559610Y5335879D01*
X1554581Y5340908D01*
G37*
G36*
X1315618Y5340908D02*
G01*
X1310589Y5335879D01*
X1310589Y5255920D01*
X1315618Y5250891D01*
X1394612Y5250891D01*
X1399590Y5255920D01*
X1399590Y5280101D01*
X1361592Y5280101D01*
X1361592Y5313121D01*
X1399590Y5313121D01*
X1399590Y5335879D01*
X1394612Y5340908D01*
G37*
G36*
X2715920Y4455210D02*
G01*
X2710891Y4450181D01*
X2710891Y4370222D01*
X2715920Y4365193D01*
X2738678Y4365193D01*
X2738678Y4402226D01*
X2771698Y4402226D01*
X2771698Y4365193D01*
X2795879Y4365193D01*
X2800908Y4370222D01*
X2800908Y4450181D01*
X2795879Y4455210D01*
G37*
G36*
X2715920Y4295190D02*
G01*
X2710891Y4290212D01*
X2710891Y4211218D01*
X2715920Y4206189D01*
X2795879Y4206189D01*
X2800908Y4211218D01*
X2800908Y4290212D01*
X2795879Y4295190D01*
X2771698Y4295190D01*
X2771698Y4257192D01*
X2738678Y4257192D01*
X2738678Y4295190D01*
G37*
G36*
X2957220Y4455210D02*
G01*
X2952191Y4450181D01*
X2952191Y4370222D01*
X2957220Y4365193D01*
X2979978Y4365193D01*
X2979978Y4402226D01*
X3012998Y4402226D01*
X3012998Y4365193D01*
X3037179Y4365193D01*
X3042208Y4370222D01*
X3042208Y4450181D01*
X3037179Y4455210D01*
G37*
G36*
X2957220Y4295190D02*
G01*
X2952191Y4290212D01*
X2952191Y4211218D01*
X2957220Y4206189D01*
X3037179Y4206189D01*
X3042208Y4211218D01*
X3042208Y4290212D01*
X3037179Y4295190D01*
X3012998Y4295190D01*
X3012998Y4257192D01*
X2979978Y4257192D01*
X2979978Y4295190D01*
G37*
G36*
X2246020Y4455210D02*
G01*
X2240991Y4450181D01*
X2240991Y4370222D01*
X2246020Y4365193D01*
X2268778Y4365193D01*
X2268778Y4402226D01*
X2301798Y4402226D01*
X2301798Y4365193D01*
X2325979Y4365193D01*
X2331008Y4370222D01*
X2331008Y4450181D01*
X2325979Y4455210D01*
G37*
G36*
X2246020Y4295190D02*
G01*
X2240991Y4290212D01*
X2240991Y4211218D01*
X2246020Y4206189D01*
X2325979Y4206189D01*
X2331008Y4211218D01*
X2331008Y4290212D01*
X2325979Y4295190D01*
X2301798Y4295190D01*
X2301798Y4257192D01*
X2268778Y4257192D01*
X2268778Y4295190D01*
G37*
G36*
X5443118Y2559608D02*
G01*
X5438089Y2554579D01*
X5438089Y2474620D01*
X5443118Y2469591D01*
X5523077Y2469591D01*
X5528106Y2474620D01*
X5528106Y2497378D01*
X5491124Y2497378D01*
X5491124Y2530398D01*
X5528106Y2530398D01*
X5528106Y2554579D01*
X5523077Y2559608D01*
G37*
G36*
X5603087Y2559608D02*
G01*
X5598109Y2554579D01*
X5598109Y2530398D01*
X5636107Y2530398D01*
X5636107Y2497378D01*
X5598109Y2497378D01*
X5598109Y2474620D01*
X5603087Y2469591D01*
X5682081Y2469591D01*
X5687110Y2474620D01*
X5687110Y2554579D01*
X5682081Y2559608D01*
G37*
G36*
X6636918Y2559608D02*
G01*
X6631889Y2554579D01*
X6631889Y2474620D01*
X6636918Y2469591D01*
X6716877Y2469591D01*
X6721906Y2474620D01*
X6721906Y2497378D01*
X6684924Y2497378D01*
X6684924Y2530398D01*
X6721906Y2530398D01*
X6721906Y2554579D01*
X6716877Y2559608D01*
G37*
G36*
X6796887Y2559608D02*
G01*
X6791909Y2554579D01*
X6791909Y2530398D01*
X6829907Y2530398D01*
X6829907Y2497378D01*
X6791909Y2497378D01*
X6791909Y2474620D01*
X6796887Y2469591D01*
X6875881Y2469591D01*
X6880910Y2474620D01*
X6880910Y2554579D01*
X6875881Y2559608D01*
G37*
G36*
X2474620Y4455210D02*
G01*
X2469591Y4450181D01*
X2469591Y4370222D01*
X2474620Y4365193D01*
X2497378Y4365193D01*
X2497378Y4402226D01*
X2530398Y4402226D01*
X2530398Y4365193D01*
X2554579Y4365193D01*
X2559608Y4370222D01*
X2559608Y4450181D01*
X2554579Y4455210D01*
G37*
G36*
X2474620Y4295190D02*
G01*
X2469591Y4290212D01*
X2469591Y4211218D01*
X2474620Y4206189D01*
X2554579Y4206189D01*
X2559608Y4211218D01*
X2559608Y4290212D01*
X2554579Y4295190D01*
X2530398Y4295190D01*
X2530398Y4257192D01*
X2497378Y4257192D01*
X2497378Y4295190D01*
G37*
G36*
X3211220Y4455210D02*
G01*
X3206191Y4450181D01*
X3206191Y4370222D01*
X3211220Y4365193D01*
X3233978Y4365193D01*
X3233978Y4402226D01*
X3266998Y4402226D01*
X3266998Y4365193D01*
X3291179Y4365193D01*
X3296208Y4370222D01*
X3296208Y4450181D01*
X3291179Y4455210D01*
G37*
G36*
X3211220Y4295190D02*
G01*
X3206191Y4290212D01*
X3206191Y4211218D01*
X3211220Y4206189D01*
X3291179Y4206189D01*
X3296208Y4211218D01*
X3296208Y4290212D01*
X3291179Y4295190D01*
X3266998Y4295190D01*
X3266998Y4257192D01*
X3233978Y4257192D01*
X3233978Y4295190D01*
G37*
G36*
X6081166Y2280970D02*
G01*
X6081166Y2150973D01*
X6141161Y2150973D01*
X6141161Y2280970D01*
G37*
G36*
X5701182Y2280970D02*
G01*
X5701182Y2150973D01*
X5731154Y2150973D01*
X5731154Y2280970D01*
G37*
G36*
X5441188Y2280970D02*
G01*
X5441188Y2150973D01*
X5501182Y2150973D01*
X5501182Y2280970D01*
G37*
G36*
X5801156Y2280970D02*
G01*
X5801156Y2150973D01*
X5831179Y2150973D01*
X5831179Y2280970D01*
G37*
G36*
X5951169Y2280970D02*
G01*
X5951169Y2150973D01*
X5981192Y2150973D01*
X5981192Y2280970D01*
G37*
G36*
X5651195Y2280970D02*
G01*
X5651195Y2150973D01*
X5681167Y2150973D01*
X5681167Y2280970D01*
G37*
G36*
X5901131Y2280970D02*
G01*
X5901131Y2150973D01*
X5931154Y2150973D01*
X5931154Y2280970D01*
G37*
G36*
X5851194Y2280970D02*
G01*
X5851194Y2150973D01*
X5881166Y2150973D01*
X5881166Y2280970D01*
G37*
G36*
X5601157Y2280970D02*
G01*
X5601157Y2150973D01*
X5631180Y2150973D01*
X5631180Y2280970D01*
G37*
G36*
X5751169Y2280970D02*
G01*
X5751169Y2150973D01*
X5781192Y2150973D01*
X5781192Y2280970D01*
G37*
G36*
X5521198Y2280970D02*
G01*
X5521198Y2150973D01*
X5581192Y2150973D01*
X5581192Y2280970D01*
G37*
G36*
X5357164Y2239111D02*
G01*
X5351221Y2238654D01*
X5345328Y2237638D01*
X5339537Y2236012D01*
X5334000Y2233828D01*
X5328666Y2231085D01*
X5323636Y2227834D01*
X5318963Y2224125D01*
X5314696Y2219960D01*
X5310835Y2215388D01*
X5307482Y2210409D01*
X5304586Y2205177D01*
X5302300Y2199640D01*
X5300522Y2193950D01*
X5299354Y2188057D01*
X5298744Y2182114D01*
X5298643Y2099157D01*
X5298948Y2093163D01*
X5299862Y2087270D01*
X5301335Y2081428D01*
X5303367Y2075840D01*
X5305958Y2070455D01*
X5309108Y2065324D01*
X5312714Y2060549D01*
X5316778Y2056180D01*
X5321249Y2052218D01*
X5326126Y2048713D01*
X5331307Y2045766D01*
X5336743Y2043277D01*
X5342432Y2041398D01*
X5348224Y2040026D01*
X5354167Y2039315D01*
X5360162Y2039162D01*
X5366105Y2039620D01*
X5371998Y2040636D01*
X5377789Y2042261D01*
X5383326Y2044446D01*
X5388660Y2047189D01*
X5393690Y2050440D01*
X5398363Y2054148D01*
X5402630Y2058314D01*
X5406491Y2062886D01*
X5409844Y2067864D01*
X5412740Y2073097D01*
X5415026Y2078634D01*
X5416804Y2084324D01*
X5417972Y2090216D01*
X5418582Y2096160D01*
X5418683Y2179116D01*
X5418378Y2185111D01*
X5417464Y2191004D01*
X5415991Y2196846D01*
X5413959Y2202434D01*
X5411368Y2207818D01*
X5408218Y2212949D01*
X5404612Y2217724D01*
X5400548Y2222093D01*
X5396077Y2226056D01*
X5391200Y2229561D01*
X5386019Y2232507D01*
X5380583Y2234996D01*
X5374894Y2236876D01*
X5369102Y2238248D01*
X5363159Y2238959D01*
G37*
G36*
X6222187Y2239111D02*
G01*
X6216243Y2238654D01*
X6210350Y2237638D01*
X6204559Y2236012D01*
X6199022Y2233828D01*
X6193688Y2231085D01*
X6188659Y2227834D01*
X6183985Y2224125D01*
X6179718Y2219960D01*
X6175857Y2215388D01*
X6172504Y2210409D01*
X6169609Y2205177D01*
X6167323Y2199640D01*
X6165545Y2193950D01*
X6164376Y2188057D01*
X6163767Y2182114D01*
X6163665Y2099157D01*
X6163970Y2093163D01*
X6164884Y2087270D01*
X6166358Y2081428D01*
X6168390Y2075840D01*
X6170980Y2070455D01*
X6174130Y2065324D01*
X6177737Y2060549D01*
X6181801Y2056180D01*
X6186271Y2052218D01*
X6191148Y2048713D01*
X6196330Y2045766D01*
X6201765Y2043277D01*
X6207455Y2041398D01*
X6213246Y2040026D01*
X6219190Y2039315D01*
X6225184Y2039162D01*
X6231128Y2039620D01*
X6237020Y2040636D01*
X6242812Y2042261D01*
X6248349Y2044446D01*
X6253683Y2047189D01*
X6258712Y2050440D01*
X6263386Y2054148D01*
X6267653Y2058314D01*
X6271514Y2062886D01*
X6274866Y2067864D01*
X6277762Y2073097D01*
X6280048Y2078634D01*
X6281826Y2084324D01*
X6282994Y2090216D01*
X6283604Y2096160D01*
X6283706Y2179116D01*
X6283401Y2185111D01*
X6282486Y2191004D01*
X6281013Y2196846D01*
X6278981Y2202434D01*
X6276390Y2207818D01*
X6273241Y2212949D01*
X6269634Y2217724D01*
X6265570Y2222093D01*
X6261100Y2226056D01*
X6256223Y2229561D01*
X6251041Y2232507D01*
X6245606Y2234996D01*
X6239916Y2236876D01*
X6234125Y2238248D01*
X6228181Y2238959D01*
G37*
G36*
X5357164Y1811121D02*
G01*
X5351221Y1810664D01*
X5345328Y1809648D01*
X5339537Y1808022D01*
X5334000Y1805838D01*
X5328666Y1803095D01*
X5323636Y1799843D01*
X5318963Y1796135D01*
X5314696Y1791970D01*
X5310835Y1787398D01*
X5307482Y1782419D01*
X5304586Y1777187D01*
X5302300Y1771650D01*
X5300522Y1765960D01*
X5299354Y1760067D01*
X5298744Y1754124D01*
X5298643Y1691132D01*
X5298948Y1685188D01*
X5299862Y1679244D01*
X5301335Y1673453D01*
X5303367Y1667865D01*
X5305958Y1662430D01*
X5309108Y1657350D01*
X5312714Y1652574D01*
X5316778Y1648206D01*
X5321249Y1644243D01*
X5326126Y1640738D01*
X5331307Y1637741D01*
X5336743Y1635302D01*
X5342432Y1633372D01*
X5348224Y1632051D01*
X5354167Y1631289D01*
X5360162Y1631188D01*
X5366105Y1631594D01*
X5371998Y1632661D01*
X5377789Y1634286D01*
X5383326Y1636471D01*
X5388660Y1639163D01*
X5393690Y1642414D01*
X5398363Y1646174D01*
X5402630Y1650339D01*
X5406491Y1654911D01*
X5409844Y1659839D01*
X5412740Y1665122D01*
X5415026Y1670608D01*
X5416804Y1676349D01*
X5417972Y1682191D01*
X5418582Y1688134D01*
X5418683Y1751126D01*
X5418378Y1757121D01*
X5417464Y1763014D01*
X5415991Y1768856D01*
X5413959Y1774443D01*
X5411368Y1779828D01*
X5408218Y1784959D01*
X5404612Y1789734D01*
X5400548Y1794103D01*
X5396077Y1798066D01*
X5391200Y1801571D01*
X5386019Y1804517D01*
X5380583Y1807006D01*
X5374894Y1808886D01*
X5369102Y1810257D01*
X5363159Y1810969D01*
G37*
G36*
X6222187Y1811121D02*
G01*
X6216243Y1810664D01*
X6210350Y1809648D01*
X6204559Y1808022D01*
X6199022Y1805838D01*
X6193688Y1803095D01*
X6188659Y1799843D01*
X6183985Y1796135D01*
X6179718Y1791970D01*
X6175857Y1787398D01*
X6172504Y1782419D01*
X6169609Y1777187D01*
X6167323Y1771650D01*
X6165545Y1765960D01*
X6164376Y1760067D01*
X6163767Y1754124D01*
X6163665Y1691132D01*
X6163970Y1685188D01*
X6164884Y1679244D01*
X6166358Y1673453D01*
X6168390Y1667865D01*
X6170980Y1662430D01*
X6174130Y1657350D01*
X6177737Y1652574D01*
X6181801Y1648206D01*
X6186271Y1644243D01*
X6191148Y1640738D01*
X6196330Y1637741D01*
X6201765Y1635302D01*
X6207455Y1633372D01*
X6213246Y1632051D01*
X6219190Y1631289D01*
X6225184Y1631188D01*
X6231128Y1631594D01*
X6237020Y1632661D01*
X6242812Y1634286D01*
X6248349Y1636471D01*
X6253683Y1639163D01*
X6258712Y1642414D01*
X6263386Y1646174D01*
X6267653Y1650339D01*
X6271514Y1654911D01*
X6274866Y1659839D01*
X6277762Y1665122D01*
X6280048Y1670608D01*
X6281826Y1676349D01*
X6282994Y1682191D01*
X6283604Y1688134D01*
X6283706Y1751126D01*
X6283401Y1757121D01*
X6282486Y1763014D01*
X6281013Y1768856D01*
X6278981Y1774443D01*
X6276390Y1779828D01*
X6273241Y1784959D01*
X6269634Y1789734D01*
X6265570Y1794103D01*
X6261100Y1798066D01*
X6256223Y1801571D01*
X6251041Y1804517D01*
X6245606Y1807006D01*
X6239916Y1808886D01*
X6234125Y1810257D01*
X6228181Y1810969D01*
G37*
G36*
X6001207Y2280970D02*
G01*
X6001207Y2150973D01*
X6061202Y2150973D01*
X6061202Y2280970D01*
G37*
G36*
X2017623Y5593334D02*
G01*
X1979117Y5546547D01*
X1979117Y5502452D01*
X2017623Y5455666D01*
X2086356Y5455666D01*
X2096363Y5465673D01*
X2096363Y5583326D01*
X2086356Y5593334D01*
G37*
G36*
X1799843Y5593334D02*
G01*
X1789836Y5583326D01*
X1789836Y5465673D01*
X1799843Y5455666D01*
X1868576Y5455666D01*
X1907082Y5502452D01*
X1907082Y5546547D01*
X1868576Y5593334D01*
G37*
G36*
X2854198Y5074920D02*
G01*
X2854198Y5008422D01*
X2882188Y5008422D01*
X2882188Y5074920D01*
G37*
G36*
X2804210Y5074920D02*
G01*
X2804210Y5008422D01*
X2832201Y5008422D01*
X2832201Y5074920D01*
G37*
G36*
X2754223Y5074920D02*
G01*
X2754223Y5008422D01*
X2782214Y5008422D01*
X2782214Y5074920D01*
G37*
G36*
X2704185Y5074920D02*
G01*
X2704185Y5008422D01*
X2732176Y5008422D01*
X2732176Y5074920D01*
G37*
G36*
X2654198Y5074920D02*
G01*
X2654198Y5008422D01*
X2682189Y5008422D01*
X2682189Y5074920D01*
G37*
G36*
X2604211Y5074920D02*
G01*
X2604211Y5008422D01*
X2632202Y5008422D01*
X2632202Y5074920D01*
G37*
G36*
X2519222Y5121402D02*
G01*
X2519222Y5093411D01*
X2585720Y5093411D01*
X2585720Y5121402D01*
G37*
G36*
X2519222Y5171389D02*
G01*
X2519222Y5143398D01*
X2585720Y5143398D01*
X2585720Y5171389D01*
G37*
G36*
X2519222Y5221376D02*
G01*
X2519222Y5193385D01*
X2585720Y5193385D01*
X2585720Y5221376D01*
G37*
G36*
X2519222Y5271414D02*
G01*
X2519222Y5243423D01*
X2585720Y5243423D01*
X2585720Y5271414D01*
G37*
G36*
X2519222Y5321401D02*
G01*
X2519222Y5293410D01*
X2585720Y5293410D01*
X2585720Y5321401D01*
G37*
G36*
X2519222Y5371388D02*
G01*
X2519222Y5343398D01*
X2585720Y5343398D01*
X2585720Y5371388D01*
G37*
G36*
X2604211Y5456377D02*
G01*
X2604211Y5389880D01*
X2632202Y5389880D01*
X2632202Y5456377D01*
G37*
G36*
X2654198Y5456377D02*
G01*
X2654198Y5389880D01*
X2682189Y5389880D01*
X2682189Y5456377D01*
G37*
G36*
X2704185Y5456377D02*
G01*
X2704185Y5389880D01*
X2732176Y5389880D01*
X2732176Y5456377D01*
G37*
G36*
X2754223Y5456377D02*
G01*
X2754223Y5389880D01*
X2782214Y5389880D01*
X2782214Y5456377D01*
G37*
G36*
X2804210Y5456377D02*
G01*
X2804210Y5389880D01*
X2832201Y5389880D01*
X2832201Y5456377D01*
G37*
G36*
X2854198Y5456377D02*
G01*
X2854198Y5389880D01*
X2882188Y5389880D01*
X2882188Y5456377D01*
G37*
G36*
X2900680Y5371388D02*
G01*
X2900680Y5343398D01*
X2967177Y5343398D01*
X2967177Y5371388D01*
G37*
G36*
X2900680Y5321401D02*
G01*
X2900680Y5293410D01*
X2967177Y5293410D01*
X2967177Y5321401D01*
G37*
G36*
X2900680Y5271414D02*
G01*
X2900680Y5243423D01*
X2967177Y5243423D01*
X2967177Y5271414D01*
G37*
G36*
X2900680Y5221376D02*
G01*
X2900680Y5193385D01*
X2967177Y5193385D01*
X2967177Y5221376D01*
G37*
G36*
X2900680Y5171389D02*
G01*
X2900680Y5143398D01*
X2967177Y5143398D01*
X2967177Y5171389D01*
G37*
G36*
X2900680Y5121402D02*
G01*
X2900680Y5093411D01*
X2967177Y5093411D01*
X2967177Y5121402D01*
G37*
G36*
X2641193Y5334406D02*
G01*
X2641193Y5130393D01*
X2845206Y5130393D01*
X2845206Y5334406D01*
G37*
G36*
X6365290Y3305301D02*
G01*
X6361938Y3304895D01*
X6358788Y3303727D01*
X6355994Y3301796D01*
X6353759Y3299256D01*
X6352235Y3296259D01*
X6351422Y3293008D01*
X6351422Y3289604D01*
X6352235Y3286353D01*
X6353759Y3283356D01*
X6355994Y3280816D01*
X6358788Y3278886D01*
X6361938Y3277717D01*
X6365290Y3277311D01*
X6418986Y3277412D01*
X6422288Y3278225D01*
X6423812Y3278886D01*
X6426606Y3280816D01*
X6428841Y3283356D01*
X6430365Y3286353D01*
X6431178Y3289604D01*
X6431178Y3293008D01*
X6430365Y3296259D01*
X6428841Y3299256D01*
X6426606Y3301796D01*
X6423812Y3303727D01*
X6420662Y3304895D01*
X6417310Y3305301D01*
G37*
G36*
X6365290Y3355289D02*
G01*
X6361938Y3354882D01*
X6358788Y3353714D01*
X6355994Y3351784D01*
X6353759Y3349244D01*
X6352235Y3346246D01*
X6351422Y3342995D01*
X6351422Y3339592D01*
X6352235Y3336340D01*
X6353759Y3333343D01*
X6355994Y3330803D01*
X6358788Y3328873D01*
X6361938Y3327704D01*
X6365290Y3327298D01*
X6418986Y3327400D01*
X6422288Y3328212D01*
X6423812Y3328873D01*
X6426606Y3330803D01*
X6428841Y3333343D01*
X6430365Y3336340D01*
X6431178Y3339592D01*
X6431178Y3342995D01*
X6430365Y3346246D01*
X6428841Y3349244D01*
X6426606Y3351784D01*
X6423812Y3353714D01*
X6420662Y3354882D01*
X6417310Y3355289D01*
G37*
G36*
X6365290Y3405327D02*
G01*
X6361938Y3404920D01*
X6358788Y3403701D01*
X6355994Y3401771D01*
X6353759Y3399282D01*
X6352235Y3396284D01*
X6351422Y3392982D01*
X6351422Y3389629D01*
X6352235Y3386328D01*
X6353759Y3383330D01*
X6355994Y3380841D01*
X6358788Y3378911D01*
X6361938Y3377692D01*
X6365290Y3377285D01*
X6418986Y3377387D01*
X6422288Y3378200D01*
X6425234Y3379774D01*
X6427774Y3382010D01*
X6429705Y3384804D01*
X6430873Y3387953D01*
X6431280Y3391306D01*
X6430873Y3394659D01*
X6429705Y3397808D01*
X6427774Y3400602D01*
X6425234Y3402837D01*
X6422288Y3404412D01*
X6418986Y3405225D01*
G37*
G36*
X6365290Y3455314D02*
G01*
X6361938Y3454908D01*
X6358788Y3453688D01*
X6355994Y3451758D01*
X6353759Y3449269D01*
X6352235Y3446272D01*
X6351422Y3442970D01*
X6351422Y3439617D01*
X6352235Y3436315D01*
X6353759Y3433318D01*
X6355994Y3430828D01*
X6358788Y3428898D01*
X6361938Y3427679D01*
X6365290Y3427272D01*
X6418986Y3427374D01*
X6422288Y3428187D01*
X6425234Y3429762D01*
X6427774Y3431997D01*
X6429705Y3434791D01*
X6430873Y3437940D01*
X6431280Y3441293D01*
X6430873Y3444646D01*
X6429705Y3447796D01*
X6427774Y3450590D01*
X6425234Y3452825D01*
X6422288Y3454400D01*
X6418986Y3455212D01*
G37*
G36*
X6365290Y3505301D02*
G01*
X6361938Y3504895D01*
X6358788Y3503726D01*
X6355994Y3501796D01*
X6353759Y3499256D01*
X6352235Y3496259D01*
X6351422Y3493008D01*
X6351422Y3489604D01*
X6352235Y3486353D01*
X6353759Y3483356D01*
X6355994Y3480815D01*
X6358788Y3478885D01*
X6361938Y3477717D01*
X6365290Y3477310D01*
X6418986Y3477412D01*
X6422288Y3478225D01*
X6423812Y3478885D01*
X6426606Y3480815D01*
X6428841Y3483356D01*
X6430365Y3486353D01*
X6431178Y3489604D01*
X6431178Y3493008D01*
X6430365Y3496259D01*
X6428841Y3499256D01*
X6426606Y3501796D01*
X6423812Y3503726D01*
X6420662Y3504895D01*
X6417310Y3505301D01*
G37*
G36*
X6365290Y3555288D02*
G01*
X6361938Y3554882D01*
X6358788Y3553714D01*
X6355994Y3551783D01*
X6353759Y3549243D01*
X6352235Y3546246D01*
X6351422Y3542995D01*
X6351422Y3539591D01*
X6352235Y3536340D01*
X6353759Y3533343D01*
X6355994Y3530803D01*
X6358788Y3528872D01*
X6361938Y3527704D01*
X6365290Y3527298D01*
X6418986Y3527399D01*
X6422288Y3528212D01*
X6423812Y3528872D01*
X6426606Y3530803D01*
X6428841Y3533343D01*
X6430365Y3536340D01*
X6431178Y3539591D01*
X6431178Y3542995D01*
X6430365Y3546246D01*
X6428841Y3549243D01*
X6426606Y3551783D01*
X6423812Y3553714D01*
X6420662Y3554882D01*
X6417310Y3555288D01*
G37*
G36*
X6467094Y3656279D02*
G01*
X6463741Y3655872D01*
X6460591Y3654704D01*
X6457797Y3652774D01*
X6455562Y3650234D01*
X6453987Y3647287D01*
X6453174Y3643985D01*
X6453073Y3590290D01*
X6453479Y3586937D01*
X6454698Y3583787D01*
X6456629Y3580993D01*
X6459118Y3578758D01*
X6462115Y3577234D01*
X6465417Y3576421D01*
X6468770Y3576421D01*
X6472072Y3577234D01*
X6475069Y3578758D01*
X6477558Y3580993D01*
X6479489Y3583787D01*
X6480708Y3586937D01*
X6481114Y3590290D01*
X6481013Y3643985D01*
X6480200Y3647287D01*
X6478625Y3650234D01*
X6476390Y3652774D01*
X6473596Y3654704D01*
X6470446Y3655872D01*
G37*
G36*
X6516319Y3656279D02*
G01*
X6512966Y3655872D01*
X6509766Y3654704D01*
X6507022Y3652774D01*
X6505803Y3651605D01*
X6503873Y3648811D01*
X6502704Y3645662D01*
X6502298Y3642309D01*
X6502400Y3588613D01*
X6503212Y3585311D01*
X6503873Y3583787D01*
X6505803Y3580993D01*
X6508343Y3578758D01*
X6511340Y3577234D01*
X6514592Y3576421D01*
X6517995Y3576421D01*
X6521246Y3577234D01*
X6524244Y3578758D01*
X6526784Y3580993D01*
X6528714Y3583787D01*
X6529882Y3586937D01*
X6530289Y3590290D01*
X6530187Y3643985D01*
X6529374Y3647287D01*
X6528714Y3648811D01*
X6526784Y3651605D01*
X6524244Y3653840D01*
X6521246Y3655364D01*
X6517995Y3656177D01*
G37*
G36*
X6566306Y3656279D02*
G01*
X6562953Y3655872D01*
X6559803Y3654704D01*
X6557009Y3652774D01*
X6554774Y3650234D01*
X6553200Y3647287D01*
X6552387Y3643985D01*
X6552285Y3590290D01*
X6552692Y3586937D01*
X6553911Y3583787D01*
X6555841Y3580993D01*
X6558330Y3578758D01*
X6561328Y3577234D01*
X6564630Y3576421D01*
X6567982Y3576421D01*
X6571284Y3577234D01*
X6574281Y3578758D01*
X6576771Y3580993D01*
X6578701Y3583787D01*
X6579920Y3586937D01*
X6580327Y3590290D01*
X6580225Y3643985D01*
X6579412Y3647287D01*
X6577838Y3650234D01*
X6575602Y3652774D01*
X6572808Y3654704D01*
X6569659Y3655872D01*
G37*
G36*
X6616293Y3656279D02*
G01*
X6612940Y3655872D01*
X6609791Y3654704D01*
X6606997Y3652774D01*
X6604762Y3650234D01*
X6603187Y3647287D01*
X6602374Y3643985D01*
X6602272Y3590290D01*
X6602679Y3586937D01*
X6603898Y3583787D01*
X6605828Y3580993D01*
X6608318Y3578758D01*
X6611315Y3577234D01*
X6614617Y3576421D01*
X6617970Y3576421D01*
X6621272Y3577234D01*
X6624269Y3578758D01*
X6626758Y3580993D01*
X6628688Y3583787D01*
X6629908Y3586937D01*
X6630314Y3590290D01*
X6630212Y3643985D01*
X6629400Y3647287D01*
X6627825Y3650234D01*
X6625590Y3652774D01*
X6622796Y3654704D01*
X6619646Y3655872D01*
G37*
G36*
X6666280Y3656279D02*
G01*
X6662978Y3655872D01*
X6659778Y3654704D01*
X6657035Y3652774D01*
X6655816Y3651605D01*
X6653885Y3648811D01*
X6652717Y3645662D01*
X6652310Y3642309D01*
X6652412Y3588613D01*
X6653225Y3585311D01*
X6653885Y3583787D01*
X6655816Y3580993D01*
X6658356Y3578758D01*
X6661353Y3577234D01*
X6664604Y3576421D01*
X6668008Y3576421D01*
X6671259Y3577234D01*
X6674256Y3578758D01*
X6676796Y3580993D01*
X6678726Y3583787D01*
X6679895Y3586937D01*
X6680301Y3590290D01*
X6680200Y3643985D01*
X6679387Y3647287D01*
X6678726Y3648811D01*
X6676796Y3651605D01*
X6674256Y3653840D01*
X6671259Y3655364D01*
X6668008Y3656177D01*
G37*
G36*
X6716318Y3656279D02*
G01*
X6712966Y3655872D01*
X6709765Y3654704D01*
X6707022Y3652774D01*
X6705803Y3651605D01*
X6703872Y3648811D01*
X6702704Y3645662D01*
X6702298Y3642309D01*
X6702399Y3588613D01*
X6703212Y3585311D01*
X6703872Y3583787D01*
X6705803Y3580993D01*
X6708343Y3578758D01*
X6711340Y3577234D01*
X6714591Y3576421D01*
X6717995Y3576421D01*
X6721246Y3577234D01*
X6724243Y3578758D01*
X6726783Y3580993D01*
X6728714Y3583787D01*
X6729882Y3586937D01*
X6730288Y3590290D01*
X6730187Y3643985D01*
X6729374Y3647287D01*
X6728714Y3648811D01*
X6726783Y3651605D01*
X6724243Y3653840D01*
X6721246Y3655364D01*
X6717995Y3656177D01*
G37*
G36*
X6765290Y3555288D02*
G01*
X6761937Y3554882D01*
X6758787Y3553714D01*
X6755993Y3551783D01*
X6753758Y3549243D01*
X6752234Y3546246D01*
X6751421Y3542995D01*
X6751421Y3539591D01*
X6752234Y3536340D01*
X6753758Y3533343D01*
X6755993Y3530803D01*
X6758787Y3528872D01*
X6761937Y3527704D01*
X6765290Y3527298D01*
X6818985Y3527399D01*
X6822287Y3528212D01*
X6823811Y3528872D01*
X6826605Y3530803D01*
X6828840Y3533343D01*
X6830364Y3536340D01*
X6831177Y3539591D01*
X6831177Y3542995D01*
X6830364Y3546246D01*
X6828840Y3549243D01*
X6826605Y3551783D01*
X6823811Y3553714D01*
X6820662Y3554882D01*
X6817309Y3555288D01*
G37*
G36*
X6765290Y3505301D02*
G01*
X6761937Y3504895D01*
X6758787Y3503726D01*
X6755993Y3501796D01*
X6753758Y3499256D01*
X6752234Y3496259D01*
X6751421Y3493008D01*
X6751421Y3489604D01*
X6752234Y3486353D01*
X6753758Y3483356D01*
X6755993Y3480815D01*
X6758787Y3478885D01*
X6761937Y3477717D01*
X6765290Y3477310D01*
X6818985Y3477412D01*
X6822287Y3478225D01*
X6823811Y3478885D01*
X6826605Y3480815D01*
X6828840Y3483356D01*
X6830364Y3486353D01*
X6831177Y3489604D01*
X6831177Y3493008D01*
X6830364Y3496259D01*
X6828840Y3499256D01*
X6826605Y3501796D01*
X6823811Y3503726D01*
X6820662Y3504895D01*
X6817309Y3505301D01*
G37*
G36*
X6765290Y3455314D02*
G01*
X6761937Y3454908D01*
X6758787Y3453688D01*
X6755993Y3451758D01*
X6753758Y3449269D01*
X6752234Y3446272D01*
X6751421Y3442970D01*
X6751421Y3439617D01*
X6752234Y3436315D01*
X6753758Y3433318D01*
X6755993Y3430828D01*
X6758787Y3428898D01*
X6761937Y3427679D01*
X6765290Y3427272D01*
X6818985Y3427374D01*
X6822287Y3428187D01*
X6825234Y3429762D01*
X6827774Y3431997D01*
X6829704Y3434791D01*
X6830872Y3437940D01*
X6831279Y3441293D01*
X6830872Y3444646D01*
X6829704Y3447796D01*
X6827774Y3450590D01*
X6825234Y3452825D01*
X6822287Y3454400D01*
X6818985Y3455212D01*
G37*
G36*
X6765290Y3405327D02*
G01*
X6761937Y3404920D01*
X6758787Y3403701D01*
X6755993Y3401771D01*
X6753758Y3399282D01*
X6752234Y3396284D01*
X6751421Y3392982D01*
X6751421Y3389629D01*
X6752234Y3386328D01*
X6753758Y3383330D01*
X6755993Y3380841D01*
X6758787Y3378911D01*
X6761937Y3377692D01*
X6765290Y3377285D01*
X6818985Y3377387D01*
X6822287Y3378200D01*
X6825234Y3379774D01*
X6827774Y3382010D01*
X6829704Y3384804D01*
X6830872Y3387953D01*
X6831279Y3391306D01*
X6830872Y3394659D01*
X6829704Y3397808D01*
X6827774Y3400602D01*
X6825234Y3402837D01*
X6822287Y3404412D01*
X6818985Y3405225D01*
G37*
G36*
X6765290Y3355289D02*
G01*
X6761937Y3354882D01*
X6758787Y3353714D01*
X6755993Y3351784D01*
X6753758Y3349244D01*
X6752234Y3346246D01*
X6751421Y3342995D01*
X6751421Y3339592D01*
X6752234Y3336340D01*
X6753758Y3333343D01*
X6755993Y3330803D01*
X6758787Y3328873D01*
X6761937Y3327704D01*
X6765290Y3327298D01*
X6818985Y3327400D01*
X6822287Y3328212D01*
X6823811Y3328873D01*
X6826605Y3330803D01*
X6828840Y3333343D01*
X6830364Y3336340D01*
X6831177Y3339592D01*
X6831177Y3342995D01*
X6830364Y3346246D01*
X6828840Y3349244D01*
X6826605Y3351784D01*
X6823811Y3353714D01*
X6820662Y3354882D01*
X6817309Y3355289D01*
G37*
G36*
X6765290Y3305301D02*
G01*
X6761937Y3304895D01*
X6758787Y3303727D01*
X6755993Y3301796D01*
X6753758Y3299256D01*
X6752234Y3296259D01*
X6751421Y3293008D01*
X6751421Y3289604D01*
X6752234Y3286353D01*
X6753758Y3283356D01*
X6755993Y3280816D01*
X6758787Y3278886D01*
X6761937Y3277717D01*
X6765290Y3277311D01*
X6818985Y3277412D01*
X6822287Y3278225D01*
X6823811Y3278886D01*
X6826605Y3280816D01*
X6828840Y3283356D01*
X6830364Y3286353D01*
X6831177Y3289604D01*
X6831177Y3293008D01*
X6830364Y3296259D01*
X6828840Y3299256D01*
X6826605Y3301796D01*
X6823811Y3303727D01*
X6820662Y3304895D01*
X6817309Y3305301D01*
G37*
G36*
X6716318Y3256279D02*
G01*
X6712966Y3255873D01*
X6709765Y3254705D01*
X6707022Y3252774D01*
X6705803Y3251606D01*
X6703872Y3248812D01*
X6702704Y3245662D01*
X6702298Y3242310D01*
X6702399Y3188614D01*
X6703212Y3185312D01*
X6703872Y3183788D01*
X6705803Y3180994D01*
X6708343Y3178759D01*
X6711340Y3177235D01*
X6714591Y3176422D01*
X6717995Y3176422D01*
X6721246Y3177235D01*
X6724243Y3178759D01*
X6726783Y3180994D01*
X6728714Y3183788D01*
X6729882Y3186938D01*
X6730288Y3190290D01*
X6730187Y3243986D01*
X6729374Y3247288D01*
X6728714Y3248812D01*
X6726783Y3251606D01*
X6724243Y3253841D01*
X6721246Y3255365D01*
X6717995Y3256178D01*
G37*
G36*
X6666280Y3256279D02*
G01*
X6662978Y3255873D01*
X6659778Y3254705D01*
X6657035Y3252774D01*
X6655816Y3251606D01*
X6653885Y3248812D01*
X6652717Y3245662D01*
X6652310Y3242310D01*
X6652412Y3188614D01*
X6653225Y3185312D01*
X6653885Y3183788D01*
X6655816Y3180994D01*
X6658356Y3178759D01*
X6661353Y3177235D01*
X6664604Y3176422D01*
X6668008Y3176422D01*
X6671259Y3177235D01*
X6674256Y3178759D01*
X6676796Y3180994D01*
X6678726Y3183788D01*
X6679895Y3186938D01*
X6680301Y3190290D01*
X6680200Y3243986D01*
X6679387Y3247288D01*
X6678726Y3248812D01*
X6676796Y3251606D01*
X6674256Y3253841D01*
X6671259Y3255365D01*
X6668008Y3256178D01*
G37*
G36*
X6616293Y3256279D02*
G01*
X6612940Y3255873D01*
X6609791Y3254705D01*
X6606997Y3252774D01*
X6604762Y3250234D01*
X6603187Y3247288D01*
X6602374Y3243986D01*
X6602272Y3190290D01*
X6602679Y3186938D01*
X6603898Y3183788D01*
X6605828Y3180994D01*
X6608318Y3178759D01*
X6611315Y3177235D01*
X6614617Y3176422D01*
X6617970Y3176422D01*
X6621272Y3177235D01*
X6624269Y3178759D01*
X6626758Y3180994D01*
X6628688Y3183788D01*
X6629908Y3186938D01*
X6630314Y3190290D01*
X6630212Y3243986D01*
X6629400Y3247288D01*
X6627825Y3250234D01*
X6625590Y3252774D01*
X6622796Y3254705D01*
X6619646Y3255873D01*
G37*
G36*
X6566306Y3256279D02*
G01*
X6562953Y3255873D01*
X6559803Y3254705D01*
X6557009Y3252774D01*
X6554774Y3250234D01*
X6553200Y3247288D01*
X6552387Y3243986D01*
X6552285Y3190290D01*
X6552692Y3186938D01*
X6553911Y3183788D01*
X6555841Y3180994D01*
X6558330Y3178759D01*
X6561328Y3177235D01*
X6564630Y3176422D01*
X6567982Y3176422D01*
X6571284Y3177235D01*
X6574281Y3178759D01*
X6576771Y3180994D01*
X6578701Y3183788D01*
X6579920Y3186938D01*
X6580327Y3190290D01*
X6580225Y3243986D01*
X6579412Y3247288D01*
X6577838Y3250234D01*
X6575602Y3252774D01*
X6572808Y3254705D01*
X6569659Y3255873D01*
G37*
G36*
X6516319Y3256279D02*
G01*
X6512966Y3255873D01*
X6509766Y3254705D01*
X6507022Y3252774D01*
X6505803Y3251606D01*
X6503873Y3248812D01*
X6502704Y3245662D01*
X6502298Y3242310D01*
X6502400Y3188614D01*
X6503212Y3185312D01*
X6503873Y3183788D01*
X6505803Y3180994D01*
X6508343Y3178759D01*
X6511340Y3177235D01*
X6514592Y3176422D01*
X6517995Y3176422D01*
X6521246Y3177235D01*
X6524244Y3178759D01*
X6526784Y3180994D01*
X6528714Y3183788D01*
X6529882Y3186938D01*
X6530289Y3190290D01*
X6530187Y3243986D01*
X6529374Y3247288D01*
X6528714Y3248812D01*
X6526784Y3251606D01*
X6524244Y3253841D01*
X6521246Y3255365D01*
X6517995Y3256178D01*
G37*
G36*
X6466281Y3256279D02*
G01*
X6462979Y3255873D01*
X6459778Y3254705D01*
X6457035Y3252774D01*
X6455816Y3251606D01*
X6453886Y3248812D01*
X6452717Y3245662D01*
X6452311Y3242310D01*
X6452412Y3188614D01*
X6453225Y3185312D01*
X6453886Y3183788D01*
X6455816Y3180994D01*
X6458356Y3178759D01*
X6461353Y3177235D01*
X6464604Y3176422D01*
X6468008Y3176422D01*
X6471259Y3177235D01*
X6474256Y3178759D01*
X6476796Y3180994D01*
X6478727Y3183788D01*
X6479895Y3186938D01*
X6480302Y3190290D01*
X6480200Y3243986D01*
X6479387Y3247288D01*
X6478727Y3248812D01*
X6476796Y3251606D01*
X6474256Y3253841D01*
X6471259Y3255365D01*
X6468008Y3256178D01*
G37*
G36*
X6484518Y3524300D02*
G01*
X6484518Y3308299D01*
X6700570Y3308299D01*
X6700570Y3524300D01*
G37*
G36*
X5209590Y2788818D02*
G01*
X5204612Y2783789D01*
X5204612Y2655824D01*
X5209590Y2650794D01*
X5324602Y2650794D01*
X5329580Y2655824D01*
X5329123Y2697784D01*
X5285079Y2697784D01*
X5285079Y2742793D01*
X5330088Y2742793D01*
X5329580Y2783789D01*
X5324602Y2788818D01*
G37*
G36*
X5424576Y2788818D02*
G01*
X5419598Y2783789D01*
X5420106Y2742793D01*
X5464098Y2742793D01*
X5464098Y2697784D01*
X5419598Y2697784D01*
X5419598Y2655824D01*
X5424576Y2650794D01*
X5539587Y2650794D01*
X5544616Y2655824D01*
X5544616Y2783789D01*
X5539587Y2788818D01*
G37*
D10*
G01*
X6049009Y2514600D03*
G01*
X6219190Y2514600D03*
G01*
X6219190Y2717800D03*
G01*
X6049009Y2717800D03*
G01*
X9686290Y5791200D03*
G01*
X9516109Y5791200D03*
D11*
G01*
X9357300Y6438900D03*
D12*
G01*
X9794290Y6438900D03*
D13*
G01*
X9423400Y4946497D03*
G01*
X9423400Y5086502D03*
D10*
G01*
X5080000Y2078989D03*
G01*
X5080000Y1908810D03*
D14*
G01*
X7950200Y6299149D03*
D15*
G01*
X8097697Y6451650D03*
G01*
X7802702Y6451650D03*
D16*
G01*
X9147098Y4958994D03*
G01*
X9147098Y5084013D03*
G01*
X9147098Y5209006D03*
G01*
X9147098Y5334000D03*
G01*
X9147098Y5458993D03*
G01*
X9147098Y5584012D03*
G01*
X9147098Y5709005D03*
D17*
G01*
X8922105Y5933998D03*
G01*
X8797112Y5933998D03*
G01*
X8672093Y5933998D03*
G01*
X8547100Y5933998D03*
G01*
X8422106Y5933998D03*
G01*
X8297087Y5933998D03*
G01*
X8172094Y5933998D03*
D16*
G01*
X7947101Y5709005D03*
G01*
X7947101Y5584012D03*
G01*
X7947101Y5458993D03*
G01*
X7947101Y5334000D03*
G01*
X7947101Y5209006D03*
G01*
X7947101Y5084013D03*
G01*
X7947101Y4958994D03*
D17*
G01*
X8172094Y4734001D03*
G01*
X8297087Y4734001D03*
G01*
X8422106Y4734001D03*
G01*
X8547100Y4734001D03*
G01*
X8672093Y4734001D03*
G01*
X8797112Y4734001D03*
G01*
X8922105Y4734001D03*
D13*
G01*
X3124200Y5873597D03*
G01*
X3124200Y6013602D03*
D18*
G01*
X4375302Y4025900D03*
G01*
X4235297Y4025900D03*
D13*
G01*
X2476500Y5873597D03*
G01*
X2476500Y6013602D03*
G01*
X2260600Y5873597D03*
G01*
X2260600Y6013602D03*
G01*
X2692400Y5873597D03*
G01*
X2692400Y6013602D03*
D18*
G01*
X3320897Y5092700D03*
G01*
X3460902Y5092700D03*
D13*
G01*
X2908300Y5873597D03*
G01*
X2908300Y6013602D03*
D18*
G01*
X1352397Y5041900D03*
G01*
X1492402Y5041900D03*
G01*
X2013102Y4826000D03*
G01*
X1873097Y4826000D03*
G01*
X2013102Y5054600D03*
G01*
X1873097Y5054600D03*
G01*
X2013102Y5270500D03*
G01*
X1873097Y5270500D03*
G01*
X3320897Y5270500D03*
G01*
X3460902Y5270500D03*
G01*
X6826402Y2679700D03*
G01*
X6686397Y2679700D03*
G01*
X6483197Y3860800D03*
G01*
X6623202Y3860800D03*
G01*
X7372197Y2654300D03*
G01*
X7512202Y2654300D03*
D13*
G01*
X8051800Y3155797D03*
G01*
X8051800Y3295802D03*
G01*
X7366000Y3295802D03*
G01*
X7366000Y3155797D03*
D18*
G01*
X3320897Y5448300D03*
G01*
X3460902Y5448300D03*
D19*
G01*
X6457899Y7530998D03*
G01*
X6457899Y7201001D03*
G01*
X6927900Y7201001D03*
G01*
X6927900Y7530998D03*
G01*
X5365699Y7530998D03*
G01*
X5365699Y7201001D03*
G01*
X5835700Y7201001D03*
G01*
X5835700Y7530998D03*
G01*
X4248099Y7530998D03*
G01*
X4248099Y7201001D03*
G01*
X4718100Y7201001D03*
G01*
X4718100Y7530998D03*
D20*
G01*
X4285995Y3188157D03*
G01*
X4096004Y3188157D03*
G01*
X4191000Y2958642D03*
D21*
G01*
X4197604Y4219905D03*
G01*
X4387595Y4219905D03*
G01*
X4292600Y4466894D03*
D22*
G01*
X7556507Y3130547D03*
G01*
X7556507Y3224527D03*
G01*
X7556507Y3321042D03*
G01*
X7835907Y3318507D03*
G01*
X7835907Y3130547D03*
D23*
G01*
X5692698Y3238500D03*
G01*
X5692698Y3303498D03*
G01*
X5508701Y3303498D03*
G01*
X5508701Y3238500D03*
G01*
X5508701Y3173501D03*
G01*
X5692698Y3173501D03*
D24*
G01*
X4687798Y3239185D03*
G01*
X4557801Y3239185D03*
G01*
X4557801Y3009214D03*
G01*
X4687798Y3009214D03*
G01*
X4622800Y3009188D03*
G01*
X4622825Y3239185D03*
D25*
G01*
X6436410Y6437985D03*
G01*
X6309410Y6437985D03*
G01*
X6182410Y6437985D03*
G01*
X6055410Y6437985D03*
G01*
X5928410Y6437985D03*
G01*
X5801410Y6437985D03*
G01*
X5674410Y6437985D03*
G01*
X5547410Y6437985D03*
G01*
X5420410Y6437985D03*
G01*
X5293410Y6437985D03*
G01*
X5166410Y6437985D03*
G01*
X5039410Y6437985D03*
G01*
X4912410Y6437985D03*
G01*
X4785410Y6437985D03*
D26*
G01*
X4663389Y6159500D03*
G01*
X4663389Y6032500D03*
G01*
X4663389Y5905500D03*
G01*
X4663389Y5778500D03*
G01*
X4663389Y5651500D03*
D27*
G01*
X4663419Y5524500D03*
G01*
X4663419Y5397500D03*
G01*
X4663419Y5270500D03*
G01*
X4663419Y5143500D03*
G01*
X4663419Y5016500D03*
D28*
G01*
X4785410Y4738009D03*
G01*
X4912410Y4738009D03*
G01*
X5039410Y4738009D03*
G01*
X5166410Y4738009D03*
G01*
X5293410Y4738009D03*
G01*
X5420410Y4738009D03*
G01*
X5547410Y4738009D03*
G01*
X5674410Y4738009D03*
G01*
X5801410Y4738009D03*
G01*
X5928410Y4738009D03*
G01*
X6055410Y4738009D03*
G01*
X6182410Y4738009D03*
G01*
X6309410Y4738009D03*
G01*
X6436410Y4738009D03*
D29*
G01*
X5664911Y5738012D03*
D30*
G01*
X3467100Y5925210D03*
G01*
X3721100Y5925210D03*
G01*
X3721100Y6165189D03*
G01*
X3467100Y6165189D03*
M02*
