G04 Layer: TopSolderMaskLayer*
G04 EasyEDA v6.5.23, 2023-05-28 22:20:17*
G04 a98212a221284062af17828272900665,7a5a352eff0f4c5696d858f44224924f,10*
G04 Gerber Generator version 0.2*
G04 Scale: 100 percent, Rotated: No, Reflected: No *
G04 Dimensions in millimeters *
G04 leading zeros omitted , absolute positions ,4 integer and 5 decimal *
%FSLAX45Y45*%
%MOMM*%

%AMMACRO1*1,1,$1,$2,$3*1,1,$1,$4,$5*1,1,$1,0-$2,0-$3*1,1,$1,0-$4,0-$5*20,1,$1,$2,$3,$4,$5,0*20,1,$1,$4,$5,0-$2,0-$3,0*20,1,$1,0-$2,0-$3,0-$4,0-$5,0*20,1,$1,0-$4,0-$5,$2,$3,0*4,1,4,$2,$3,$4,$5,0-$2,0-$3,0-$4,0-$5,$2,$3,0*%
%ADD10MACRO1,0.1016X-0.4X-0.4X-0.4X0.4*%
%ADD11C,5.6032*%
%ADD12C,0.8032*%
%ADD13MACRO1,0.1016X-0.4032X-0.432X-0.4032X0.432*%
%ADD14MACRO1,0.1016X0.4032X-0.432X0.4032X0.432*%
%ADD15MACRO1,0.1016X0.4032X0.432X0.4032X-0.432*%
%ADD16MACRO1,0.1016X-0.4032X0.432X-0.4032X-0.432*%
%ADD17MACRO1,0.1016X0.615X0.68X0.615X-0.68*%
%ADD18MACRO1,0.1016X-0.615X0.68X-0.615X-0.68*%
%ADD19MACRO1,0.1016X0.45X0.4X0.45X-0.4*%
%ADD20C,1.5016*%
%ADD21MACRO1,0.1016X-0.762X0.7X0.762X0.7*%
%ADD22MACRO1,0.1016X0.4X-0.4X-0.4X-0.4*%
%ADD23MACRO1,0.1X0.5X-0.525X-0.5X-0.525*%
%ADD24MACRO1,0.1X0.525X-1.1X-0.525X-1.1*%
%ADD25MACRO1,0.1X1.15X-0.5X-1.15X-0.5*%
%ADD26MACRO1,0.1X0.5X-1.15X-0.5X-1.15*%
%ADD27MACRO1,0.1016X0.432X-0.4032X-0.432X-0.4032*%
%ADD28MACRO1,0.1016X0.432X0.4032X-0.432X0.4032*%
%ADD29MACRO1,0.1016X-0.432X0.4032X0.432X0.4032*%
%ADD30MACRO1,0.1016X-0.432X-0.4032X0.432X-0.4032*%
%ADD31MACRO1,0.1016X-0.15X0.65X0.15X0.65*%
%ADD32O,1.3015976000000002X1.9015964*%
%ADD33O,1.3015976000000002X2.1015960000000002*%
%ADD34MACRO1,0.1016X-0.4X0.45X0.4X0.45*%
%ADD35MACRO1,0.1016X0.4X-0.45X-0.4X-0.45*%
%ADD36MACRO1,0.1016X-0.45X-0.4X-0.45X0.4*%
%ADD37MACRO1,0.1016X-0.8X0.8X0.8X0.8*%
%ADD38C,1.7016*%
%ADD39C,1.9016*%
%ADD40C,2.6016*%
%ADD41MACRO1,0.1016X-0.5663X0.6885X-0.5663X-0.6885*%
%ADD42MACRO1,0.1016X0.5663X0.6885X0.5663X-0.6885*%
%ADD43MACRO1,0.1X-0.8X0.6X0.8X0.6*%
%ADD44MACRO1,0.1016X0.266X0.5225X-0.266X0.5225*%
%ADD45MACRO1,0.1016X0.3X0.535X0.3X-0.535*%
%ADD46MACRO1,0.1016X-0.5524X0.3112X-0.5524X-0.3112*%
%ADD47MACRO1,0.1016X-0.5524X0.3111X-0.5524X-0.3111*%
%ADD48MACRO1,0.1016X0.35X-0.21X-0.35X-0.21*%
%ADD49C,2.3016*%
%ADD50C,1.6256*%
%ADD51MACRO1,0.1016X0.2X-0.4X-0.2X-0.4*%
%ADD52MACRO1,0.1016X-0.2X0.4X0.2X0.4*%
%ADD53MACRO1,0.1X0.3325X-0.14X-0.3325X-0.14*%
%ADD54MACRO1,0.1X0.14X0.3325X-0.14X0.3325*%
%ADD55MACRO1,0.1X-0.3325X-0.14X0.3325X-0.14*%
%ADD56MACRO1,0.1X-1.275X-1.275X-1.275X1.275*%
%ADD57O,0.3800348X0.9000236*%
%ADD58O,0.9000236X0.3800348*%
%ADD59MACRO1,0.1X-1.35X1.35X1.35X1.35*%
%ADD60MACRO1,0.1016X0.45X1X0.45X-1*%
%ADD61MACRO1,0.1016X1X-0.45X-1X-0.45*%
%ADD62MACRO1,0.1016X1X0.45X-1X0.45*%
%ADD63MACRO1,0.1016X-0.45X1X-0.45X-1*%
%ADD64MACRO1,0.1016X2.5X2.5X2.5X-2.5*%
%ADD65MACRO1,0.1016X-0.75X0.6X0.75X0.6*%
%ADD66MACRO1,0.1016X0.75X-0.6X-0.75X-0.6*%
%ADD67MACRO1,0.1016X-0.705X-0.675X-0.705X0.675*%
%ADD68MACRO1,0.1016X0.705X-0.675X0.705X0.675*%
%ADD69C,0.0178*%

%LPD*%
D10*
G01*
X6049010Y2514600D03*
G01*
X6219189Y2514600D03*
G01*
X6219189Y2717800D03*
G01*
X6049010Y2717800D03*
D11*
G01*
X9601200Y7289800D03*
D12*
G01*
X9803688Y7289800D03*
G01*
X9744379Y7146620D03*
G01*
X9601200Y7087311D03*
G01*
X9458020Y7146620D03*
G01*
X9398711Y7289800D03*
G01*
X9458020Y7432979D03*
G01*
X9601200Y7492288D03*
G01*
X9744379Y7432979D03*
D11*
G01*
X9613900Y2247900D03*
D12*
G01*
X9816388Y2247900D03*
G01*
X9757079Y2104720D03*
G01*
X9613900Y2045411D03*
G01*
X9470720Y2104720D03*
G01*
X9411411Y2247900D03*
G01*
X9470720Y2391079D03*
G01*
X9613900Y2450388D03*
G01*
X9757079Y2391079D03*
D11*
G01*
X1612900Y2247900D03*
D12*
G01*
X1815388Y2247900D03*
G01*
X1756079Y2104720D03*
G01*
X1612900Y2045411D03*
G01*
X1469720Y2104720D03*
G01*
X1410411Y2247900D03*
G01*
X1469720Y2391079D03*
G01*
X1612900Y2450388D03*
G01*
X1756079Y2391079D03*
D11*
G01*
X1612900Y7277100D03*
D12*
G01*
X1815388Y7277100D03*
G01*
X1756079Y7133920D03*
G01*
X1612900Y7074611D03*
G01*
X1469720Y7133920D03*
G01*
X1410411Y7277100D03*
G01*
X1469720Y7420279D03*
G01*
X1612900Y7479588D03*
G01*
X1756079Y7420279D03*
D10*
G01*
X9686289Y5791200D03*
G01*
X9516110Y5791200D03*
D13*
G01*
X9663824Y5994400D03*
D14*
G01*
X9513175Y5994400D03*
D15*
G01*
X6071475Y3073400D03*
D16*
G01*
X6222124Y3073400D03*
D13*
G01*
X6222124Y3225800D03*
D14*
G01*
X6071475Y3225800D03*
D17*
G01*
X9357300Y6438900D03*
D18*
G01*
X9794299Y6438900D03*
D19*
G01*
X9423400Y4946500D03*
G01*
X9423400Y5086499D03*
D20*
G01*
X8947099Y4229100D03*
G01*
X8747099Y4229100D03*
G01*
X8547100Y4229100D03*
G01*
X8347100Y4229100D03*
D21*
G01*
X8147100Y4229100D03*
D22*
G01*
X5080000Y2078989D03*
G01*
X5080000Y1908810D03*
D15*
G01*
X9513175Y6146800D03*
D16*
G01*
X9663824Y6146800D03*
D15*
G01*
X7468475Y5321300D03*
D16*
G01*
X7619124Y5321300D03*
D15*
G01*
X7468475Y5626100D03*
D16*
G01*
X7619124Y5626100D03*
D13*
G01*
X7619124Y5473700D03*
D14*
G01*
X7468475Y5473700D03*
D13*
G01*
X5206124Y2514600D03*
D14*
G01*
X5055475Y2514600D03*
D23*
G01*
X7950197Y6299149D03*
D24*
G01*
X8097697Y6451648D03*
G01*
X7802697Y6451648D03*
D25*
G01*
X9147097Y4959002D03*
G01*
X9147101Y5084003D03*
G01*
X9147101Y5209001D03*
G01*
X9147101Y5334002D03*
G01*
X9147101Y5459001D03*
G01*
X9147101Y5584002D03*
G01*
X9147101Y5709003D03*
D26*
G01*
X8922097Y5934003D03*
G01*
X8797099Y5934003D03*
G01*
X8672098Y5934003D03*
G01*
X8547097Y5934003D03*
G01*
X8422098Y5934003D03*
G01*
X8297097Y5934003D03*
G01*
X8172099Y5934003D03*
D25*
G01*
X7947093Y5709003D03*
G01*
X7947093Y5584002D03*
G01*
X7947093Y5459001D03*
G01*
X7947093Y5334002D03*
G01*
X7947093Y5209001D03*
G01*
X7947093Y5084003D03*
G01*
X7947093Y4959002D03*
D26*
G01*
X8172099Y4734005D03*
G01*
X8297097Y4734005D03*
G01*
X8422098Y4734005D03*
G01*
X8547097Y4734005D03*
G01*
X8672098Y4734005D03*
G01*
X8797099Y4734005D03*
G01*
X8922097Y4734005D03*
D27*
G01*
X2070100Y4406024D03*
D28*
G01*
X2070100Y4255375D03*
D29*
G01*
X3695700Y2096375D03*
D30*
G01*
X3695700Y2247024D03*
D15*
G01*
X6071475Y3708400D03*
D16*
G01*
X6222124Y3708400D03*
D15*
G01*
X6071475Y3860800D03*
D16*
G01*
X6222124Y3860800D03*
D15*
G01*
X5487275Y3708400D03*
D16*
G01*
X5637924Y3708400D03*
D15*
G01*
X5499975Y3860800D03*
D16*
G01*
X5650624Y3860800D03*
D27*
G01*
X4191000Y3821824D03*
D28*
G01*
X4191000Y3671175D03*
D27*
G01*
X4406900Y3821824D03*
D28*
G01*
X4406900Y3671175D03*
D29*
G01*
X3492500Y4255375D03*
D30*
G01*
X3492500Y4406024D03*
D29*
G01*
X3124200Y6261975D03*
D30*
G01*
X3124200Y6412624D03*
D29*
G01*
X2921000Y6261975D03*
D30*
G01*
X2921000Y6412624D03*
D29*
G01*
X2692400Y6261975D03*
D30*
G01*
X2692400Y6412624D03*
D29*
G01*
X2247900Y6261975D03*
D30*
G01*
X2247900Y6412624D03*
D29*
G01*
X2476500Y6261975D03*
D30*
G01*
X2476500Y6412624D03*
D13*
G01*
X1510424Y5295900D03*
D14*
G01*
X1359775Y5295900D03*
D27*
G01*
X2755900Y4406024D03*
D28*
G01*
X2755900Y4255375D03*
D27*
G01*
X2997200Y4406024D03*
D28*
G01*
X2997200Y4255375D03*
D27*
G01*
X2286000Y4406024D03*
D28*
G01*
X2286000Y4255375D03*
D15*
G01*
X5487275Y2514600D03*
D16*
G01*
X5637924Y2514600D03*
D15*
G01*
X6681075Y2514600D03*
D16*
G01*
X6831724Y2514600D03*
D27*
G01*
X2514600Y4406024D03*
D28*
G01*
X2514600Y4255375D03*
D27*
G01*
X3251200Y4406024D03*
D28*
G01*
X3251200Y4255375D03*
D31*
G01*
X5616169Y2215977D03*
G01*
X5666182Y2215977D03*
G01*
X5716169Y2215979D03*
G01*
X5766182Y2215977D03*
G01*
X5816169Y2215979D03*
G01*
X5866182Y2215977D03*
G01*
X5916143Y2215977D03*
G01*
X5966181Y2215977D03*
G01*
X5456180Y2215964D03*
G01*
X5486177Y2215979D03*
G01*
X5536181Y2215964D03*
G01*
X5566176Y2215967D03*
G01*
X6016172Y2215964D03*
G01*
X6046185Y2215967D03*
G01*
X6096175Y2215982D03*
G01*
X6126175Y2215982D03*
D32*
G01*
X6223685Y1721154D03*
D33*
G01*
X6223685Y2139137D03*
G01*
X5358663Y2139137D03*
D32*
G01*
X5358663Y1721154D03*
D19*
G01*
X3124200Y5873600D03*
G01*
X3124200Y6013599D03*
D34*
G01*
X4375299Y4025900D03*
G01*
X4235300Y4025900D03*
D19*
G01*
X2476500Y5873600D03*
G01*
X2476500Y6013599D03*
G01*
X2260600Y5873600D03*
G01*
X2260600Y6013599D03*
G01*
X2692400Y5873600D03*
G01*
X2692400Y6013599D03*
D35*
G01*
X3320900Y5092700D03*
G01*
X3460899Y5092700D03*
D19*
G01*
X2908300Y5873600D03*
G01*
X2908300Y6013599D03*
D35*
G01*
X1352400Y5041900D03*
G01*
X1492399Y5041900D03*
D34*
G01*
X2013099Y4826000D03*
G01*
X1873100Y4826000D03*
G01*
X2013099Y5054600D03*
G01*
X1873100Y5054600D03*
G01*
X2013099Y5270500D03*
G01*
X1873100Y5270500D03*
D35*
G01*
X3320900Y5270500D03*
G01*
X3460899Y5270500D03*
D34*
G01*
X6826399Y2679700D03*
G01*
X6686400Y2679700D03*
D35*
G01*
X6483200Y3860800D03*
G01*
X6623199Y3860800D03*
G01*
X7372200Y2654300D03*
G01*
X7512199Y2654300D03*
D19*
G01*
X8051800Y3155800D03*
G01*
X8051800Y3295799D03*
D36*
G01*
X7366000Y3295799D03*
G01*
X7366000Y3155800D03*
D35*
G01*
X3320900Y5448300D03*
G01*
X3460899Y5448300D03*
D37*
G01*
X2323599Y3178695D03*
D38*
G01*
X2450591Y3432682D03*
G01*
X2577591Y3178682D03*
G01*
X2704591Y3432682D03*
G01*
X2831591Y3178682D03*
G01*
X2958591Y3432682D03*
G01*
X3085591Y3178682D03*
G01*
X3212591Y3432682D03*
D39*
G01*
X2106091Y2053691D03*
G01*
X2360091Y2053691D03*
G01*
X3177108Y2053691D03*
G01*
X3431108Y2053691D03*
D40*
G01*
X1994103Y2848686D03*
G01*
X3543096Y2848686D03*
D41*
G01*
X2039726Y5524496D03*
D42*
G01*
X1846473Y5524496D03*
D43*
G01*
X6457906Y7531003D03*
G01*
X6457909Y7201001D03*
G01*
X6927903Y7201001D03*
G01*
X6927905Y7531003D03*
G01*
X5365706Y7531003D03*
G01*
X5365709Y7201001D03*
G01*
X5835703Y7201001D03*
G01*
X5835705Y7531003D03*
G01*
X4248106Y7531003D03*
G01*
X4248109Y7201001D03*
G01*
X4718103Y7201001D03*
G01*
X4718105Y7531003D03*
D44*
G01*
X4285999Y3188149D03*
G01*
X4096000Y3188149D03*
G01*
X4191000Y2958650D03*
D45*
G01*
X4197604Y4219900D03*
G01*
X4387595Y4219900D03*
G01*
X4292600Y4466899D03*
D46*
G01*
X7556507Y3130547D03*
D47*
G01*
X7556507Y3224527D03*
D46*
G01*
X7556507Y3321042D03*
D47*
G01*
X7835907Y3318507D03*
D46*
G01*
X7835907Y3130547D03*
D48*
G01*
X5692692Y3238500D03*
G01*
X5692692Y3303498D03*
G01*
X5508707Y3303498D03*
G01*
X5508707Y3238500D03*
G01*
X5508707Y3173501D03*
G01*
X5692692Y3173501D03*
D49*
G01*
X8547125Y7467600D03*
D40*
G01*
X8802115Y7722590D03*
G01*
X8292109Y7722590D03*
G01*
X8292109Y7212584D03*
G01*
X8802115Y7212584D03*
D49*
G01*
X2743225Y7480300D03*
D40*
G01*
X2998215Y7735290D03*
G01*
X2488209Y7735290D03*
G01*
X2488209Y7225284D03*
G01*
X2998215Y7225284D03*
D39*
G01*
X4143781Y1892300D03*
G01*
X4593818Y1892300D03*
D49*
G01*
X4718811Y2146300D03*
G01*
X4018813Y2146300D03*
D50*
G01*
X8096300Y1722297D03*
G01*
X8296300Y1722297D03*
G01*
X8696299Y1722297D03*
G01*
X8896299Y1722297D03*
G01*
X8896299Y2062302D03*
G01*
X8696299Y2062302D03*
G01*
X8296300Y2062302D03*
G01*
X8096300Y2062302D03*
G01*
X6858000Y1917700D03*
G01*
X7366000Y1917700D03*
G01*
X7112000Y1917700D03*
D51*
G01*
X4687796Y3239195D03*
G01*
X4557803Y3239190D03*
G01*
X4557803Y3009211D03*
G01*
X4687796Y3009211D03*
D52*
G01*
X4622797Y3009201D03*
D51*
G01*
X4622812Y3239197D03*
D53*
G01*
X2933950Y5107400D03*
G01*
X2933950Y5157400D03*
G01*
X2933950Y5207400D03*
G01*
X2933950Y5257399D03*
G01*
X2933950Y5307399D03*
G01*
X2933950Y5357399D03*
D54*
G01*
X2868199Y5423150D03*
G01*
X2818199Y5423150D03*
G01*
X2768199Y5423150D03*
G01*
X2718200Y5423150D03*
G01*
X2668200Y5423150D03*
G01*
X2618200Y5423150D03*
D55*
G01*
X2552449Y5357399D03*
G01*
X2552449Y5307399D03*
G01*
X2552449Y5257399D03*
G01*
X2552449Y5207400D03*
G01*
X2552449Y5157400D03*
G01*
X2552449Y5107400D03*
D54*
G01*
X2618200Y5041649D03*
G01*
X2668200Y5041649D03*
G01*
X2718200Y5041649D03*
G01*
X2768199Y5041649D03*
G01*
X2818199Y5041649D03*
G01*
X2868199Y5041649D03*
D56*
G01*
X2743200Y5232400D03*
D57*
G01*
X6466306Y3216300D03*
G01*
X6516293Y3216300D03*
G01*
X6566306Y3216300D03*
G01*
X6616293Y3216300D03*
G01*
X6666306Y3216300D03*
G01*
X6716293Y3216300D03*
D58*
G01*
X6791299Y3291306D03*
G01*
X6791299Y3341293D03*
G01*
X6791299Y3391306D03*
G01*
X6791299Y3441293D03*
G01*
X6791299Y3491306D03*
G01*
X6791299Y3541293D03*
D57*
G01*
X6716293Y3616299D03*
G01*
X6666306Y3616299D03*
G01*
X6616293Y3616299D03*
G01*
X6566306Y3616299D03*
G01*
X6516293Y3616299D03*
G01*
X6467093Y3616299D03*
D58*
G01*
X6391300Y3541293D03*
G01*
X6391300Y3491306D03*
G01*
X6391300Y3441293D03*
G01*
X6391300Y3391306D03*
G01*
X6391300Y3341293D03*
G01*
X6391300Y3291306D03*
D59*
G01*
X6592544Y3416300D03*
D60*
G01*
X6436410Y6437990D03*
G01*
X6309410Y6437990D03*
G01*
X6182410Y6437990D03*
G01*
X6055410Y6437990D03*
G01*
X5928410Y6437990D03*
G01*
X5801410Y6437990D03*
G01*
X5674410Y6437990D03*
G01*
X5547410Y6437990D03*
G01*
X5420410Y6437990D03*
G01*
X5293410Y6437990D03*
G01*
X5166410Y6437990D03*
G01*
X5039410Y6437990D03*
G01*
X4912410Y6437990D03*
G01*
X4785410Y6437990D03*
D61*
G01*
X4663399Y6159500D03*
G01*
X4663399Y6032500D03*
G01*
X4663399Y5905500D03*
G01*
X4663399Y5778500D03*
G01*
X4663399Y5651500D03*
D62*
G01*
X4663419Y5524500D03*
G01*
X4663419Y5397500D03*
G01*
X4663419Y5270500D03*
G01*
X4663419Y5143500D03*
G01*
X4663419Y5016500D03*
D63*
G01*
X4785410Y4738009D03*
G01*
X4912410Y4738009D03*
G01*
X5039410Y4738009D03*
G01*
X5166410Y4738009D03*
G01*
X5293410Y4738009D03*
G01*
X5420410Y4738009D03*
G01*
X5547410Y4738009D03*
G01*
X5674410Y4738009D03*
G01*
X5801410Y4738009D03*
G01*
X5928410Y4738009D03*
G01*
X6055410Y4738009D03*
G01*
X6182410Y4738009D03*
G01*
X6309410Y4738009D03*
G01*
X6436410Y4738009D03*
D64*
G01*
X5664908Y5738000D03*
D65*
G01*
X3467100Y5925200D03*
G01*
X3721100Y5925200D03*
D66*
G01*
X3721100Y6165199D03*
D65*
G01*
X3467100Y6165199D03*
D67*
G01*
X5472102Y2717800D03*
D68*
G01*
X5272097Y2717800D03*
M02*
